<svg width="93" height="93" viewBox="0 0 93 93" fill="none" xmlns="http://www.w3.org/2000/svg">
<path d="M84.5095 29.6171C81.8102 26.4725 80.033 22.6501 79.2024 18.5901C78.498 15.1473 77.0054 12.1598 74.6684 9.82282C63.9929 -0.852741 39.7455 6.08611 20.5103 25.3213C1.27508 44.5565 -5.66378 68.8039 5.01179 79.4795C10.0863 84.554 18.2274 85.6471 27.4388 83.3324C32.7886 81.9881 38.4338 82.5537 43.4758 84.791C47.6903 86.661 52.3397 87.7287 57.2304 87.8C76.4254 88.0803 92.4229 72.8053 92.9843 53.6162C93.253 44.4423 90.0138 36.0294 84.5095 29.6171Z" fill="url(#paint0_linear_223_159)"/>
<path opacity="0.1" d="M76.1895 75.4767H15.9023C13.9914 75.4767 12.4424 73.9277 12.4424 72.0169V8.45989C12.4424 6.54903 13.9914 5 15.9023 5H76.1897C78.1006 5 79.6496 6.54903 79.6496 8.45989V72.0169C79.6494 73.9277 78.1004 75.4767 76.1895 75.4767Z" fill="#242F4D"/>
<path d="M76.1895 78.549H15.9023C13.9914 78.549 12.4424 77 12.4424 75.0891V11.5322C12.4424 9.6213 13.9914 8.07227 15.9023 8.07227H76.1897C78.1006 8.07227 79.6496 9.6213 79.6496 11.5322V75.0891C79.6494 77 78.1004 78.549 76.1895 78.549Z" fill="white"/>
<path d="M79.6494 18.2788V11.5322C79.6494 9.6213 78.1004 8.07227 76.1895 8.07227H15.9023C13.9914 8.07227 12.4424 9.6213 12.4424 11.5322V18.2788H79.6494Z" fill="#1E80F3"/>
<path d="M76.1895 7.16406H15.9023C13.4937 7.16406 11.5342 9.1236 11.5342 11.5322V68.9132C11.5342 69.4148 11.9407 69.8214 12.4424 69.8214C12.9441 69.8214 13.3506 69.4148 13.3506 68.9132V11.532C13.3506 10.125 14.4953 8.98029 15.9023 8.98029H76.1895C77.5965 8.98029 78.7412 10.125 78.7412 11.532V17.3704H19.8896C19.388 17.3704 18.9814 17.777 18.9814 18.2787C18.9814 18.7803 19.388 19.1869 19.8896 19.1869H78.7412V75.0889C78.7412 76.4959 77.5965 77.6406 76.1895 77.6406H15.9023C14.4953 77.6406 13.3506 76.4959 13.3506 75.0889C13.3506 74.5872 12.9441 74.1807 12.4424 74.1807C11.9407 74.1807 11.5342 74.5872 11.5342 75.0889C11.5342 77.4975 13.4937 79.457 15.9023 79.457H76.1895C78.5981 79.457 80.5576 77.4975 80.5576 75.0889V11.532C80.5576 9.1236 78.5981 7.16406 76.1895 7.16406Z" fill="#242F4D"/>
<path d="M72.1111 14.0837H69.1104C68.6087 14.0837 68.2021 13.677 68.2021 13.1755C68.2021 12.674 68.6087 12.2673 69.1104 12.2673H72.1111C72.6127 12.2673 73.0193 12.674 73.0193 13.1755C73.0193 13.677 72.6127 14.0837 72.1111 14.0837Z" fill="#02BF7F"/>
<path d="M65.1179 14.0837H62.1172C61.6155 14.0837 61.209 13.677 61.209 13.1755C61.209 12.674 61.6155 12.2673 62.1172 12.2673H65.1179C65.6196 12.2673 66.0261 12.674 66.0261 13.1755C66.0261 13.677 65.6196 14.0837 65.1179 14.0837Z" fill="#F5CA2A"/>
<path d="M55.0368 14.0837H30.2393C29.7376 14.0837 29.3311 13.677 29.3311 13.1755C29.3311 12.674 29.7376 12.2673 30.2393 12.2673H55.0368C55.5385 12.2673 55.945 12.674 55.945 13.1755C55.945 13.677 55.5385 14.0837 55.0368 14.0837Z" fill="#EBEBFF"/>
<path d="M22.5703 71.7722H20.2998C19.7981 71.7722 19.3916 71.3655 19.3916 70.864C19.3916 70.3625 19.7981 69.9558 20.2998 69.9558H22.5703C23.072 69.9558 23.4785 70.3625 23.4785 70.864C23.4785 71.3655 23.072 71.7722 22.5703 71.7722Z" fill="#D9D9FF"/>
<path d="M39.4629 71.7722H26.2939C25.7923 71.7722 25.3857 71.3655 25.3857 70.864C25.3857 70.3625 25.7923 69.9558 26.2939 69.9558H39.4629C39.9646 69.9558 40.3711 70.3625 40.3711 70.864C40.3711 71.3655 39.9646 71.7722 39.4629 71.7722Z" fill="#D9D9FF"/>
<path d="M28.0195 68.6431H20.2998C19.7981 68.6431 19.3916 68.2364 19.3916 67.7349C19.3916 67.2334 19.7981 66.8267 20.2998 66.8267H28.0195C28.5212 66.8267 28.9277 67.2334 28.9277 67.7349C28.9277 68.2364 28.5212 68.6431 28.0195 68.6431Z" fill="#D9D9FF"/>
<path d="M22.5703 64.1433H20.2998C19.7981 64.1433 19.3916 63.7366 19.3916 63.2351C19.3916 62.7336 19.7981 62.3269 20.2998 62.3269H22.5703C23.072 62.3269 23.4785 62.7336 23.4785 63.2351C23.4785 63.7366 23.072 64.1433 22.5703 64.1433Z" fill="#F5CA2A"/>
<path d="M65.1289 71.7722H62.8584C62.3567 71.7722 61.9502 71.3655 61.9502 70.864C61.9502 70.3625 62.3567 69.9558 62.8584 69.9558H65.1289C65.6306 69.9558 66.0371 70.3625 66.0371 70.864C66.0371 71.3655 65.6304 71.7722 65.1289 71.7722Z" fill="#D9D9FF"/>
<path d="M65.1289 68.6431H62.8584C62.3567 68.6431 61.9502 68.2364 61.9502 67.7349C61.9502 67.2334 62.3567 66.8267 62.8584 66.8267H65.1289C65.6306 66.8267 66.0371 67.2334 66.0371 67.7349C66.0371 68.2364 65.6304 68.6431 65.1289 68.6431Z" fill="#D9D9FF"/>
<path d="M5.90553 45.8109C5.67303 45.8109 5.44071 45.7222 5.26324 45.5448L3.26592 43.5476C3.09554 43.3772 3 43.1464 3 42.9055C3 42.6647 3.09572 42.4336 3.26592 42.2634L5.26324 40.2661C5.43362 40.0957 5.66449 40 5.90553 40C6.14638 40 6.37743 40.0957 6.54781 40.2661L8.54495 42.2634C8.89969 42.618 8.89969 43.1931 8.54495 43.5476L6.54781 45.5448C6.37034 45.7222 6.13803 45.8109 5.90553 45.8109ZM5.19258 42.9055L5.90534 43.6183L6.6181 42.9055L5.90534 42.1926L5.19258 42.9055Z" fill="#02BF7F"/>
<path d="M51.9055 90.8109C51.673 90.8109 51.4407 90.7222 51.2632 90.5448L49.2659 88.5476C49.0955 88.3772 49 88.1464 49 87.9055C49 87.6647 49.0957 87.4336 49.2659 87.2634L51.2632 85.2661C51.4336 85.0957 51.6645 85 51.9055 85C52.1464 85 52.3774 85.0957 52.5478 85.2661L54.5449 87.2634C54.8997 87.618 54.8997 88.1931 54.5449 88.5476L52.5478 90.5448C52.3703 90.7222 52.138 90.8109 51.9055 90.8109ZM51.1926 87.9055L51.9053 88.6183L52.6181 87.9055L51.9053 87.1926L51.1926 87.9055Z" fill="#02BF7F"/>
<path d="M3.90934 34.8189C3.40783 34.8189 3.00114 34.4123 3.00114 33.9107C3.00114 33.308 2.51089 32.8175 1.9082 32.8175C1.40669 32.8175 1 32.411 1 31.9093C1 31.4076 1.40669 31.0011 1.9082 31.0011C2.51089 31.0011 3.00114 30.5109 3.00114 29.9082C3.00114 29.4065 3.40783 29 3.90934 29C4.41085 29 4.81754 29.4065 4.81754 29.9082C4.81754 30.5107 5.30779 31.0011 5.91048 31.0011C6.41199 31.0011 6.81868 31.4076 6.81868 31.9093C6.81868 32.411 6.41199 32.8175 5.91048 32.8175C5.30779 32.8175 4.81754 33.3078 4.81754 33.9107C4.81754 34.4123 4.41085 34.8189 3.90934 34.8189Z" fill="#2A8CFF"/>
<path fill-rule="evenodd" clip-rule="evenodd" d="M30.3281 34.7031C30.3281 35.0699 30.0309 35.3672 29.6641 35.3672C29.2973 35.3672 29 35.0699 29 34.7031V27.6641C29 27.2973 29.2973 27 29.6641 27H36.7031C37.0699 27 37.3672 27.2973 37.3672 27.6641C37.3672 28.0309 37.0699 28.3281 36.7031 28.3281H30.3281V34.7031ZM34.0469 45.9922C34.4134 45.9922 34.7109 45.6947 34.7109 45.3281C34.7109 44.9616 34.4134 44.6641 34.0469 44.6641C33.6803 44.6641 33.3828 44.9616 33.3828 45.3281C33.3828 45.6947 33.6803 45.9922 34.0469 45.9922ZM48.6562 45.9922C49.0228 45.9922 49.3203 45.6947 49.3203 45.3281C49.3203 44.9616 49.0228 44.6641 48.6562 44.6641C48.2897 44.6641 47.9922 44.9616 47.9922 45.3281C47.9922 45.6947 48.2897 45.9922 48.6562 45.9922ZM37.3672 60.3359C37.3672 59.9691 37.0699 59.6719 36.7031 59.6719H30.3281V53.2969C30.3281 52.9301 30.0309 52.6328 29.6641 52.6328C29.2973 52.6328 29 52.9301 29 53.2969V60.3359C29 60.7027 29.2973 61 29.6641 61H36.7031C37.0699 61 37.3672 60.7027 37.3672 60.3359ZM61.6719 53.2969C61.6719 52.9301 61.9691 52.6328 62.3359 52.6328C62.7027 52.6328 63 52.9301 63 53.2969V60.3359C63 60.7027 62.7027 61 62.3359 61H55.2969C54.9301 61 54.6328 60.7027 54.6328 60.3359C54.6328 59.9691 54.9301 59.6719 55.2969 59.6719H61.6719V53.2969ZM62.3359 27H55.2969C54.9301 27 54.6328 27.2973 54.6328 27.6641C54.6328 28.0309 54.9301 28.3281 55.2969 28.3281H61.6719V34.7031C61.6719 35.0699 61.9691 35.3672 62.3359 35.3672C62.7027 35.3672 63 35.0699 63 34.7031V27.6641C63 27.2973 62.7027 27 62.3359 27ZM34.0469 56.6172C33.6801 56.6172 33.3828 56.3199 33.3828 55.9531V49.3125C33.3828 48.9457 33.6801 48.6484 34.0469 48.6484H40.6875C41.0543 48.6484 41.3516 48.9457 41.3516 49.3125V55.9531C41.3516 56.3199 41.0543 56.6172 40.6875 56.6172H34.0469ZM40.0234 49.9766H34.7109V55.2891H40.0234V49.9766ZM40.6875 31.3828H34.0469C33.6801 31.3828 33.3828 31.6801 33.3828 32.0469V38.6875C33.3828 39.0543 33.6801 39.3516 34.0469 39.3516H40.6875C41.0543 39.3516 41.3516 39.0543 41.3516 38.6875V32.0469C41.3516 31.6801 41.0543 31.3828 40.6875 31.3828ZM40.0234 38.0234H34.7109V32.7109H40.0234V38.0234ZM57.9531 31.3828C58.3199 31.3828 58.6172 31.6801 58.6172 32.0469V38.6875C58.6172 39.0543 58.3199 39.3516 57.9531 39.3516H51.3125C50.9457 39.3516 50.6484 39.0543 50.6484 38.6875V32.0469C50.6484 31.6801 50.9457 31.3828 51.3125 31.3828H57.9531ZM58.6172 49.3125C58.6172 48.9457 58.3199 48.6484 57.9531 48.6484H51.3125C50.9457 48.6484 50.6484 48.9457 50.6484 49.3125V55.9531C50.6484 56.3199 50.9457 56.6172 51.3125 56.6172H57.9531C58.3199 56.6172 58.6172 56.3199 58.6172 55.9531V49.3125ZM36.7031 51.3047H38.0312C38.398 51.3047 38.6953 51.602 38.6953 51.9688V53.2969C38.6953 53.6637 38.398 53.9609 38.0312 53.9609H36.7031C36.3363 53.9609 36.0391 53.6637 36.0391 53.2969V51.9688C36.0391 51.602 36.3363 51.3047 36.7031 51.3047ZM36.7031 36.6953H38.0312C38.398 36.6953 38.6953 36.398 38.6953 36.0312V34.7031C38.6953 34.3363 38.398 34.0391 38.0312 34.0391H36.7031C36.3363 34.0391 36.0391 34.3363 36.0391 34.7031V36.0312C36.0391 36.398 36.3363 36.6953 36.7031 36.6953ZM55.9609 36.0312C55.9609 36.398 55.6637 36.6953 55.2969 36.6953H53.9688C53.602 36.6953 53.3047 36.398 53.3047 36.0312V34.7031C53.3047 34.3363 53.602 34.0391 53.9688 34.0391H55.2969C55.6637 34.0391 55.9609 34.3363 55.9609 34.7031V36.0312ZM51.9766 38.0234H57.2891V32.7109H51.9766V38.0234ZM55.2969 53.9609C55.6637 53.9609 55.9609 53.6637 55.9609 53.2969V51.9688C55.9609 51.602 55.6637 51.3047 55.2969 51.3047H53.9688C53.602 51.3047 53.3047 51.602 53.3047 51.9688V53.2969C53.3047 53.6637 53.602 53.9609 53.9688 53.9609H55.2969ZM57.2891 55.2891H51.9766V49.9766H57.2891V55.2891ZM36.7031 45.9922C36.3363 45.9922 36.0391 45.6949 36.0391 45.3281C36.0391 44.9613 36.3363 44.6641 36.7031 44.6641H46C46.3668 44.6641 46.6641 44.9613 46.6641 45.3281V49.3125C46.6641 49.6793 46.3668 49.9766 46 49.9766C45.6332 49.9766 45.3359 49.6793 45.3359 49.3125V45.9922H36.7031ZM40.6875 43.3359C41.0543 43.3359 41.3516 43.0387 41.3516 42.6719C41.3516 42.3051 41.0543 42.0078 40.6875 42.0078H34.0469C33.6801 42.0078 33.3828 42.3051 33.3828 42.6719C33.3828 43.0387 33.6801 43.3359 34.0469 43.3359H40.6875ZM46 43.3359H43.3438C42.977 43.3359 42.6797 43.0387 42.6797 42.6719C42.6797 42.3051 42.977 42.0078 43.3438 42.0078H46C46.3668 42.0078 46.6641 42.3051 46.6641 42.6719C46.6641 43.0387 46.3668 43.3359 46 43.3359ZM43.3438 31.3828C42.977 31.3828 42.6797 31.6801 42.6797 32.0469V38.6875C42.6797 39.0543 42.977 39.3516 43.3438 39.3516H47.9922V42.6719C47.9922 43.0387 48.2895 43.3359 48.6562 43.3359H51.3125C51.6793 43.3359 51.9766 43.0387 51.9766 42.6719C51.9766 42.3051 51.6793 42.0078 51.3125 42.0078H49.3203V38.6875C49.3203 38.3207 49.023 38.0234 48.6562 38.0234H44.0078V32.0469C44.0078 31.6801 43.7105 31.3828 43.3438 31.3828ZM53.9688 42.0078H57.9531C58.3199 42.0078 58.6172 42.3051 58.6172 42.6719C58.6172 43.0387 58.3199 43.3359 57.9531 43.3359H53.9688C53.602 43.3359 53.3047 43.0387 53.3047 42.6719C53.3047 42.3051 53.602 42.0078 53.9688 42.0078ZM57.9531 44.6641H51.3125C50.9457 44.6641 50.6484 44.9613 50.6484 45.3281C50.6484 45.6949 50.9457 45.9922 51.3125 45.9922H57.9531C58.3199 45.9922 58.6172 45.6949 58.6172 45.3281C58.6172 44.9613 58.3199 44.6641 57.9531 44.6641ZM43.3438 51.3047H46C46.3668 51.3047 46.6641 51.602 46.6641 51.9688C46.6641 52.3355 46.3668 52.6328 46 52.6328H44.0078V55.9531C44.0078 56.3199 43.7105 56.6172 43.3438 56.6172C42.977 56.6172 42.6797 56.3199 42.6797 55.9531V51.9688C42.6797 51.602 42.977 51.3047 43.3438 51.3047ZM47.9922 55.2891H46C45.6332 55.2891 45.3359 55.5863 45.3359 55.9531C45.3359 56.3199 45.6332 56.6172 46 56.6172H48.6562C49.023 56.6172 49.3203 56.3199 49.3203 55.9531V47.9844C49.3203 47.6176 49.023 47.3203 48.6562 47.3203C48.2895 47.3203 47.9922 47.6176 47.9922 47.9844V55.2891ZM49.3203 36.0312C49.3203 36.398 49.023 36.6953 48.6562 36.6953H46C45.6332 36.6953 45.3359 36.398 45.3359 36.0312C45.3359 35.6645 45.6332 35.3672 46 35.3672H47.9922V32.0469C47.9922 31.6801 48.2895 31.3828 48.6562 31.3828C49.023 31.3828 49.3203 31.6801 49.3203 32.0469V36.0312ZM30.1879 28.1879H36.7031C36.9925 28.1879 37.227 27.9534 37.227 27.6641C37.227 27.3747 36.9925 27.1402 36.7031 27.1402H29.6641C29.3747 27.1402 29.1402 27.3747 29.1402 27.6641V34.7031C29.1402 34.9925 29.3747 35.227 29.6641 35.227C29.9534 35.227 30.1879 34.9925 30.1879 34.7031V28.1879ZM30.1879 59.8121V53.2969C30.1879 53.0075 29.9534 52.773 29.6641 52.773C29.3747 52.773 29.1402 53.0075 29.1402 53.2969V60.3359C29.1402 60.6253 29.3747 60.8598 29.6641 60.8598H36.7031C36.9925 60.8598 37.227 60.6253 37.227 60.3359C37.227 60.0466 36.9925 59.8121 36.7031 59.8121H30.1879ZM61.8121 59.8121H55.2969C55.0075 59.8121 54.773 60.0466 54.773 60.3359C54.773 60.6253 55.0075 60.8598 55.2969 60.8598H62.3359C62.6253 60.8598 62.8598 60.6253 62.8598 60.3359V53.2969C62.8598 53.0075 62.6253 52.773 62.3359 52.773C62.0466 52.773 61.8121 53.0075 61.8121 53.2969V59.8121ZM61.8121 28.1879V34.7031C61.8121 34.9925 62.0466 35.227 62.3359 35.227C62.6253 35.227 62.8598 34.9925 62.8598 34.7031V27.6641C62.8598 27.3747 62.6253 27.1402 62.3359 27.1402H55.2969C55.0075 27.1402 54.773 27.3747 54.773 27.6641C54.773 27.9534 55.0075 28.1879 55.2969 28.1879H61.8121ZM34.5707 49.8364H40.1636V55.4293H34.5707V49.8364ZM34.5707 38.1636V32.5707H40.1636V38.1636H34.5707ZM57.4293 38.1636H51.8364V32.5707H57.4293V38.1636ZM51.8364 55.4293V49.8364H57.4293V55.4293H51.8364ZM45.4761 45.852V49.3125C45.4761 49.6019 45.7106 49.8364 46 49.8364C46.2894 49.8364 46.5239 49.6019 46.5239 49.3125V45.3281C46.5239 45.0388 46.2894 44.8043 46 44.8043H36.7031C36.4138 44.8043 36.1793 45.0388 36.1793 45.3281C36.1793 45.6175 36.4138 45.852 36.7031 45.852H45.4761ZM48.1324 39.2114V42.6719C48.1324 42.9612 48.3669 43.1957 48.6562 43.1957H51.3125C51.6019 43.1957 51.8364 42.9612 51.8364 42.6719C51.8364 42.3825 51.6019 42.148 51.3125 42.148H49.1801V38.6875C49.1801 38.3981 48.9456 38.1636 48.6562 38.1636H43.8676V32.0469C43.8676 31.7575 43.6331 31.523 43.3438 31.523C43.0544 31.523 42.8199 31.7575 42.8199 32.0469V38.6875C42.8199 38.9769 43.0544 39.2114 43.3438 39.2114H48.1324ZM43.8676 52.4926H46C46.2894 52.4926 46.5239 52.2581 46.5239 51.9688C46.5239 51.6794 46.2894 51.4449 46 51.4449H43.3438C43.0544 51.4449 42.8199 51.6794 42.8199 51.9688V55.9531C42.8199 56.2425 43.0544 56.477 43.3438 56.477C43.6331 56.477 43.8676 56.2425 43.8676 55.9531V52.4926ZM48.1324 55.4293H46C45.7106 55.4293 45.4761 55.6638 45.4761 55.9531C45.4761 56.2425 45.7106 56.477 46 56.477H48.6562C48.9456 56.477 49.1801 56.2425 49.1801 55.9531V47.9844C49.1801 47.695 48.9456 47.4605 48.6562 47.4605C48.3669 47.4605 48.1324 47.695 48.1324 47.9844V55.4293ZM48.1324 35.5074H46C45.7106 35.5074 45.4761 35.7419 45.4761 36.0312C45.4761 36.3206 45.7106 36.5551 46 36.5551H48.6562C48.9456 36.5551 49.1801 36.3206 49.1801 36.0312V32.0469C49.1801 31.7575 48.9456 31.523 48.6562 31.523C48.3669 31.523 48.1324 31.7575 48.1324 32.0469V35.5074ZM34.0469 45.852C34.336 45.852 34.5707 45.6172 34.5707 45.3281C34.5707 45.039 34.336 44.8043 34.0469 44.8043C33.7578 44.8043 33.523 45.039 33.523 45.3281C33.523 45.6172 33.7578 45.852 34.0469 45.852ZM48.6562 45.852C48.9453 45.852 49.1801 45.6172 49.1801 45.3281C49.1801 45.039 48.9453 44.8043 48.6562 44.8043C48.3672 44.8043 48.1324 45.039 48.1324 45.3281C48.1324 45.6172 48.3672 45.852 48.6562 45.852ZM36.7031 59.6719C37.0699 59.6719 37.3672 59.9691 37.3672 60.3359C37.3672 60.7027 37.0699 61 36.7031 61H29.6641C29.2973 61 29 60.7027 29 60.3359V53.2969C29 52.9301 29.2973 52.6328 29.6641 52.6328C30.0309 52.6328 30.3281 52.9301 30.3281 53.2969V59.6719H36.7031ZM55.2969 28.3281C54.9301 28.3281 54.6328 28.0309 54.6328 27.6641C54.6328 27.2973 54.9301 27 55.2969 27H62.3359C62.7027 27 63 27.2973 63 27.6641V34.7031C63 35.0699 62.7027 35.3672 62.3359 35.3672C61.9691 35.3672 61.6719 35.0699 61.6719 34.7031V28.3281H55.2969ZM33.523 55.9531C33.523 56.2425 33.7575 56.477 34.0469 56.477H40.6875C40.9769 56.477 41.2114 56.2425 41.2114 55.9531V49.3125C41.2114 49.0231 40.9769 48.7886 40.6875 48.7886H34.0469C33.7575 48.7886 33.523 49.0231 33.523 49.3125V55.9531ZM40.6875 31.523H34.0469C33.7575 31.523 33.523 31.7575 33.523 32.0469V38.6875C33.523 38.9769 33.7575 39.2114 34.0469 39.2114H40.6875C40.9769 39.2114 41.2114 38.9769 41.2114 38.6875V32.0469C41.2114 31.7575 40.9769 31.523 40.6875 31.523ZM40.0234 38.0234H34.7109V32.7109H40.0234V38.0234ZM58.477 32.0469C58.477 31.7575 58.2425 31.523 57.9531 31.523H51.3125C51.0231 31.523 50.7886 31.7575 50.7886 32.0469V38.6875C50.7886 38.9769 51.0231 39.2114 51.3125 39.2114H57.9531C58.2425 39.2114 58.477 38.9769 58.477 38.6875V32.0469ZM58.477 49.3125C58.477 49.0231 58.2425 48.7886 57.9531 48.7886H51.3125C51.0231 48.7886 50.7886 49.0231 50.7886 49.3125V55.9531C50.7886 56.2425 51.0231 56.477 51.3125 56.477H57.9531C58.2425 56.477 58.477 56.2425 58.477 55.9531V49.3125ZM38.5551 51.9688C38.5551 51.6794 38.3206 51.4449 38.0312 51.4449H36.7031C36.4138 51.4449 36.1793 51.6794 36.1793 51.9688V53.2969C36.1793 53.5862 36.4138 53.8207 36.7031 53.8207H38.0312C38.3206 53.8207 38.5551 53.5862 38.5551 53.2969V51.9688ZM36.7031 36.5551H38.0312C38.3206 36.5551 38.5551 36.3206 38.5551 36.0312V34.7031C38.5551 34.4138 38.3206 34.1793 38.0312 34.1793H36.7031C36.4138 34.1793 36.1793 34.4138 36.1793 34.7031V36.0312C36.1793 36.3206 36.4138 36.5551 36.7031 36.5551ZM55.2969 36.5551C55.5862 36.5551 55.8207 36.3206 55.8207 36.0312V34.7031C55.8207 34.4138 55.5862 34.1793 55.2969 34.1793H53.9688C53.6794 34.1793 53.4449 34.4138 53.4449 34.7031V36.0312C53.4449 36.3206 53.6794 36.5551 53.9688 36.5551H55.2969ZM55.2969 53.8207C55.5862 53.8207 55.8207 53.5862 55.8207 53.2969V51.9688C55.8207 51.6794 55.5862 51.4449 55.2969 51.4449H53.9688C53.6794 51.4449 53.4449 51.6794 53.4449 51.9688V53.2969C53.4449 53.5862 53.6794 53.8207 53.9688 53.8207H55.2969ZM57.2891 49.9766H51.9766V55.2891H57.2891V49.9766ZM40.6875 43.1957C40.9769 43.1957 41.2114 42.9612 41.2114 42.6719C41.2114 42.3825 40.9769 42.148 40.6875 42.148H34.0469C33.7575 42.148 33.523 42.3825 33.523 42.6719C33.523 42.9612 33.7575 43.1957 34.0469 43.1957H40.6875ZM43.3438 43.1957H46C46.2894 43.1957 46.5239 42.9612 46.5239 42.6719C46.5239 42.3825 46.2894 42.148 46 42.148H43.3438C43.0544 42.148 42.8199 42.3825 42.8199 42.6719C42.8199 42.9612 43.0544 43.1957 43.3438 43.1957ZM43.3438 39.3516C42.977 39.3516 42.6797 39.0543 42.6797 38.6875V32.0469C42.6797 31.6801 42.977 31.3828 43.3438 31.3828C43.7105 31.3828 44.0078 31.6801 44.0078 32.0469V38.0234H48.6562C49.023 38.0234 49.3203 38.3207 49.3203 38.6875V42.0078H51.3125C51.6793 42.0078 51.9766 42.3051 51.9766 42.6719C51.9766 43.0387 51.6793 43.3359 51.3125 43.3359H48.6562C48.2895 43.3359 47.9922 43.0387 47.9922 42.6719V39.3516H43.3438ZM57.9531 42.148H53.9688C53.6794 42.148 53.4449 42.3825 53.4449 42.6719C53.4449 42.9612 53.6794 43.1957 53.9688 43.1957H57.9531C58.2425 43.1957 58.477 42.9612 58.477 42.6719C58.477 42.3825 58.2425 42.148 57.9531 42.148ZM57.9531 44.8043H51.3125C51.0231 44.8043 50.7886 45.0388 50.7886 45.3281C50.7886 45.6175 51.0231 45.852 51.3125 45.852H57.9531C58.2425 45.852 58.477 45.6175 58.477 45.3281C58.477 45.0388 58.2425 44.8043 57.9531 44.8043ZM47.9922 47.9844C47.9922 47.6176 48.2895 47.3203 48.6562 47.3203C49.023 47.3203 49.3203 47.6176 49.3203 47.9844V55.9531C49.3203 56.3199 49.023 56.6172 48.6562 56.6172H46C45.6332 56.6172 45.3359 56.3199 45.3359 55.9531C45.3359 55.5863 45.6332 55.2891 46 55.2891H47.9922V47.9844ZM29.6641 35.3672C30.0309 35.3672 30.3281 35.0699 30.3281 34.7031V28.3281H36.7031C37.0699 28.3281 37.3672 28.0309 37.3672 27.6641C37.3672 27.2973 37.0699 27 36.7031 27H29.6641C29.2973 27 29 27.2973 29 27.6641V34.7031C29 35.0699 29.2973 35.3672 29.6641 35.3672ZM34.7109 45.3281C34.7109 45.6947 34.4134 45.9922 34.0469 45.9922C33.6803 45.9922 33.3828 45.6947 33.3828 45.3281C33.3828 44.9616 33.6803 44.6641 34.0469 44.6641C34.4134 44.6641 34.7109 44.9616 34.7109 45.3281ZM49.3203 45.3281C49.3203 45.6947 49.0228 45.9922 48.6562 45.9922C48.2897 45.9922 47.9922 45.6947 47.9922 45.3281C47.9922 44.9616 48.2897 44.6641 48.6562 44.6641C49.0228 44.6641 49.3203 44.9616 49.3203 45.3281ZM62.3359 52.6328C61.9691 52.6328 61.6719 52.9301 61.6719 53.2969V59.6719H55.2969C54.9301 59.6719 54.6328 59.9691 54.6328 60.3359C54.6328 60.7027 54.9301 61 55.2969 61H62.3359C62.7027 61 63 60.7027 63 60.3359V53.2969C63 52.9301 62.7027 52.6328 62.3359 52.6328ZM33.3828 55.9531C33.3828 56.3199 33.6801 56.6172 34.0469 56.6172H40.6875C41.0543 56.6172 41.3516 56.3199 41.3516 55.9531V49.3125C41.3516 48.9457 41.0543 48.6484 40.6875 48.6484H34.0469C33.6801 48.6484 33.3828 48.9457 33.3828 49.3125V55.9531ZM40.0234 49.9766V55.2891H34.7109V49.9766H40.0234ZM34.0469 31.3828H40.6875C41.0543 31.3828 41.3516 31.6801 41.3516 32.0469V38.6875C41.3516 39.0543 41.0543 39.3516 40.6875 39.3516H34.0469C33.6801 39.3516 33.3828 39.0543 33.3828 38.6875V32.0469C33.3828 31.6801 33.6801 31.3828 34.0469 31.3828ZM58.6172 32.0469C58.6172 31.6801 58.3199 31.3828 57.9531 31.3828H51.3125C50.9457 31.3828 50.6484 31.6801 50.6484 32.0469V38.6875C50.6484 39.0543 50.9457 39.3516 51.3125 39.3516H57.9531C58.3199 39.3516 58.6172 39.0543 58.6172 38.6875V32.0469ZM57.9531 48.6484C58.3199 48.6484 58.6172 48.9457 58.6172 49.3125V55.9531C58.6172 56.3199 58.3199 56.6172 57.9531 56.6172H51.3125C50.9457 56.6172 50.6484 56.3199 50.6484 55.9531V49.3125C50.6484 48.9457 50.9457 48.6484 51.3125 48.6484H57.9531ZM38.0312 51.3047H36.7031C36.3363 51.3047 36.0391 51.602 36.0391 51.9688V53.2969C36.0391 53.6637 36.3363 53.9609 36.7031 53.9609H38.0312C38.398 53.9609 38.6953 53.6637 38.6953 53.2969V51.9688C38.6953 51.602 38.398 51.3047 38.0312 51.3047ZM38.0312 36.6953H36.7031C36.3363 36.6953 36.0391 36.398 36.0391 36.0312V34.7031C36.0391 34.3363 36.3363 34.0391 36.7031 34.0391H38.0312C38.398 34.0391 38.6953 34.3363 38.6953 34.7031V36.0312C38.6953 36.398 38.398 36.6953 38.0312 36.6953ZM55.2969 36.6953C55.6637 36.6953 55.9609 36.398 55.9609 36.0312V34.7031C55.9609 34.3363 55.6637 34.0391 55.2969 34.0391H53.9688C53.602 34.0391 53.3047 34.3363 53.3047 34.7031V36.0312C53.3047 36.398 53.602 36.6953 53.9688 36.6953H55.2969ZM51.9766 38.0234V32.7109H57.2891V38.0234H51.9766ZM55.9609 53.2969C55.9609 53.6637 55.6637 53.9609 55.2969 53.9609H53.9688C53.602 53.9609 53.3047 53.6637 53.3047 53.2969V51.9688C53.3047 51.602 53.602 51.3047 53.9688 51.3047H55.2969C55.6637 51.3047 55.9609 51.602 55.9609 51.9688V53.2969ZM36.0391 45.3281C36.0391 45.6949 36.3363 45.9922 36.7031 45.9922H45.3359V49.3125C45.3359 49.6793 45.6332 49.9766 46 49.9766C46.3668 49.9766 46.6641 49.6793 46.6641 49.3125V45.3281C46.6641 44.9613 46.3668 44.6641 46 44.6641H36.7031C36.3363 44.6641 36.0391 44.9613 36.0391 45.3281ZM41.3516 42.6719C41.3516 43.0387 41.0543 43.3359 40.6875 43.3359H34.0469C33.6801 43.3359 33.3828 43.0387 33.3828 42.6719C33.3828 42.3051 33.6801 42.0078 34.0469 42.0078H40.6875C41.0543 42.0078 41.3516 42.3051 41.3516 42.6719ZM43.3438 43.3359H46C46.3668 43.3359 46.6641 43.0387 46.6641 42.6719C46.6641 42.3051 46.3668 42.0078 46 42.0078H43.3438C42.977 42.0078 42.6797 42.3051 42.6797 42.6719C42.6797 43.0387 42.977 43.3359 43.3438 43.3359ZM57.9531 42.0078H53.9688C53.602 42.0078 53.3047 42.3051 53.3047 42.6719C53.3047 43.0387 53.602 43.3359 53.9688 43.3359H57.9531C58.3199 43.3359 58.6172 43.0387 58.6172 42.6719C58.6172 42.3051 58.3199 42.0078 57.9531 42.0078ZM51.3125 44.6641H57.9531C58.3199 44.6641 58.6172 44.9613 58.6172 45.3281C58.6172 45.6949 58.3199 45.9922 57.9531 45.9922H51.3125C50.9457 45.9922 50.6484 45.6949 50.6484 45.3281C50.6484 44.9613 50.9457 44.6641 51.3125 44.6641ZM46 51.3047H43.3438C42.977 51.3047 42.6797 51.602 42.6797 51.9688V55.9531C42.6797 56.3199 42.977 56.6172 43.3438 56.6172C43.7105 56.6172 44.0078 56.3199 44.0078 55.9531V52.6328H46C46.3668 52.6328 46.6641 52.3355 46.6641 51.9688C46.6641 51.602 46.3668 51.3047 46 51.3047ZM48.6562 36.6953C49.023 36.6953 49.3203 36.398 49.3203 36.0312V32.0469C49.3203 31.6801 49.023 31.3828 48.6562 31.3828C48.2895 31.3828 47.9922 31.6801 47.9922 32.0469V35.3672H46C45.6332 35.3672 45.3359 35.6645 45.3359 36.0312C45.3359 36.398 45.6332 36.6953 46 36.6953H48.6562Z" fill="#2A8CFF" stroke="#2A8CFF" stroke-width="0.5"/>
<defs>
<linearGradient id="paint0_linear_223_159" x1="-4.5" y1="37" x2="93" y2="82" gradientUnits="userSpaceOnUse">
<stop offset="0.0023" stop-color="#CBEDE4"/>
<stop offset="1" stop-color="#B4CDF5"/>
</linearGradient>
</defs>
</svg>
