<svg width="116" height="116" viewBox="0 0 116 116" fill="none" xmlns="http://www.w3.org/2000/svg">
<path d="M105.41 36.9419C102.043 33.0196 99.8261 28.2519 98.79 23.1877C97.9114 18.8935 96.0498 15.1672 93.1348 12.2522C79.8191 -1.06352 49.575 7.5914 25.5827 31.5837C1.59042 55.576 -7.0645 85.82 6.25126 99.1358C12.5807 105.465 22.7353 106.829 34.2247 103.942C40.8977 102.265 47.939 102.97 54.2279 105.761C59.4846 108.093 65.2839 109.425 71.3841 109.514C95.3264 109.864 115.28 90.811 115.98 66.8762C116.316 55.4335 112.275 44.94 105.41 36.9419Z" fill="url(#paint0_linear_361_37)"/>
<path opacity="0.1" d="M95.0321 94.1431H19.8351C17.4517 94.1431 15.5195 92.2109 15.5195 89.8275V10.5521C15.5195 8.1687 17.4517 6.23657 19.8351 6.23657H95.0323C97.4158 6.23657 99.3479 8.1687 99.3479 10.5521V89.8275C99.3477 92.2109 97.4155 94.1431 95.0321 94.1431Z" fill="#242F4D"/>
<path d="M95.0321 97.9751H19.8351C17.4517 97.9751 15.5195 96.043 15.5195 93.6595V14.3842C15.5195 12.0007 17.4517 10.0686 19.8351 10.0686H95.0323C97.4158 10.0686 99.3479 12.0007 99.3479 14.3842V93.6595C99.3477 96.043 97.4155 97.9751 95.0321 97.9751Z" fill="white"/>
<path d="M49.8658 54.9818H26.7129C26.0874 54.9818 25.5801 54.4745 25.5801 53.8489V30.6963C25.5801 30.0708 26.0874 29.5635 26.7129 29.5635H49.8655C50.4911 29.5635 50.9983 30.0708 50.9983 30.6963V53.8489C50.9986 54.4745 50.4913 54.9818 49.8658 54.9818Z" fill="#CCEEE3"/>
<path d="M77.5027 78.4238C85.3893 78.4238 91.7827 72.0304 91.7827 64.1438C91.7827 56.2572 85.3893 49.8638 77.5027 49.8638C69.616 49.8638 63.2227 56.2572 63.2227 64.1438C63.2227 72.0304 69.616 78.4238 77.5027 78.4238Z" fill="#FFE783"/>
<path d="M99.3477 22.7994V14.3842C99.3477 12.0007 97.4155 10.0686 95.0321 10.0686H19.8351C17.4517 10.0686 15.5195 12.0007 15.5195 14.3842V22.7994H99.3477Z" fill="#1E80F3"/>
<path d="M95.0321 8.93604H19.8351C16.8309 8.93604 14.3867 11.3802 14.3867 14.3844V85.9564C14.3867 86.5822 14.8938 87.0892 15.5195 87.0892C16.1453 87.0892 16.6523 86.5822 16.6523 85.9564V14.3842C16.6523 12.6292 18.0801 11.2014 19.8351 11.2014H95.0321C96.787 11.2014 98.2148 12.6292 98.2148 14.3842V21.6666H24.8086C24.1828 21.6666 23.6758 22.1736 23.6758 22.7994C23.6758 23.4252 24.1828 23.9322 24.8086 23.9322H98.2148V93.6595C98.2148 95.4145 96.787 96.8423 95.0321 96.8423H19.8351C18.0801 96.8423 16.6523 95.4145 16.6523 93.6595C16.6523 93.0338 16.1453 92.5267 15.5195 92.5267C14.8938 92.5267 14.3867 93.0338 14.3867 93.6595C14.3867 96.6637 16.8309 99.1079 19.8351 99.1079H95.0321C98.0363 99.1079 100.48 96.6637 100.48 93.6595V14.3842C100.48 11.3802 98.0363 8.93604 95.0321 8.93604Z" fill="#242F4D"/>
<path d="M89.9459 17.5669H86.2031C85.5774 17.5669 85.0703 17.0596 85.0703 16.4341C85.0703 15.8085 85.5774 15.3013 86.2031 15.3013H89.9459C90.5717 15.3013 91.0788 15.8085 91.0788 16.4341C91.0788 17.0596 90.5717 17.5669 89.9459 17.5669Z" fill="#02BF7F"/>
<path d="M81.2233 17.5669H77.4805C76.8547 17.5669 76.3477 17.0596 76.3477 16.4341C76.3477 15.8085 76.8547 15.3013 77.4805 15.3013H81.2233C81.849 15.3013 82.3561 15.8085 82.3561 16.4341C82.3561 17.0596 81.849 17.5669 81.2233 17.5669Z" fill="#F5CA2A"/>
<path d="M68.649 17.5669H37.7187C37.093 17.5669 36.5859 17.0596 36.5859 16.4341C36.5859 15.8085 37.093 15.3013 37.7187 15.3013H68.649C69.2748 15.3013 69.7819 15.8085 69.7819 16.4341C69.7819 17.0596 69.2748 17.5669 68.649 17.5669Z" fill="#EBEBFF"/>
<path d="M82.3555 51.1532C81.7052 67.3796 71.4646 81.0005 57.4336 85.9214C43.4026 81.0005 33.162 67.3796 32.5117 51.1532C32.5117 51.1532 32.659 40.8287 32.9807 37.3079C33.0328 36.7279 33.5199 36.2862 34.1022 36.2862C37.9152 36.2794 51.8488 35.9962 56.7494 32.2443C56.9533 32.0902 57.1934 32.0132 57.4336 32.0132C57.6737 32.0132 57.9139 32.0902 58.1178 32.2443C63.0184 35.9962 76.952 36.2794 80.765 36.2862C81.3473 36.2862 81.8344 36.7279 81.8865 37.3079C82.2082 40.829 82.3555 51.1532 82.3555 51.1532Z" fill="#2FDFA4"/>
<path d="M82.3555 51.1532C81.7052 67.3796 71.4646 81.0005 57.4336 85.9214V32.0132C57.6737 32.0132 57.9139 32.0902 58.1178 32.2443C63.0184 35.9962 76.952 36.2794 80.765 36.2862C81.3473 36.2862 81.8344 36.7279 81.8865 37.3079C82.2082 40.829 82.3555 51.1532 82.3555 51.1532Z" fill="#18BF87"/>
<path d="M57.4335 78.6111C52.7258 76.4998 48.6177 73.1367 45.4529 68.7813C41.725 63.651 39.603 57.5259 39.3105 51.0575C39.35 48.3762 39.4184 45.417 39.5 42.9384C41.5904 42.8326 44.0027 42.6518 46.4298 42.3451C51.0009 41.7667 54.621 40.8831 57.4335 39.6401C60.2463 40.8833 63.8663 41.7671 68.4379 42.3451C70.8646 42.6521 73.2768 42.8326 75.3671 42.9384C75.4486 45.4168 75.517 48.3762 75.5565 51.0575C75.264 57.5261 73.142 63.6512 69.4141 68.7813C66.2493 73.1367 62.1412 76.4996 57.4335 78.6111Z" fill="#02BF7F"/>
<path d="M57.4336 39.6401C60.2464 40.8833 63.8664 41.7671 68.438 42.3451C70.8647 42.6521 73.2769 42.8326 75.3672 42.9384C75.4487 45.4168 75.5171 48.3762 75.5566 51.0575C75.2641 57.5261 73.1421 63.6512 69.4142 68.7813C66.2494 73.1367 62.1413 76.4996 57.4336 78.6111V39.6401Z" fill="#13A573"/>
<path d="M57.4344 63.8258C62.1767 63.8258 66.0211 59.9814 66.0211 55.2391C66.0211 50.4967 62.1767 46.6523 57.4344 46.6523C52.6921 46.6523 48.8477 50.4967 48.8477 55.2391C48.8477 59.9814 52.6921 63.8258 57.4344 63.8258Z" fill="white"/>
<path d="M57.4345 57.5333C55.5289 57.5333 53.9785 55.9829 53.9785 54.0773C53.9785 52.1717 55.5289 50.6213 57.4345 50.6213C59.3401 50.6213 60.8905 52.1717 60.8905 54.0773C60.8905 55.9829 59.3401 57.5333 57.4345 57.5333ZM57.4345 52.887C56.7781 52.887 56.2441 53.4207 56.2441 54.0773C56.2441 54.7339 56.7779 55.2677 57.4345 55.2677C58.0911 55.2677 58.6249 54.7339 58.6249 54.0773C58.6249 53.4207 58.0908 52.887 57.4345 52.887Z" fill="#02BF7F"/>
<path d="M59.7577 59.8566C59.1319 59.8566 58.6249 59.3496 58.6249 58.7238C58.6249 58.0675 58.0911 57.5335 57.4345 57.5335C56.7779 57.5335 56.2441 58.0672 56.2441 58.7238C56.2441 59.3496 55.7371 59.8566 55.1113 59.8566C54.4856 59.8566 53.9785 59.3496 53.9785 58.7238C53.9785 56.8182 55.5289 55.2678 57.4345 55.2678C59.3401 55.2678 60.8905 56.8182 60.8905 58.7238C60.8905 59.3496 60.3834 59.8566 59.7577 59.8566Z" fill="#02BF7F"/>
<path d="M28.1523 89.5222H25.3203C24.6945 89.5222 24.1875 89.0149 24.1875 88.3894C24.1875 87.7639 24.6945 87.2566 25.3203 87.2566H28.1523C28.7781 87.2566 29.2852 87.7639 29.2852 88.3894C29.2852 89.0149 28.7781 89.5222 28.1523 89.5222Z" fill="#D9D9FF"/>
<path d="M49.2227 89.5222H32.7969C32.1711 89.5222 31.6641 89.0149 31.6641 88.3894C31.6641 87.7639 32.1711 87.2566 32.7969 87.2566H49.2227C49.8484 87.2566 50.3555 87.7639 50.3555 88.3894C50.3555 89.0149 49.8484 89.5222 49.2227 89.5222Z" fill="#D9D9FF"/>
<path d="M34.9492 85.6194H25.3203C24.6945 85.6194 24.1875 85.1121 24.1875 84.4866C24.1875 83.861 24.6945 83.3538 25.3203 83.3538H34.9492C35.575 83.3538 36.082 83.861 36.082 84.4866C36.082 85.1121 35.575 85.6194 34.9492 85.6194Z" fill="#D9D9FF"/>
<path d="M28.1523 80.0066H25.3203C24.6945 80.0066 24.1875 79.4993 24.1875 78.8738C24.1875 78.2482 24.6945 77.741 25.3203 77.741H28.1523C28.7781 77.741 29.2852 78.2482 29.2852 78.8738C29.2852 79.4993 28.7781 80.0066 28.1523 80.0066Z" fill="#F5CA2A"/>
<path d="M88.5979 86.8913C86.5226 86.8913 84.834 85.2027 84.834 83.1274C84.834 81.0521 86.5226 79.3635 88.5979 79.3635C90.6732 79.3635 92.3618 81.0521 92.3618 83.1274C92.3618 85.2027 90.6732 86.8913 88.5979 86.8913ZM88.5979 81.6289C87.7718 81.6289 87.0996 82.3011 87.0996 83.1272C87.0996 83.9532 87.7718 84.6254 88.5979 84.6254C89.4239 84.6254 90.0961 83.9532 90.0961 83.1272C90.0961 82.3011 89.4239 81.6289 88.5979 81.6289Z" fill="#F5CA2A"/>
<path d="M91.2289 89.5222C90.6032 89.5222 90.0961 89.0151 90.0961 88.3894C90.0961 87.5633 89.4239 86.8911 88.5979 86.8911C87.7718 86.8911 87.0996 87.5633 87.0996 88.3894C87.0996 89.0151 86.5926 89.5222 85.9668 89.5222C85.341 89.5222 84.834 89.0151 84.834 88.3894C84.834 86.3141 86.5226 84.6255 88.5979 84.6255C90.6732 84.6255 92.3618 86.3141 92.3618 88.3894C92.3618 89.0151 91.8547 89.5222 91.2289 89.5222Z" fill="#F5CA2A"/>
<path d="M81.2363 89.5222H78.4043C77.7785 89.5222 77.2715 89.0149 77.2715 88.3894C77.2715 87.7639 77.7785 87.2566 78.4043 87.2566H81.2363C81.8621 87.2566 82.3691 87.7639 82.3691 88.3894C82.3691 89.0149 81.8619 89.5222 81.2363 89.5222Z" fill="#D9D9FF"/>
<path d="M81.2363 85.6194H78.4043C77.7785 85.6194 77.2715 85.1121 77.2715 84.4866C77.2715 83.861 77.7785 83.3538 78.4043 83.3538H81.2363C81.8621 83.3538 82.3691 83.861 82.3691 84.4866C82.3691 85.1121 81.8619 85.6194 81.2363 85.6194Z" fill="#D9D9FF"/>
<path d="M7.36629 57.1405C7.07629 57.1405 6.78651 57.03 6.56516 56.8086L4.07387 54.3176C3.86136 54.1051 3.74219 53.8171 3.74219 53.5167C3.74219 53.2162 3.86158 52.9281 4.07387 52.7158L6.56516 50.2245C6.77767 50.012 7.06564 49.8926 7.36629 49.8926C7.66671 49.8926 7.95489 50.012 8.16741 50.2245L10.6585 52.7158C11.1009 53.158 11.1009 53.8753 10.6585 54.3176L8.16741 56.8086C7.94606 57.03 7.65629 57.1405 7.36629 57.1405ZM6.47702 53.5167L7.36606 54.4057L8.25509 53.5167L7.36606 52.6274L6.47702 53.5167Z" fill="#02BF7F"/>
<path d="M64.7432 113.269C64.4532 113.269 64.1635 113.159 63.9421 112.938L61.4508 110.446C61.2383 110.234 61.1191 109.946 61.1191 109.646C61.1191 109.345 61.2385 109.057 61.4508 108.845L63.9421 106.353C64.1546 106.141 64.4426 106.021 64.7432 106.021C65.0437 106.021 65.3318 106.141 65.5444 106.353L68.0354 108.845C68.4779 109.287 68.4779 110.004 68.0354 110.446L65.5444 112.938C65.323 113.159 65.0332 113.269 64.7432 113.269ZM63.854 109.646L64.743 110.535L65.632 109.646L64.743 108.756L63.854 109.646Z" fill="#02BF7F"/>
<path d="M4.8769 43.43C4.25136 43.43 3.74409 42.923 3.74409 42.2972C3.74409 41.5455 3.1326 40.9338 2.38086 40.9338C1.75532 40.9338 1.24805 40.4267 1.24805 39.801C1.24805 39.1752 1.75532 38.6682 2.38086 38.6682C3.1326 38.6682 3.74409 38.0567 3.74409 37.3049C3.74409 36.6792 4.25136 36.1721 4.8769 36.1721C5.50244 36.1721 6.00971 36.6792 6.00971 37.3049C6.00971 38.0564 6.62121 38.6682 7.37294 38.6682C7.99848 38.6682 8.50576 39.1752 8.50576 39.801C8.50576 40.4267 7.99848 40.9338 7.37294 40.9338C6.62121 40.9338 6.00971 41.5453 6.00971 42.2972C6.00971 42.923 5.50244 43.43 4.8769 43.43Z" fill="#2A8CFF"/>
<defs>
<linearGradient id="paint0_linear_361_37" x1="-5.6129" y1="46.1507" x2="116" y2="102.28" gradientUnits="userSpaceOnUse">
<stop offset="0.0023" stop-color="#CBEDE4"/>
<stop offset="1" stop-color="#B4CDF5"/>
</linearGradient>
</defs>
</svg>
