<svg width="93" height="93" viewBox="0 0 93 93" fill="none" xmlns="http://www.w3.org/2000/svg">
<g clip-path="url(#clip0_224_43)">
<path d="M93 46.6295C93 41.6106 90.7288 36.9053 86.7612 32.8544C84.0004 30.0357 81.7018 26.8067 79.9473 23.2727C74.3366 11.9715 64.7705 4.52808 53.9117 4.52808C46.195 4.52808 39.1317 8.28767 33.6764 14.5189C30.0653 18.6434 25.506 21.8072 20.4189 23.8499C8.09663 28.7982 0 37.1538 0 46.6295C0 56.1051 8.09663 64.4608 20.4189 69.409C25.506 71.4519 30.0653 74.6156 33.6765 78.7401C39.1319 84.9713 46.1952 88.7309 53.9118 88.7309C64.7707 88.7309 74.3368 81.2874 79.9475 69.9863C81.702 66.4523 84.0006 63.2232 86.7614 60.4045C90.7288 56.3536 93 51.6484 93 46.6295Z" fill="url(#paint0_linear_224_43)"/>
<path opacity="0.1" d="M81.8025 46.4392C83.3048 46.4392 84.5271 45.2169 84.5271 43.7145V10.7246C84.5271 9.22226 83.3048 8 81.8025 8H18.5588C17.0565 8 15.8342 9.22226 15.8342 10.7246V16.6508C12.0507 16.7631 9.00618 19.8711 9.00091 23.6801C9.00091 23.6834 9 23.6863 9 23.6896V63.6505C9 67.5345 12.1598 70.6945 16.044 70.6945H50.3885C50.8901 70.6945 51.2967 70.2878 51.2967 69.7863C51.2967 69.2848 50.8901 68.8781 50.3885 68.8781H16.0442C13.1617 68.8781 10.8166 66.533 10.8166 63.6505V28.4068C12.107 29.8359 13.9735 30.7354 16.046 30.7354H71.5154C72.0162 30.7354 72.4236 31.1428 72.4236 31.6436V39.3552C72.4236 39.8567 72.8302 40.2634 73.3318 40.2634C73.8335 40.2634 74.2401 39.8567 74.2401 39.3552V31.6436C74.2401 30.1413 73.0178 28.919 71.5154 28.919H70.6557V24.4893C70.6557 23.9878 70.2492 23.5811 69.7475 23.5811H68.7587C68.257 23.5811 67.8505 23.9878 67.8505 24.4893C67.8505 24.9908 68.257 25.3975 68.7587 25.3975H68.8393V28.919H32.5112V24.4893C32.5112 23.9878 32.1047 23.5811 31.603 23.5811H30.6141C30.1125 23.5811 29.7059 23.9878 29.7059 24.4893C29.7059 24.9908 30.1125 25.3975 30.6141 25.3975H30.6948V28.919H17.6508L18.5588 16.5C22.408 24.2754 28.4992 16.6508 29 16.6508L66.5 16.5C45.6973 30.3792 66 23.1948 66 23.6956L82.7109 43.7145C82.7109 44.2153 82.3034 44.6227 81.8027 44.6227H73.3318C72.8302 44.6227 72.4236 45.0294 72.4236 45.531V54.6128C71.5879 54.459 70.728 54.3743 69.8483 54.3743C62.0229 54.3743 55.6564 60.7408 55.6564 68.5664C55.6564 76.3921 62.0229 82.7586 69.8483 82.7586C77.674 82.7586 84.0405 76.3921 84.0405 68.5664C84.0405 62.2735 79.9221 56.9271 74.2401 55.0731V46.4392H81.8025ZM82.2241 68.5664C82.2241 75.3903 76.6724 80.9422 69.8483 80.9422C63.0243 80.9422 57.4728 75.3905 57.4728 68.5664C57.4728 61.7424 64.6914 66 71.5154 66C78.3395 66 82.2241 61.7426 82.2241 68.5664Z" fill="#243C70"/>
<path d="M71.2518 32.2434H15.7819C12.3928 32.2434 9.64551 29.4961 9.64551 26.1071C9.64551 22.718 12.3928 19.9707 15.7819 19.9707H73.0682V30.4272C73.0682 31.4302 72.255 32.2434 71.2518 32.2434Z" fill="#1E80F3"/>
<path d="M81.5395 47.9477H18.2959C17.2927 47.9477 16.4795 47.1345 16.4795 46.1313V13.1414C16.4795 12.1382 17.2927 11.325 18.2959 11.325H81.5395C82.5427 11.325 83.3559 12.1382 83.3559 13.1414V46.1313C83.3559 47.1345 82.5427 47.9477 81.5395 47.9477Z" fill="#02BF7F"/>
<path d="M75.6621 17.9189L76.1146 16.0836C76.2557 15.5111 75.8225 14.958 75.2327 14.958H24.6009C24.0113 14.958 23.5779 15.5111 23.7191 16.0836L24.1715 17.9189C24.335 18.5821 23.7354 19.1817 23.0723 19.0182L21.237 18.5658C20.6644 18.4246 20.1113 18.8578 20.1113 19.4476V39.8259C20.1113 40.4155 20.6644 40.8489 21.237 40.7077L23.0723 40.2553C23.7354 40.0918 24.335 40.6914 24.1715 41.3546L23.7191 43.1899C23.5779 43.7624 24.0112 44.3155 24.6009 44.3155H75.2329C75.8225 44.3155 76.2559 43.7624 76.1148 43.1899L75.6623 41.3546C75.4988 40.6914 76.0984 40.0918 76.7616 40.2553L78.5969 40.7077C79.1694 40.8489 79.7225 40.4157 79.7225 39.8259V19.4476C79.7225 18.858 79.1694 18.4246 78.5969 18.5658L76.7616 19.0182C76.0982 19.1815 75.4986 18.5821 75.6621 17.9189Z" fill="white"/>
<path d="M49.9167 40.0454C55.6654 40.0454 60.3257 35.3851 60.3257 29.6365C60.3257 23.8878 55.6654 19.2275 49.9167 19.2275C44.168 19.2275 39.5078 23.8878 39.5078 29.6365C39.5078 35.3851 44.168 40.0454 49.9167 40.0454Z" fill="#CCEEE3"/>
<path d="M57.9038 41.0268C59.7836 41.0268 61.3075 39.5028 61.3075 37.623C61.3075 35.7432 59.7836 34.2192 57.9038 34.2192C56.0239 34.2192 54.5 35.7432 54.5 37.623C54.5 39.5028 56.0239 41.0268 57.9038 41.0268Z" fill="#FFAB66"/>
<path d="M51.1007 34.2124H47.2897C46.788 34.2124 46.3815 33.8057 46.3815 33.3042C46.3815 32.8027 46.788 32.396 47.2897 32.396H51.1007C51.6111 32.396 52.0263 31.9808 52.0263 31.4703C52.0263 30.9599 51.6111 30.5447 51.1007 30.5447H48.7323C47.2203 30.5447 45.9902 29.3146 45.9902 27.8027C45.9902 26.2907 47.2201 25.0608 48.7323 25.0608H52.5433C53.045 25.0608 53.4515 25.4675 53.4515 25.969C53.4515 26.4705 53.045 26.8772 52.5433 26.8772H48.7323C48.2219 26.8772 47.8066 27.2924 47.8066 27.8027C47.8066 28.3129 48.2219 28.7283 48.7323 28.7283H51.1007C52.6127 28.7283 53.8427 29.9584 53.8427 31.4703C53.8427 32.9823 52.6127 34.2124 51.1007 34.2124Z" fill="#02BF7F"/>
<path d="M49.918 35.5781C49.4163 35.5781 49.0098 35.1714 49.0098 34.6699V24.6038C49.0098 24.1022 49.4163 23.6956 49.918 23.6956C50.4197 23.6956 50.8262 24.1022 50.8262 24.6038V34.6699C50.8262 35.1714 50.4195 35.5781 49.918 35.5781Z" fill="#02BF7F"/>
<path d="M65.9177 36.7458C66.4785 36.7458 66.9331 36.2912 66.9331 35.7305C66.9331 35.1697 66.4785 34.7151 65.9177 34.7151C65.3569 34.7151 64.9023 35.1697 64.9023 35.7305C64.9023 36.2912 65.3569 36.7458 65.9177 36.7458Z" fill="#FF4D4D"/>
<path d="M68.99 36.7458C69.5508 36.7458 70.0054 36.2912 70.0054 35.7305C70.0054 35.1697 69.5508 34.7151 68.99 34.7151C68.4292 34.7151 67.9746 35.1697 67.9746 35.7305C67.9746 36.2912 68.4292 36.7458 68.99 36.7458Z" fill="#FF4D4D"/>
<path d="M72.0613 34.7151C72.622 34.7151 73.0766 35.1697 73.0766 35.7305C73.0766 36.2912 72.622 36.7458 72.0613 36.7458C71.5005 36.7458 71.0459 36.2912 71.0459 35.7305C71.0459 35.1697 71.5004 34.7151 72.0613 34.7151Z" fill="#FF4D4D"/>
<path d="M65.9177 24.5581C66.4785 24.5581 66.9331 24.1035 66.9331 23.5427C66.9331 22.9819 66.4785 22.5273 65.9177 22.5273C65.3569 22.5273 64.9023 22.9819 64.9023 23.5427C64.9023 24.1035 65.3569 24.5581 65.9177 24.5581Z" fill="#02BF7F"/>
<path d="M68.99 24.5581C69.5508 24.5581 70.0054 24.1035 70.0054 23.5427C70.0054 22.9819 69.5508 22.5273 68.99 22.5273C68.4292 22.5273 67.9746 22.9819 67.9746 23.5427C67.9746 24.1035 68.4292 24.5581 68.99 24.5581Z" fill="#02BF7F"/>
<path d="M72.0613 22.5273C72.622 22.5273 73.0766 22.982 73.0766 23.5427C73.0766 24.1034 72.622 24.5581 72.0613 24.5581C71.5005 24.5581 71.0459 24.1034 71.0459 23.5427C71.0459 22.982 71.5004 22.5273 72.0613 22.5273Z" fill="#02BF7F"/>
<path d="M27.7732 36.7458C28.334 36.7458 28.7886 36.2912 28.7886 35.7305C28.7886 35.1697 28.334 34.7151 27.7732 34.7151C27.2124 34.7151 26.7578 35.1697 26.7578 35.7305C26.7578 36.2912 27.2124 36.7458 27.7732 36.7458Z" fill="#FF4D4D"/>
<path d="M30.8454 36.7458C31.4062 36.7458 31.8608 36.2912 31.8608 35.7305C31.8608 35.1697 31.4062 34.7151 30.8454 34.7151C30.2847 34.7151 29.8301 35.1697 29.8301 35.7305C29.8301 36.2912 30.2847 36.7458 30.8454 36.7458Z" fill="#FF4D4D"/>
<path d="M33.9167 34.7151C34.4775 34.7151 34.9321 35.1697 34.9321 35.7305C34.9321 36.2912 34.4775 36.7458 33.9167 36.7458C33.356 36.7458 32.9014 36.2912 32.9014 35.7305C32.9014 35.1697 33.356 34.7151 33.9167 34.7151Z" fill="#FF4D4D"/>
<path d="M27.7732 24.5581C28.334 24.5581 28.7886 24.1035 28.7886 23.5427C28.7886 22.9819 28.334 22.5273 27.7732 22.5273C27.2124 22.5273 26.7578 22.9819 26.7578 23.5427C26.7578 24.1035 27.2124 24.5581 27.7732 24.5581Z" fill="#02BF7F"/>
<path d="M30.8454 24.5581C31.4062 24.5581 31.8608 24.1035 31.8608 23.5427C31.8608 22.9819 31.4062 22.5273 30.8454 22.5273C30.2847 22.5273 29.8301 22.9819 29.8301 23.5427C29.8301 24.1035 30.2847 24.5581 30.8454 24.5581Z" fill="#02BF7F"/>
<path d="M33.9167 22.5273C34.4775 22.5273 34.9321 22.982 34.9321 23.5427C34.9321 24.1034 34.4775 24.5581 33.9167 24.5581C33.356 24.5581 32.9014 24.1034 32.9014 23.5427C32.9015 22.982 33.356 22.5273 33.9167 22.5273Z" fill="#02BF7F"/>
<path d="M73.069 34.0607V70.3871C73.069 71.3903 72.2558 72.2035 71.2526 72.2035H15.7813C12.3926 72.2035 9.64551 69.4563 9.64551 66.0676V26.1067C9.64551 29.4961 12.3937 32.2443 15.7831 32.2443H71.2526C72.2558 32.2443 73.069 33.0575 73.069 34.0607Z" fill="#78B5EE"/>
<path d="M67.3955 39.5276H65.2158C64.7141 39.5276 64.3076 39.1209 64.3076 38.6194C64.3076 38.1179 64.7141 37.7112 65.2158 37.7112H67.3955C67.8972 37.7112 68.3037 38.1179 68.3037 38.6194C68.3037 39.1209 67.8972 39.5276 67.3955 39.5276Z" fill="#1E80F3"/>
<path d="M60.1543 39.5276H57.9746C57.4729 39.5276 57.0664 39.1209 57.0664 38.6194C57.0664 38.1179 57.4729 37.7112 57.9746 37.7112H60.1543C60.656 37.7112 61.0625 38.1179 61.0625 38.6194C61.0625 39.1209 60.656 39.5276 60.1543 39.5276Z" fill="#1E80F3"/>
<path d="M52.9131 39.5276H50.7334C50.2317 39.5276 49.8252 39.1209 49.8252 38.6194C49.8252 38.1179 50.2317 37.7112 50.7334 37.7112H52.9131C53.4148 37.7112 53.8213 38.1179 53.8213 38.6194C53.8213 39.1209 53.4146 39.5276 52.9131 39.5276Z" fill="#1E80F3"/>
<path d="M45.6719 39.5276H43.4922C42.9905 39.5276 42.584 39.1209 42.584 38.6194C42.584 38.1179 42.9905 37.7112 43.4922 37.7112H45.6719C46.1736 37.7112 46.5801 38.1179 46.5801 38.6194C46.5801 39.1209 46.1734 39.5276 45.6719 39.5276Z" fill="#1E80F3"/>
<path d="M38.4287 39.5276H36.249C35.7473 39.5276 35.3408 39.1209 35.3408 38.6194C35.3408 38.1179 35.7473 37.7112 36.249 37.7112H38.4287C38.9304 37.7112 39.3369 38.1179 39.3369 38.6194C39.3369 39.1209 38.9304 39.5276 38.4287 39.5276Z" fill="#1E80F3"/>
<path d="M31.1875 39.5276H29.0078C28.5061 39.5276 28.0996 39.1209 28.0996 38.6194C28.0996 38.1179 28.5061 37.7112 29.0078 37.7112H31.1875C31.6892 37.7112 32.0957 38.1179 32.0957 38.6194C32.0957 39.1209 31.6892 39.5276 31.1875 39.5276Z" fill="#1E80F3"/>
<path d="M23.9463 39.5276H21.7666C21.2649 39.5276 20.8584 39.1209 20.8584 38.6194C20.8584 38.1179 21.2649 37.7112 21.7666 37.7112H23.9463C24.448 37.7112 24.8545 38.1179 24.8545 38.6194C24.8545 39.1209 24.448 39.5276 23.9463 39.5276Z" fill="#1E80F3"/>
<path d="M67.5469 62.3423C67.0452 62.3423 66.6387 61.9356 66.6387 61.4341V59.2544C66.6387 58.7529 67.0452 58.3462 67.5469 58.3462C68.0486 58.3462 68.4551 58.7529 68.4551 59.2544V61.4341C68.4551 61.9356 68.0486 62.3423 67.5469 62.3423Z" fill="#1E80F3"/>
<path d="M67.5469 55.1006C67.0452 55.1006 66.6387 54.6939 66.6387 54.1924V52.0127C66.6387 51.5112 67.0452 51.1045 67.5469 51.1045C68.0486 51.1045 68.4551 51.5112 68.4551 52.0127V54.1924C68.4551 54.6939 68.0486 55.1006 67.5469 55.1006Z" fill="#1E80F3"/>
<path d="M67.5469 47.8591C67.0452 47.8591 66.6387 47.4524 66.6387 46.9509V44.7712C66.6387 44.2697 67.0452 43.863 67.5469 43.863C68.0486 43.863 68.4551 44.2697 68.4551 44.7712V46.9509C68.4551 47.4524 68.0486 47.8591 67.5469 47.8591Z" fill="#1E80F3"/>
<path d="M67.3955 67.2581H65.2158C64.7141 67.2581 64.3076 66.8514 64.3076 66.3499C64.3076 65.8483 64.7141 65.4417 65.2158 65.4417H67.3955C67.8972 65.4417 68.3037 65.8483 68.3037 66.3499C68.3037 66.8514 67.8972 67.2581 67.3955 67.2581Z" fill="#1E80F3"/>
<path d="M60.1543 67.2581H57.9746C57.4729 67.2581 57.0664 66.8514 57.0664 66.3499C57.0664 65.8483 57.4729 65.4417 57.9746 65.4417H60.1543C60.656 65.4417 61.0625 65.8483 61.0625 66.3499C61.0625 66.8514 60.656 67.2581 60.1543 67.2581Z" fill="#1E80F3"/>
<path d="M52.9131 67.2581H50.7334C50.2317 67.2581 49.8252 66.8514 49.8252 66.3499C49.8252 65.8483 50.2317 65.4417 50.7334 65.4417H52.9131C53.4148 65.4417 53.8213 65.8483 53.8213 66.3499C53.8213 66.8514 53.4146 67.2581 52.9131 67.2581Z" fill="#1E80F3"/>
<path d="M45.6719 67.2581H43.4922C42.9905 67.2581 42.584 66.8514 42.584 66.3499C42.584 65.8483 42.9905 65.4417 43.4922 65.4417H45.6719C46.1736 65.4417 46.5801 65.8483 46.5801 66.3499C46.5801 66.8514 46.1734 67.2581 45.6719 67.2581Z" fill="#1E80F3"/>
<path d="M38.4287 67.2581H36.249C35.7473 67.2581 35.3408 66.8514 35.3408 66.3499C35.3408 65.8483 35.7473 65.4417 36.249 65.4417H38.4287C38.9304 65.4417 39.3369 65.8483 39.3369 66.3499C39.3369 66.8514 38.9304 67.2581 38.4287 67.2581Z" fill="#1E80F3"/>
<path d="M31.1875 67.2581H29.0078C28.5061 67.2581 28.0996 66.8514 28.0996 66.3499C28.0996 65.8483 28.5061 65.4417 29.0078 65.4417H31.1875C31.6892 65.4417 32.0957 65.8483 32.0957 66.3499C32.0957 66.8514 31.6892 67.2581 31.1875 67.2581Z" fill="#1E80F3"/>
<path d="M23.9463 67.2581H21.7666C21.2649 67.2581 20.8584 66.8514 20.8584 66.3499C20.8584 65.8483 21.2649 65.4417 21.7666 65.4417H23.9463C24.448 65.4417 24.8545 65.8483 24.8545 66.3499C24.8545 66.8514 24.448 67.2581 23.9463 67.2581Z" fill="#1E80F3"/>
<path d="M69.5847 84.2673C76.9212 84.2673 82.8686 78.3199 82.8686 70.9834C82.8686 63.6469 76.9212 57.6995 69.5847 57.6995C62.2482 57.6995 56.3008 63.6469 56.3008 70.9834C56.3008 78.3199 62.2482 84.2673 69.5847 84.2673Z" fill="#F5CA2A"/>
<path d="M81.5388 48.8559C83.0411 48.8559 84.2634 47.6336 84.2634 46.1313V13.1414C84.2634 11.639 83.0411 10.4167 81.5388 10.4167H18.2952C16.7928 10.4167 15.5706 11.639 15.5706 13.1414V19.0676C11.787 19.1798 8.7425 22.2879 8.73724 26.0969C8.73724 26.1001 8.73633 26.1031 8.73633 26.1063V66.0673C8.73633 69.9513 11.8961 73.1113 15.7804 73.1113H50.1248C50.6265 73.1113 51.033 72.7046 51.033 72.2031C51.033 71.7016 50.6265 71.2949 50.1248 71.2949H15.7805C12.8981 71.2949 10.5529 68.9497 10.5529 66.0673V30.8235C11.8433 32.2527 13.7098 33.1522 15.7823 33.1522H71.2518C71.7526 33.1522 72.16 33.5596 72.16 34.0604V41.7719C72.16 42.2734 72.5665 42.6801 73.0682 42.6801C73.5699 42.6801 73.9764 42.2734 73.9764 41.7719V34.0604C73.9764 32.558 72.7541 31.3358 71.2518 31.3358H70.3921V26.9061C70.3921 26.4046 69.9855 25.9979 69.4839 25.9979H68.495C67.9933 25.9979 67.5868 26.4046 67.5868 26.9061C67.5868 27.4076 67.9933 27.8143 68.495 27.8143H68.5756V31.3358H32.2475V26.9061C32.2475 26.4046 31.841 25.9979 31.3393 25.9979H30.3505C29.8488 25.9979 29.4423 26.4046 29.4423 26.9061C29.4423 27.4076 29.8488 27.8143 30.3505 27.8143H30.4311V31.3358H17.3871V13.1414C17.3871 12.6406 17.7946 12.2332 18.2953 12.2332H81.539C82.0398 12.2332 82.4472 12.6406 82.4472 13.1414V46.1313C82.4472 46.6321 82.0398 47.0395 81.539 47.0395H73.0682C72.5665 47.0395 72.16 47.4462 72.16 47.9477V57.0295C71.3242 56.8757 70.4643 56.7911 69.5847 56.7911C61.7592 56.7911 55.3927 63.1576 55.3927 70.9832C55.3927 78.8088 61.7592 85.1753 69.5847 85.1753C77.4103 85.1753 83.7768 78.8088 83.7768 70.9832C83.7768 64.6902 79.6585 59.3438 73.9764 57.4898V48.8559H81.5388ZM10.5531 26.1123C10.5531 26.1105 10.5536 26.1087 10.5536 26.1067C10.5536 23.2947 12.7855 20.9951 15.5707 20.8838V31.3303C12.7869 31.219 10.5562 28.9221 10.5531 26.1123ZM81.9604 70.9832C81.9604 77.8071 76.4087 83.3589 69.5847 83.3589C62.7606 83.3589 57.2091 77.8072 57.2091 70.9832C57.2091 64.1591 62.7606 58.6075 69.5847 58.6075C76.4087 58.6075 81.9604 64.1593 81.9604 70.9832Z" fill="#242F4D"/>
<path d="M69.5851 80.7843C74.9981 80.7843 79.3861 76.3963 79.3861 70.9833C79.3861 65.5704 74.9981 61.1824 69.5851 61.1824C64.1722 61.1824 59.7842 65.5704 59.7842 70.9833C59.7842 76.3963 64.1722 80.7843 69.5851 80.7843Z" fill="white"/>
<path d="M70.8372 75.77H67.3837C66.882 75.77 66.4755 75.3633 66.4755 74.8618C66.4755 74.3603 66.882 73.9536 67.3837 73.9536H70.8372C71.4057 73.9536 71.8682 73.4911 71.8682 72.9226C71.8682 72.354 71.4057 71.8916 70.8372 71.8916H68.3328C66.7627 71.8916 65.4854 70.6143 65.4854 69.0442C65.4854 67.4741 66.7627 66.1968 68.3328 66.1968H71.7863C72.288 66.1968 72.6945 66.6035 72.6945 67.105C72.6945 67.6065 72.288 68.0132 71.7863 68.0132H68.3328C67.7642 68.0132 67.3018 68.4756 67.3018 69.0442C67.3018 69.6127 67.7642 70.0752 68.3328 70.0752H70.8372C72.4073 70.0752 73.6846 71.3525 73.6846 72.9226C73.6846 74.4927 72.4073 75.77 70.8372 75.77Z" fill="#242F4D"/>
<path d="M69.585 77.2138C69.0833 77.2138 68.6768 76.8071 68.6768 76.3056V65.6609C68.6768 65.1594 69.0833 64.7527 69.585 64.7527C70.0867 64.7527 70.4932 65.1594 70.4932 65.6609V76.3056C70.4932 76.8073 70.0867 77.2138 69.585 77.2138Z" fill="#242F4D"/>
<path d="M66.1704 9.39204C65.9381 9.39204 65.7056 9.3034 65.5283 9.12611L63.5268 7.1248C63.3565 6.95442 63.2607 6.72355 63.2607 6.48252C63.2607 6.24148 63.3563 6.01061 63.5268 5.84024L65.5283 3.83892C65.6987 3.66854 65.9296 3.573 66.1704 3.573C66.4113 3.573 66.6423 3.66872 66.8125 3.83892L68.8139 5.84024C69.1686 6.19498 69.1686 6.77005 68.8139 7.12462L66.8125 9.12593C66.6354 9.30321 66.4029 9.39204 66.1704 9.39204ZM65.4535 6.48252L66.1704 7.19945L66.8872 6.48252L66.1704 5.76558L65.4535 6.48252Z" fill="#02BF7F"/>
<path d="M57.9095 6.81868C57.4078 6.81868 57.0013 6.41198 57.0013 5.91047C57.0013 5.30779 56.5111 4.81754 55.9082 4.81754C55.4065 4.81754 55 4.41085 55 3.90934C55 3.40783 55.4065 3.00114 55.9082 3.00114C56.5109 3.00114 57.0013 2.51089 57.0013 1.9082C57.0013 1.40669 57.4078 1 57.9095 1C58.4112 1 58.8177 1.40669 58.8177 1.9082C58.8177 2.51089 59.308 3.00114 59.9107 3.00114C60.4123 3.00114 60.8189 3.40783 60.8189 3.90934C60.8189 4.41085 60.4123 4.81754 59.9107 4.81754C59.3082 4.81754 58.8177 5.30779 58.8177 5.91047C58.8177 6.41198 58.4112 6.81868 57.9095 6.81868Z" fill="#02BF7F"/>
<path d="M48.9097 81.819C48.6774 81.819 48.4449 81.7304 48.2676 81.5531L46.2661 79.5518C46.0957 79.3814 46 79.1506 46 78.9095C46 78.6685 46.0955 78.4376 46.2661 78.2672L48.2676 76.2659C48.438 76.0955 48.6688 76 48.9097 76C49.1506 76 49.3816 76.0957 49.5518 76.2659L51.5531 78.2672C51.9079 78.622 51.9079 79.1971 51.5531 79.5516L49.5518 81.5529C49.3747 81.7302 49.1422 81.819 48.9097 81.819ZM48.1928 78.9095L48.9097 79.6265L49.6265 78.9095L48.9097 78.1926L48.1928 78.9095Z" fill="#02BF7F"/>
<path d="M33.9095 87.8187C33.4078 87.8187 33.0013 87.412 33.0013 86.9105C33.0013 86.3078 32.5111 85.8175 31.9082 85.8175C31.4065 85.8175 31 85.4108 31 84.9093C31 84.4078 31.4065 84.0011 31.9082 84.0011C32.5109 84.0011 33.0013 83.5109 33.0013 82.9082C33.0013 82.4067 33.4078 82 33.9095 82C34.4112 82 34.8177 82.4067 34.8177 82.9082C34.8177 83.5109 35.308 84.0011 35.9107 84.0011C36.4123 84.0011 36.8189 84.4078 36.8189 84.9093C36.8189 85.4108 36.4123 85.8175 35.9107 85.8175C35.3082 85.8175 34.8177 86.3078 34.8177 86.9105C34.8177 87.412 34.4112 87.8187 33.9095 87.8187Z" fill="#02BF7F"/>
<path d="M85.9095 57.8187C85.4078 57.8187 85.0013 57.412 85.0013 56.9105C85.0013 56.3078 84.5111 55.8175 83.9082 55.8175C83.4065 55.8175 83 55.4108 83 54.9093C83 54.4078 83.4065 54.0011 83.9082 54.0011C84.5109 54.0011 85.0013 53.5109 85.0013 52.9082C85.0013 52.4067 85.4078 52 85.9095 52C86.4112 52 86.8177 52.4067 86.8177 52.9082C86.8177 53.5109 87.308 54.0011 87.9107 54.0011C88.4123 54.0011 88.8189 54.4078 88.8189 54.9093C88.8189 55.4108 88.4123 55.8175 87.9107 55.8175C87.3082 55.8175 86.8177 56.3078 86.8177 56.9105C86.8177 57.412 86.4112 57.8187 85.9095 57.8187Z" fill="#02BF7F"/>
<path d="M21 50V43.0496H23.6145C24.3702 43.0496 24.9675 43.2714 25.4063 43.7149C25.8451 44.1584 26.0645 44.7442 26.0645 45.4723C26.0645 46.2468 25.8207 46.8492 25.3332 47.2794C24.8456 47.7031 24.227 47.9149 23.4774 47.9149H22.4078V50H21ZM22.4078 46.5546H23.5231C23.8705 46.5546 24.1417 46.4553 24.3367 46.2567C24.5378 46.0582 24.6384 45.8 24.6384 45.4823C24.6384 45.1447 24.5378 44.8865 24.3367 44.7078C24.1356 44.5225 23.8553 44.4298 23.4957 44.4298H22.4078V46.5546Z" fill="white"/>
<path d="M25.9151 50L28.6576 43H29.9557L32.6982 50H31.2264L30.6413 48.4411H27.9354L27.3503 50H25.9151ZM28.4382 47.0908H30.1385L29.2884 44.8369L28.4382 47.0908Z" fill="white"/>
<path d="M34.478 50V47.2596L32.0189 43.0496H33.6644L35.191 45.8397L36.7451 43.0496H38.3449L35.8858 47.2298V50H34.478Z" fill="white"/>
<path d="M39.2209 50V43.0496H44.0477V44.4099H40.6195V45.8199H43.6363V47.1801H40.6195V48.6397H44.0934V50H39.2209Z" fill="white"/>
<path d="M45.3451 50V43.0496H50.1719V44.4099H46.7437V45.8199H49.7605V47.1801H46.7437V48.6397H50.2176V50H45.3451Z" fill="white"/>
<path d="M51.4693 50V43.0496H54.3946C55.2052 43.0496 55.8268 43.2846 56.2595 43.7546C56.6252 44.1518 56.808 44.6879 56.808 45.3631C56.808 46.4288 56.3509 47.147 55.4368 47.5177L57 50H55.3545L53.965 47.7759H52.8771V50H51.4693ZM52.8771 46.4255H54.3032C54.6445 46.4255 54.9096 46.3362 55.0985 46.1574C55.2875 45.9721 55.3819 45.7272 55.3819 45.4227C55.3819 45.0983 55.2844 44.8534 55.0894 44.6879C54.8944 44.5158 54.6232 44.4298 54.2758 44.4298H52.8771V46.4255Z" fill="white"/>
</g>
<defs>
<linearGradient id="paint0_linear_224_43" x1="-1.61535e-06" y1="-1.5" x2="93" y2="85" gradientUnits="userSpaceOnUse">
<stop offset="0.007" stop-color="#C9EBE6"/>
<stop offset="0.992" stop-color="#B5CFF4"/>
</linearGradient>
<clipPath id="clip0_224_43">
<rect width="93" height="93" fill="white"/>
</clipPath>
</defs>
</svg>
