<svg width="116" height="116" viewBox="0 0 116 116" fill="none" xmlns="http://www.w3.org/2000/svg">
<g clip-path="url(#clip0_361_4)">
<path d="M86.6842 39.4258C86.6407 39.4256 86.5969 39.4254 86.5535 39.4254C79.2957 39.414 72.4193 36.2888 67.6491 30.8192C60.5427 22.6711 50.0678 17.5376 38.3951 17.5895C17.2088 17.6835 -0.270738 35.4836 0.0031761 56.6684C0.275731 77.7355 17.4383 94.7297 38.5702 94.7297C44.5386 94.7297 50.1897 93.3733 55.2332 90.9525C59.5819 88.8652 64.7636 89.4155 68.5932 92.3483C73.5465 96.1421 79.7378 98.4005 86.4567 98.4118C102.629 98.4388 115.906 85.2667 116 69.0944C116.094 52.7706 102.985 39.5219 86.6842 39.4258Z" fill="url(#paint0_linear_361_4)"/>
<path d="M103.197 58.9188C102.571 58.9188 102.064 58.4116 102.064 57.786C102.064 57.0343 101.453 56.4228 100.701 56.4228C100.075 56.4228 99.5684 55.9155 99.5684 55.29C99.5684 54.6644 100.075 54.1572 100.701 54.1572C101.453 54.1572 102.064 53.5457 102.064 52.7939C102.064 52.1684 102.571 51.6611 103.197 51.6611C103.823 51.6611 104.33 52.1684 104.33 52.7939C104.33 53.5457 104.942 54.1572 105.693 54.1572C106.319 54.1572 106.826 54.6644 106.826 55.29C106.826 55.9155 106.319 56.4228 105.693 56.4228C104.942 56.4228 104.33 57.0343 104.33 57.786C104.33 58.4116 103.823 58.9188 103.197 58.9188Z" fill="#1E80F3"/>
<path d="M28.5744 20.9782C27.9486 20.9782 27.4416 20.4709 27.4416 19.8454C27.4416 19.0936 26.8301 18.4821 26.0781 18.4821C25.4524 18.4821 24.9453 17.9749 24.9453 17.3493C24.9453 16.7238 25.4524 16.2165 26.0781 16.2165C26.8299 16.2165 27.4416 15.605 27.4416 14.8533C27.4416 14.2277 27.9486 13.7205 28.5744 13.7205C29.2002 13.7205 29.7072 14.2277 29.7072 14.8533C29.7072 15.605 30.3187 16.2165 31.0704 16.2165C31.6962 16.2165 32.2032 16.7238 32.2032 17.3493C32.2032 17.9749 31.6962 18.4821 31.0704 18.4821C30.3189 18.4821 29.7072 19.0936 29.7072 19.8454C29.7072 20.4709 29.2002 20.9782 28.5744 20.9782Z" fill="#2A8CFF"/>
<path d="M33.5644 110.785C32.9386 110.785 32.4316 110.277 32.4316 109.652C32.4316 108.9 31.8201 108.289 31.0684 108.289C30.4426 108.289 29.9355 107.781 29.9355 107.156C29.9355 106.53 30.4426 106.023 31.0684 106.023C31.8199 106.023 32.4316 105.411 32.4316 104.66C32.4316 104.034 32.9386 103.527 33.5644 103.527C34.1902 103.527 34.6972 104.034 34.6972 104.66C34.6972 105.411 35.3087 106.023 36.0607 106.023C36.6864 106.023 37.1935 106.53 37.1935 107.156C37.1935 107.781 36.6864 108.289 36.0607 108.289C35.3089 108.289 34.6972 108.9 34.6972 109.652C34.6972 110.277 34.1902 110.785 33.5644 110.785Z" fill="#1E80F3"/>
<path d="M38.5531 14.742C38.2634 14.742 37.9734 14.6315 37.7522 14.4104L35.2557 11.9141C35.0432 11.7016 34.9238 11.4136 34.9238 11.113C34.9238 10.8123 35.043 10.5244 35.2557 10.3118L37.7522 7.81557C37.9648 7.60306 38.2527 7.48389 38.5531 7.48389C38.8536 7.48389 39.1417 7.60328 39.354 7.81557L41.8503 10.3118C42.2928 10.7543 42.2928 11.4716 41.8503 11.9139L39.354 14.4101C39.1331 14.6313 38.8431 14.742 38.5531 14.742ZM37.6589 11.113L38.5531 12.0072L39.4472 11.113L38.5531 10.2187L37.6589 11.113Z" fill="#02BF7F"/>
<path d="M46.0372 105.796C45.7368 105.796 45.4486 105.676 45.2363 105.464L42.7401 102.968C42.2976 102.525 42.2976 101.808 42.7401 101.366L45.2363 98.8693C45.4488 98.6568 45.7368 98.5376 46.0372 98.5376C46.3376 98.5376 46.6258 98.657 46.8381 98.8693L49.3346 101.366C49.5471 101.578 49.6665 101.866 49.6665 102.167C49.6665 102.467 49.5474 102.755 49.3346 102.968L46.8381 105.464C46.6258 105.676 46.3379 105.796 46.0372 105.796ZM45.1432 102.166L46.0372 103.061L46.9315 102.166L46.0372 101.272L45.1432 102.166Z" fill="#02BF7F"/>
<g clip-path="url(#clip1_361_4)">
<path opacity="0.1" d="M43.9043 61.243C43.9043 75.296 55.2965 86.6882 69.3495 86.6882C83.3957 86.6717 94.7782 75.2893 94.7946 61.243C94.7946 47.19 83.4024 35.7979 69.3495 35.7979C55.2965 35.7979 43.9043 47.19 43.9043 61.243Z" fill="#243C70"/>
<path d="M21.2859 63.5713H45.3175V66.3985H21.2859C19.3318 66.3985 19.3318 63.5713 21.2859 63.5713Z" fill="#243C70"/>
<path d="M29.7673 39.5398H69.3487V42.367H29.7673C28.0626 42.4087 27.8305 39.5398 29.7673 39.5398Z" fill="#243C70"/>
<path d="M35.422 87.6028H69.3488V90.43H35.422C33.0521 90.4299 33.0521 87.6028 35.422 87.6028Z" fill="#243C70"/>
<path d="M29.7668 76.2939H49.5575V79.1212H29.7668C28.0621 79.1212 28.0621 76.2939 29.7668 76.2939Z" fill="#243C70"/>
<path d="M29.7679 50.8489H49.5586V53.6761H29.7679C28.0633 53.6346 27.9466 50.8489 29.7679 50.8489Z" fill="#243C70"/>
<path d="M69.3499 40.9534C56.0776 40.9534 45.3184 51.7126 45.3184 64.9849C45.3184 78.2572 56.0776 89.0165 69.3499 89.0165C82.6222 89.0165 93.3814 78.2572 93.3814 64.9849C93.3908 51.722 82.6468 40.9627 69.3838 40.9534C69.3725 40.9534 69.3612 40.9534 69.3499 40.9534Z" fill="#F5CA2A"/>
<path d="M79.2443 59.3306C79.2443 56.9884 77.3456 55.0897 75.0034 55.0897H72.1761V52.2625H69.3489V55.0897H66.5217V52.2625H63.6944V55.0897H60.8672V57.9169H62.2808V72.0531H60.8672V74.8804H63.6944V77.7076H66.5217V74.8804H69.3489V77.7076H72.1761V74.8804H75.0034C77.3456 74.8804 79.2443 72.9817 79.2443 70.6395V67.8123C79.2405 66.7657 78.8476 65.7578 78.1416 64.985C78.8476 64.2123 79.2405 63.2044 79.2443 62.1578V59.3306ZM76.417 59.3306V62.1578C76.417 62.9385 75.7841 63.5714 75.0034 63.5714H65.108V57.9169H75.0034C75.7841 57.9169 76.417 58.5499 76.417 59.3306ZM76.417 70.6395C76.417 71.4202 75.7841 72.0531 75.0034 72.0531H65.108V66.3987H75.0034C75.7841 66.3987 76.417 67.0316 76.417 67.8123V70.6395Z" fill="white"/>
<path d="M69.0995 90.4301C55.0465 90.4301 43.6543 79.0379 43.6543 64.985C43.6543 50.932 55.0465 39.5398 69.0995 39.5398C83.1524 39.5398 94.5446 50.932 94.5446 64.985C94.5282 79.0312 83.1457 90.4137 69.0995 90.4301ZM69.0995 42.367C56.608 42.367 46.4815 52.4935 46.4815 64.985C46.4815 77.4764 56.608 87.6029 69.0995 87.6029C81.5909 87.6029 91.7174 77.4764 91.7174 64.985C91.7025 52.4995 81.5849 42.3819 69.0995 42.367Z" fill="#243C70"/>
<path d="M69.3676 84.7757H69.3493C67.8017 84.7762 66.2593 84.5958 64.7536 84.2385L65.4067 81.489C66.6986 81.7949 68.0217 81.9492 69.3493 81.9485L69.3676 84.7757ZM72.4621 84.5326L72.0196 81.7421C73.3359 81.5332 74.6226 81.1692 75.8533 80.6578L76.939 83.2702C75.5006 83.8657 73.9969 84.2894 72.4592 84.5326H72.4621ZM61.7963 83.2815C60.3579 82.688 58.9952 81.9258 57.7364 81.0112L59.3974 78.7254C60.476 79.51 61.6431 80.1646 62.8749 80.6762L61.7963 83.2815ZM79.7012 81.8566L78.2197 79.4534C79.3558 78.7547 80.4057 77.9248 81.3481 76.981L83.3441 78.9799C82.2461 80.0775 81.0235 81.043 79.7012 81.8566ZM55.3742 78.9982C54.2734 77.8998 53.305 76.6764 52.489 75.3525L54.8922 73.8696C55.5935 75.0065 56.4258 76.0575 57.3717 77.0008L55.3742 78.9982ZM85.3642 76.6163L83.0769 74.951C83.8615 73.8735 84.5162 72.7073 85.0277 71.4764L87.6387 72.5578C87.0428 73.9954 86.2795 75.3576 85.3642 76.6163ZM51.074 72.5931C50.4743 71.1569 50.0472 69.6546 49.8017 68.1176L52.5936 67.6723C52.803 68.9882 53.1679 70.2748 53.6807 71.5046L51.074 72.5931ZM88.5985 69.6033L85.8476 68.9432C86.1576 67.6467 86.3136 66.3181 86.3127 64.985L88.4261 64.9285L89.1399 64.9483C89.1426 66.5158 88.9609 68.0782 88.5985 69.6033ZM49.5586 65.0218V64.985C49.5577 63.4443 49.736 61.9086 50.0901 60.4091L52.8424 61.0608C52.538 62.3467 52.3848 63.6636 52.3858 64.985L49.5586 65.0218ZM86.095 62.261C85.883 60.9458 85.5158 59.6603 85.0009 58.4315L87.609 57.3387C88.2078 58.7743 88.6349 60.2755 88.8812 61.8114L86.095 62.261ZM53.6581 58.5276L51.0457 57.4504C51.637 56.0122 52.3961 54.649 53.3075 53.3891L55.5976 55.0459C54.8164 56.1262 54.1654 57.2947 53.6581 58.5276ZM83.7852 56.0693C83.0824 54.9363 82.2498 53.8893 81.3042 52.9495L83.296 50.9421C84.3987 52.0386 85.3695 53.2603 86.1883 54.5822L83.7852 56.0693ZM57.325 53.0201L55.3219 51.0241C56.4185 49.9234 57.6396 48.9542 58.9606 48.1361L60.4491 50.5392C59.3147 51.2416 58.2661 52.0742 57.325 53.0201ZM79.2729 51.2263C78.1925 50.447 77.0238 49.7983 75.7911 49.2938L76.8641 46.6786C78.3038 47.2695 79.6685 48.0286 80.9296 48.9404L79.2729 51.2263ZM62.8127 49.3278L61.7157 46.7182C63.1521 46.1188 64.6545 45.6918 66.1912 45.446L66.6379 48.2364C65.3243 48.4487 64.0404 48.815 62.8127 49.3278ZM73.2593 48.4725C71.9777 48.1725 70.6657 48.0212 69.3493 48.0216L69.2927 45.1943H69.3493C70.883 45.1942 72.4119 45.3705 73.9054 45.7202L73.2593 48.4725Z" fill="white"/>
<path d="M8.72939 63.5713H17.2111C19.3315 63.613 19.0053 66.3985 17.2111 66.3985H8.72939C6.85843 66.3985 6.85844 63.5713 8.72939 63.5713Z" fill="#243C70"/>
<path d="M21.1633 39.5398H26.1283C27.8746 39.5398 27.8746 42.367 26.1283 42.367H21.1633C19.2092 42.4087 19.0634 39.5398 21.1633 39.5398Z" fill="#243C70"/>
<path d="M25.692 87.603H31.3465C33.1823 87.603 33.0511 90.4302 31.3465 90.4303H25.692C23.6963 90.4303 23.5776 87.603 25.692 87.603Z" fill="#243C70"/>
<path d="M22.8655 76.2937H26.1917C27.9379 76.2937 27.9379 79.1209 26.1917 79.1209H22.8655C20.6328 79.1209 20.8076 76.2937 22.8655 76.2937Z" fill="#243C70"/>
<path d="M13.1375 76.2937H18.792C20.7739 76.2937 20.5798 79.1209 18.792 79.1209H13.1375C11.225 79.1209 11.225 76.2937 13.1375 76.2937Z" fill="#243C70"/>
<path d="M22.7962 50.8689H26.1327C27.8789 50.8689 27.8789 53.6546 26.1327 53.6961H22.7962C21.1331 53.6546 21.1331 50.8689 22.7962 50.8689Z" fill="#243C70"/>
<path d="M14.0477 39.5442L16.8369 39.5813C19.3316 39.5813 19.3316 42.4085 16.8369 42.4085L14.0477 42.3714C12.1351 42.3714 12.1351 39.5442 14.0477 39.5442Z" fill="#243C70"/>
<path d="M61.0043 29.7098C60.7145 29.7098 60.4245 29.5993 60.2034 29.3781L57.7069 26.8819C57.4944 26.6693 57.375 26.3814 57.375 26.0807C57.375 25.7801 57.4942 25.4921 57.7069 25.2796L60.2034 22.7833C60.4159 22.5708 60.7039 22.4517 61.0043 22.4517C61.3047 22.4517 61.5929 22.5711 61.8052 22.7833L64.3015 25.2796C64.744 25.7221 64.744 26.4394 64.3015 26.8816L61.8052 29.3779C61.5843 29.599 61.2943 29.7098 61.0043 29.7098ZM60.1101 26.0807L61.0043 26.975L61.8983 26.0807L61.0043 25.1865L60.1101 26.0807Z" fill="#02BF7F"/>
</g>
</g>
<defs>
<linearGradient id="paint0_linear_361_4" x1="6.69085" y1="28.7171" x2="108.418" y2="100.426" gradientUnits="userSpaceOnUse">
<stop stop-color="#CCEEE3"/>
<stop offset="1" stop-color="#B1C9F6"/>
</linearGradient>
<clipPath id="clip0_361_4">
<rect width="116" height="116" fill="white"/>
</clipPath>
<clipPath id="clip1_361_4">
<rect width="89.8065" height="84.8172" fill="white" transform="translate(4.98828 16.2151)"/>
</clipPath>
</defs>
</svg>
