<svg width="116" height="116" viewBox="0 0 116 116" fill="none" xmlns="http://www.w3.org/2000/svg">
<path d="M116 42.9642C116 25.4716 90.0325 11.291 58 11.291C25.9675 11.291 0 25.4716 0 42.9642C0 45.7917 0.679461 48.5325 1.95297 51.1406C4.22018 55.7831 4.78545 61.0704 3.66057 66.1133C3.19929 68.1811 2.94033 70.325 2.90544 72.5236C2.62563 90.1529 16.9435 104.709 34.5748 104.709C47.8158 104.709 59.1575 96.5834 63.8886 85.0469C66.4868 78.7113 71.9463 73.9636 78.6503 72.5685C100.486 68.0243 116 56.4843 116 42.9642Z" fill="url(#paint0_linear_361_71)"/>
<path opacity="0.1" d="M83.3835 21.6707C81.5112 21.6707 79.9932 23.1884 79.9932 25.0609C79.9932 25.5829 80.1147 26.0753 80.3254 26.5171L62.3748 44.4676C61.9323 44.9099 61.9323 45.6271 62.3748 46.0694C62.596 46.2908 62.8859 46.4013 63.1757 46.4013C63.4655 46.4013 63.7557 46.2908 63.9766 46.0694L81.9272 28.1189C82.3687 28.3296 82.8613 28.4512 83.3833 28.4512C85.2556 28.4512 86.7736 26.9335 86.7736 25.0609C86.7736 23.1884 85.2561 21.6707 83.3835 21.6707Z" fill="#242F4D"/>
<path opacity="0.1" d="M88.5547 60.9627C87.1199 60.9627 85.7379 61.1868 84.4397 61.5991V38.7763H96.6498C97.2754 38.7763 97.7826 38.269 97.7826 37.6435V32.5572C97.7826 28.8429 94.8029 25.8265 91.1038 25.7633C91.148 25.7623 91.1919 25.7599 91.2363 25.7599H63.5286V17.2334C63.5286 15.9821 62.5143 14.9678 61.263 14.9678H16.1309C14.8796 14.9678 13.8652 15.9821 13.8652 17.2334V50.0818C13.8652 51.3331 14.8796 52.3474 16.1309 52.3474H42.7839V75.4964H30.3064C29.6809 75.4964 29.1736 76.0037 29.1736 76.6293V86.7167C29.1736 90.4706 32.2166 93.5136 35.9705 93.5136H77.6263C77.622 93.5136 77.6174 93.5134 77.6131 93.5134H77.6428C81.1393 93.5134 84.0208 90.8703 84.3969 87.4719C85.7075 87.893 87.104 88.1228 88.5547 88.1228C96.0549 88.1228 102.135 82.0427 102.135 74.5426C102.135 67.0427 96.0549 60.9627 88.5547 60.9627Z" fill="#242F4D"/>
<path d="M97.7822 41.2174V36.1311C97.7822 32.3772 94.7392 29.3342 90.9853 29.3342H79.3262V42.3502H96.6494C97.2749 42.3502 97.7822 41.8432 97.7822 41.2174Z" fill="#1E80F3"/>
<path d="M97.7839 36.1318V39.4963C97.7839 35.7444 94.7412 32.6994 90.987 32.6994H79.3281V29.335H90.987C94.7412 29.335 97.7839 32.3777 97.7839 36.1318Z" fill="#1E80F3"/>
<path d="M91.2359 29.3337C87.4817 29.3337 84.439 32.3765 84.439 36.1306V90.2904C84.439 94.0445 81.394 97.0872 77.6421 97.0872H42.7832V36.1306C42.7832 32.3765 45.8259 29.3337 49.5801 29.3337H91.2359Z" fill="white"/>
<path d="M73.0765 46.2042H63.5176C62.892 46.2042 62.3848 45.6969 62.3848 45.0714V35.5125C62.3848 34.8869 62.892 34.3796 63.5176 34.3796H73.0765C73.702 34.3796 74.2093 34.8869 74.2093 35.5125V45.0714C74.2093 45.6971 73.702 46.2042 73.0765 46.2042Z" fill="#EBEBFF"/>
<path d="M69.9209 88.4305C74.4897 88.4305 78.1934 84.7267 78.1934 80.158C78.1934 75.5892 74.4897 71.8855 69.9209 71.8855C65.3522 71.8855 61.6484 75.5892 61.6484 80.158C61.6484 84.7267 65.3522 88.4305 69.9209 88.4305Z" fill="#EBEBFF"/>
<path d="M63.5273 29.3337V57.5091C63.5273 58.7619 62.5145 59.7747 61.2616 59.7747H42.7832V36.1306C42.7832 32.3765 45.8259 29.3337 49.5801 29.3337H63.5273Z" fill="#EBEBFF"/>
<path d="M70.8296 90.2908V80.2031C70.8296 79.5776 70.3223 79.0703 69.6968 79.0703H30.3066C29.6811 79.0703 29.1738 79.5776 29.1738 80.2031V90.2908C29.1738 94.0447 32.2168 97.0877 35.9707 97.0877H77.6265C73.8723 97.0877 70.8296 94.045 70.8296 90.2908Z" fill="#1E80F3"/>
<path d="M61.263 55.9214H16.1309C14.8796 55.9214 13.8652 54.9071 13.8652 53.6557V20.8071C13.8652 19.5558 14.8796 18.5415 16.1309 18.5415H61.263C62.5143 18.5415 63.5286 19.5558 63.5286 20.8071V53.6555C63.5286 54.9068 62.5143 55.9214 61.263 55.9214Z" fill="#CCEEE3"/>
<path d="M68.7871 69.5471H49.6426C49.0168 69.5471 48.5098 69.0398 48.5098 68.4143C48.5098 67.7888 49.0168 67.2815 49.6426 67.2815H68.7871C69.4129 67.2815 69.9199 67.7888 69.9199 68.4143C69.9199 69.0398 69.4129 69.5471 68.7871 69.5471Z" fill="#B3B3FF"/>
<path d="M53.834 63.4138H49.6426C49.0168 63.4138 48.5098 62.9065 48.5098 62.281C48.5098 61.6555 49.0168 61.1482 49.6426 61.1482H53.834C54.4598 61.1482 54.9668 61.6555 54.9668 62.281C54.9668 62.9065 54.4598 63.4138 53.834 63.4138Z" fill="#F5CA2A"/>
<path d="M76.9434 74.1067H49.6426C49.0168 74.1067 48.5098 73.5994 48.5098 72.9739C48.5098 72.3483 49.0168 71.8411 49.6426 71.8411H76.9434C77.5691 71.8411 78.0762 72.3483 78.0762 72.9739C78.0762 73.5994 77.5691 74.1067 76.9434 74.1067Z" fill="#B3B3FF"/>
<path d="M73.9436 46.8185C71.8683 46.8185 70.1797 45.13 70.1797 43.0547C70.1797 40.9793 71.8683 39.2908 73.9436 39.2908C76.0189 39.2908 77.7074 40.9793 77.7074 43.0547C77.7074 45.13 76.0189 46.8185 73.9436 46.8185ZM73.9436 41.5564C73.1175 41.5564 72.4453 42.2286 72.4453 43.0547C72.4453 43.8807 73.1175 44.5529 73.9436 44.5529C74.7696 44.5529 75.4418 43.8807 75.4418 43.0547C75.4418 42.2286 74.7698 41.5564 73.9436 41.5564Z" fill="#02BF7F"/>
<path d="M76.5746 49.4497C75.9489 49.4497 75.4418 48.9426 75.4418 48.3169C75.4418 47.4908 74.7696 46.8186 73.9436 46.8186C73.1175 46.8186 72.4453 47.4908 72.4453 48.3169C72.4453 48.9426 71.9383 49.4497 71.3125 49.4497C70.6867 49.4497 70.1797 48.9426 70.1797 48.3169C70.1797 46.2416 71.8683 44.553 73.9436 44.553C76.0189 44.553 77.7074 46.2416 77.7074 48.3169C77.7074 48.9424 77.2004 49.4497 76.5746 49.4497Z" fill="#02BF7F"/>
<path d="M76.5751 54.5549C77.2745 54.5549 77.8416 53.9879 77.8416 53.2885C77.8416 52.589 77.2745 52.022 76.5751 52.022C75.8756 52.022 75.3086 52.589 75.3086 53.2885C75.3086 53.9879 75.8756 54.5549 76.5751 54.5549Z" fill="#F5CA2A"/>
<path d="M19.8915 25.6082C20.5909 25.6082 21.158 25.0411 21.158 24.3417C21.158 23.6422 20.5909 23.0752 19.8915 23.0752C19.192 23.0752 18.625 23.6422 18.625 24.3417C18.625 25.0411 19.192 25.6082 19.8915 25.6082Z" fill="white"/>
<path d="M76.5751 58.3863C77.2745 58.3863 77.8416 57.8192 77.8416 57.1198C77.8416 56.4203 77.2745 55.8533 76.5751 55.8533C75.8756 55.8533 75.3086 56.4203 75.3086 57.1198C75.3086 57.8192 75.8756 58.3863 76.5751 58.3863Z" fill="#F5CA2A"/>
<path d="M77.8416 60.9511C77.8416 61.6505 77.2745 62.2175 76.5751 62.2175C75.8757 62.2175 75.3086 61.6505 75.3086 60.9511C75.3086 60.2517 75.8757 59.6846 76.5751 59.6846C77.2745 59.6846 77.8416 60.2517 77.8416 60.9511Z" fill="#F5CA2A"/>
<path d="M88.5548 91.6972C96.0549 91.6972 102.135 85.6171 102.135 78.117C102.135 70.6169 96.0549 64.5369 88.5548 64.5369C81.0547 64.5369 74.9746 70.6169 74.9746 78.117C74.9746 85.6171 81.0547 91.6972 88.5548 91.6972Z" fill="#F5CA2A"/>
<path d="M88.5538 87.7194C93.8572 87.7194 98.1564 83.4202 98.1564 78.1168C98.1564 72.8134 93.8572 68.5142 88.5538 68.5142C83.2504 68.5142 78.9512 72.8134 78.9512 78.1168C78.9512 83.4202 83.2504 87.7194 88.5538 87.7194Z" fill="white"/>
<path d="M89.8686 83.3201H86.2443C85.6185 83.3201 85.1115 82.813 85.1115 82.1873C85.1115 81.5615 85.6185 81.0545 86.2443 81.0545H89.8686C90.3662 81.0545 90.7708 80.6496 90.7708 80.1521C90.7708 79.6545 90.3662 79.2499 89.8686 79.2499H87.2401C85.4933 79.2499 84.0723 77.8289 84.0723 76.0819C84.0723 74.3351 85.4933 72.9141 87.2401 72.9141H90.8644C91.4902 72.9141 91.9972 73.4211 91.9972 74.0469C91.9972 74.6726 91.4902 75.1797 90.8644 75.1797H87.2401C86.7425 75.1797 86.3379 75.5843 86.3379 76.0819C86.3379 76.5794 86.7425 76.9843 87.2401 76.9843H89.8686C91.6154 76.9843 93.0364 78.4053 93.0364 80.1521C93.0367 81.8988 91.6154 83.3201 89.8686 83.3201Z" fill="#243C70"/>
<path d="M88.5547 84.8351C87.9289 84.8351 87.4219 84.3281 87.4219 83.7023V72.5305C87.4219 71.9048 87.9289 71.3977 88.5547 71.3977C89.1805 71.3977 89.6875 71.9048 89.6875 72.5305V83.7023C89.6875 84.3281 89.1805 84.8351 88.5547 84.8351Z" fill="#243C70"/>
<path d="M31.5797 41.5096C33.4521 41.5096 34.97 39.9917 34.97 38.1193C34.97 36.2469 33.4521 34.729 31.5797 34.729C29.7073 34.729 28.1895 36.2469 28.1895 38.1193C28.1895 39.9917 29.7073 41.5096 31.5797 41.5096Z" fill="#1E80F3"/>
<path d="M40.1676 49.8694C42.04 49.8694 43.5579 48.3516 43.5579 46.4791C43.5579 44.6067 42.04 43.0889 40.1676 43.0889C38.2952 43.0889 36.7773 44.6067 36.7773 46.4791C36.7773 48.3516 38.2952 49.8694 40.1676 49.8694Z" fill="#02BF7F"/>
<path d="M54.8688 35.4231C56.7412 35.4231 58.2591 33.9053 58.2591 32.0329C58.2591 30.1605 56.7412 28.6426 54.8688 28.6426C52.9964 28.6426 51.4785 30.1605 51.4785 32.0329C51.4785 33.9053 52.9964 35.4231 54.8688 35.4231Z" fill="#1E80F3"/>
<path d="M63.2438 43.9476C65.1162 43.9476 66.6341 42.4297 66.6341 40.5573C66.6341 38.6849 65.1162 37.167 63.2438 37.167C61.3714 37.167 59.8535 38.6849 59.8535 40.5573C59.8535 42.4297 61.3714 43.9476 63.2438 43.9476Z" fill="#02BF7F"/>
<path d="M83.3825 23.6934C85.2549 23.6934 86.7728 22.1755 86.7728 20.3031C86.7728 18.4307 85.2549 16.9128 83.3825 16.9128C81.5101 16.9128 79.9922 18.4307 79.9922 20.3031C79.9922 22.1755 81.5101 23.6934 83.3825 23.6934Z" fill="#1E80F3"/>
<path d="M88.5547 63.4039C80.442 63.4039 73.842 70.0042 73.842 78.1169C73.842 84.3041 77.6829 89.6077 83.1036 91.7784C82.4421 94.199 80.2034 95.9551 77.6419 95.9551H77.6263C74.5031 95.9551 71.9622 93.4142 71.9622 90.291V80.2036C71.9622 78.9543 70.9458 77.9379 69.6966 77.9379H43.9158V57.0543H61.263C63.1369 57.0543 64.6615 55.5298 64.6615 53.6559V44.8503C66.4628 44.254 67.7676 42.5566 67.7676 40.5578C67.7676 39.691 67.5182 38.8833 67.0936 38.1946L74.8207 30.4674H85.6912C84.2201 31.9077 83.306 33.9148 83.306 36.1315V57.7582C83.306 58.384 83.813 58.891 84.4388 58.891C85.0645 58.891 85.5716 58.384 85.5716 57.7582V43.4834H96.6498C97.8991 43.4834 98.9154 42.4671 98.9154 41.2178V36.1315C98.9154 31.871 95.5376 28.386 91.3197 28.2102C91.2914 28.2081 91.2644 28.2018 91.2356 28.2018H77.0864L81.092 24.1962C81.7649 24.5938 82.5465 24.8262 83.3832 24.8262C85.8772 24.8262 87.9063 22.7971 87.9063 20.3031C87.9063 17.8091 85.8772 15.7803 83.3832 15.7803C80.8892 15.7803 78.8603 17.8091 78.8603 20.3031C78.8603 21.1396 79.0928 21.9212 79.4902 22.5941L73.8825 28.2018H64.6615V20.8077C64.6615 18.9338 63.1369 17.4093 61.263 17.4093H16.1309C14.257 17.4093 12.7324 18.9338 12.7324 20.8077V53.6559C12.7324 55.5298 14.257 57.0543 16.1309 57.0543H35.0799C35.7054 57.0543 36.2127 56.5472 36.2127 55.9215C36.2127 55.2957 35.7054 54.7887 35.0799 54.7887H16.1309C15.5062 54.7887 14.998 54.2805 14.998 53.6559V20.8077C14.998 20.1831 15.5062 19.6749 16.1309 19.6749H61.2632C61.8879 19.6749 62.3961 20.1831 62.3961 20.8077V36.1174C61.8727 36.2173 61.3831 36.4092 60.9402 36.673L58.6979 34.4307C59.1354 33.7347 59.3925 32.9143 59.3925 32.0332C59.3925 29.5392 57.3634 27.5101 54.8696 27.5101C52.3759 27.5101 50.3468 29.5392 50.3468 32.0332C50.3468 32.8513 50.5684 33.6173 50.9499 34.28L42.5739 42.656C41.8761 42.2154 41.0527 41.9562 40.168 41.9562C39.2722 41.9562 38.4387 42.2213 37.7352 42.6723L35.4732 40.4103C35.8708 39.7374 36.103 38.9558 36.103 38.1193C36.103 35.6253 34.0739 33.5965 31.5802 33.5965C29.0864 33.5965 27.0573 35.6253 27.0573 38.1193C27.0573 38.9558 27.2897 39.7374 27.6871 40.4103L20.2609 47.8366C19.8184 48.2789 19.8184 48.9962 20.2609 49.4384C20.4822 49.6598 20.772 49.7703 21.062 49.7703C21.352 49.7703 21.6418 49.6598 21.8631 49.4384L29.2892 42.0124C29.962 42.41 30.7437 42.6424 31.5802 42.6424C32.4166 42.6424 33.1983 42.41 33.8712 42.0124L36.1891 44.3303C35.8422 44.9699 35.6449 45.7019 35.6449 46.4793C35.6449 48.9733 37.674 51.0024 40.168 51.0024C42.662 51.0024 44.6909 48.9733 44.6909 46.4793C44.6909 45.6906 44.487 44.9493 44.1308 44.3029L52.5345 35.8993C53.2171 36.3132 54.0146 36.5561 54.8696 36.5561C55.6617 36.5561 56.406 36.3501 57.0542 35.9908L59.3436 38.28C58.9509 38.9499 58.7219 39.7266 58.7219 40.5574C58.7219 42.7609 60.3069 44.599 62.3963 44.9978V53.6554C62.3963 54.28 61.8881 54.7882 61.2635 54.7882H42.7834C42.1812 54.7882 41.6935 55.2595 41.6574 55.8528H41.6506V77.9375H30.3066C29.0574 77.9375 28.041 78.9538 28.041 80.2031V90.2906C28.041 94.663 31.5983 98.2203 35.9707 98.2203H77.6265H77.6421C81.1987 98.2203 84.3157 95.8028 85.2702 92.4549C86.3272 92.6969 87.4255 92.8292 88.555 92.8292C96.6677 92.8292 103.268 86.229 103.268 78.1165C103.268 70.0039 96.6675 63.4039 88.5547 63.4039ZM91.1108 30.4706C94.1764 30.5374 96.65 33.0502 96.65 36.1315V41.2178H85.5718V36.1315C85.5716 33.05 88.0452 30.5374 91.1108 30.4706ZM83.3832 18.0457C84.628 18.0457 85.6407 19.0584 85.6407 20.3029C85.6407 21.5476 84.628 22.5604 83.3832 22.5604C82.1387 22.5604 81.126 21.5476 81.126 20.3029C81.126 19.0584 82.1387 18.0457 83.3832 18.0457ZM71.6169 30.4674L65.4635 36.6209C65.2102 36.4774 64.9422 36.3583 64.6617 36.2654V30.4674H71.6169ZM31.5799 40.3768C30.3352 40.3768 29.3227 39.3641 29.3227 38.1193C29.3227 36.8748 30.3354 35.8621 31.5799 35.8621C32.8244 35.8621 33.8372 36.8748 33.8372 38.1193C33.8374 39.3641 32.8247 40.3768 31.5799 40.3768ZM40.1678 48.7367C38.923 48.7367 37.9103 47.724 37.9103 46.4793C37.9103 45.2345 38.923 44.2218 40.1678 44.2218C41.4125 44.2218 42.425 45.2345 42.425 46.4793C42.425 47.724 41.4125 48.7367 40.1678 48.7367ZM52.6122 32.0332C52.6122 30.7885 53.6249 29.7757 54.8694 29.7757C56.1139 29.7757 57.1267 30.7885 57.1267 32.0332C57.1267 33.2779 56.1139 34.2907 54.8694 34.2907C53.6249 34.2907 52.6122 33.2779 52.6122 32.0332ZM60.9873 40.5578C60.9873 39.3131 62 38.3004 63.2448 38.3004C64.4895 38.3004 65.5022 39.3131 65.5022 40.5578C65.5022 41.8026 64.4895 42.8153 63.2448 42.8153C62 42.8153 60.9873 41.8026 60.9873 40.5578ZM35.9705 95.9551C32.8473 95.9551 30.3064 93.4142 30.3064 90.291V80.2036H69.6966V90.291C69.6966 92.5077 70.6108 94.5148 72.0818 95.9551H35.9705ZM88.5547 90.564C81.6912 90.564 76.1076 84.9802 76.1076 78.1169C76.1076 71.2537 81.6915 65.6696 88.5547 65.6696C95.418 65.6696 101.002 71.2534 101.002 78.1169C101.002 84.9804 95.4182 90.564 88.5547 90.564Z" fill="#242F4D"/>
<path d="M44.4595 30.1479H25.0254C24.3996 30.1479 23.8926 29.6407 23.8926 29.0151C23.8926 28.3896 24.3996 27.8823 25.0254 27.8823H44.4595C45.0852 27.8823 45.5923 28.3896 45.5923 29.0151C45.5923 29.6407 45.0852 30.1479 44.4595 30.1479Z" fill="#243C70"/>
<path d="M28.3379 25.5649H25.5059C24.8801 25.5649 24.373 25.0577 24.373 24.4321C24.373 23.8066 24.8801 23.2993 25.5059 23.2993H28.3379C28.9637 23.2993 29.4707 23.8066 29.4707 24.4321C29.4707 25.0577 28.9637 25.5649 28.3379 25.5649Z" fill="#243C70"/>
<path d="M39.8301 25.5649H32.2402C31.6145 25.5649 31.1074 25.0577 31.1074 24.4321C31.1074 23.8066 31.6145 23.2993 32.2402 23.2993H39.8301C40.4558 23.2993 40.9629 23.8066 40.9629 24.4321C40.9629 25.0577 40.4556 25.5649 39.8301 25.5649Z" fill="#243C70"/>
<path d="M16.4281 97.7794C16.1384 97.7794 15.8484 97.6688 15.6272 97.4477L13.1307 94.9514C12.9182 94.7389 12.7988 94.451 12.7988 94.1503C12.7988 93.8497 12.918 93.5617 13.1307 93.3492L15.6272 90.8529C15.8398 90.6404 16.1277 90.5212 16.4281 90.5212C16.7286 90.5212 17.0167 90.6406 17.229 90.8529L19.7253 93.3492C20.1678 93.7917 20.1678 94.509 19.7253 94.9512L17.229 97.4475C17.0081 97.6686 16.7181 97.7794 16.4281 97.7794ZM15.5339 94.1503L16.4281 95.0446L17.3222 94.1503L16.4281 93.2561L15.5339 94.1503Z" fill="#02BF7F"/>
<path d="M98.4242 23.4732C98.1345 23.4732 97.8445 23.3627 97.6233 23.1416L95.1268 20.6453C94.9143 20.4328 94.7949 20.1448 94.7949 19.8442C94.7949 19.5435 94.9141 19.2556 95.1268 19.043L97.6233 16.5468C97.8358 16.3343 98.1238 16.2151 98.4242 16.2151C98.7247 16.2151 99.0128 16.3345 99.2251 16.5468L101.721 19.043C102.164 19.4855 102.164 20.2028 101.721 20.6451L99.2251 23.1413C99.0042 23.3625 98.7142 23.4732 98.4242 23.4732ZM97.53 19.8442L98.4242 20.7384L99.3183 19.8442L98.4242 18.9499L97.53 19.8442Z" fill="#02BF7F"/>
<path d="M6.12322 94.5695C5.49745 94.5695 4.9904 94.0622 4.9904 93.4367C4.9904 92.6849 4.37891 92.0734 3.62695 92.0734C3.00119 92.0734 2.49414 91.5662 2.49414 90.9406C2.49414 90.3151 3.00119 89.8078 3.62695 89.8078C4.37869 89.8078 4.9904 89.1963 4.9904 88.4446C4.9904 87.819 5.49745 87.3118 6.12322 87.3118C6.74898 87.3118 7.25603 87.819 7.25603 88.4446C7.25603 89.1963 7.86752 89.8078 8.61926 89.8078C9.24502 89.8078 9.75207 90.3151 9.75207 90.9406C9.75207 91.5662 9.24502 92.0734 8.61926 92.0734C7.86775 92.0734 7.25603 92.6849 7.25603 93.4367C7.25603 94.0622 6.74898 94.5695 6.12322 94.5695Z" fill="#02BF7F"/>
<path d="M77.2209 7.2577C76.5951 7.2577 76.0881 6.75043 76.0881 6.12489C76.0881 5.37316 75.4766 4.76167 74.7246 4.76167C74.0988 4.76167 73.5918 4.25439 73.5918 3.62885C73.5918 3.00331 74.0988 2.49604 74.7246 2.49604C75.4763 2.49604 76.0881 1.88455 76.0881 1.13281C76.0881 0.507273 76.5951 0 77.2209 0C77.8466 0 78.3537 0.507273 78.3537 1.13281C78.3537 1.88455 78.9652 2.49604 79.7169 2.49604C80.3427 2.49604 80.8497 3.00331 80.8497 3.62885C80.8497 4.25439 80.3427 4.76167 79.7169 4.76167C78.9654 4.76167 78.3537 5.37316 78.3537 6.12489C78.3537 6.75043 77.8466 7.2577 77.2209 7.2577Z" fill="#02BF7F"/>
<path d="M29.8224 70.8705C29.1967 70.8705 28.6896 70.3632 28.6896 69.7377C28.6896 68.9859 28.0781 68.3745 27.3262 68.3745C26.7004 68.3745 26.1934 67.8672 26.1934 67.2416C26.1934 66.6161 26.7004 66.1088 27.3262 66.1088C28.0779 66.1088 28.6896 65.4973 28.6896 64.7456C28.6896 64.1201 29.1967 63.6128 29.8224 63.6128C30.4482 63.6128 30.9552 64.1201 30.9552 64.7456C30.9552 65.4973 31.5667 66.1088 32.3185 66.1088C32.9442 66.1088 33.4513 66.6161 33.4513 67.2416C33.4513 67.8672 32.9442 68.3745 32.3185 68.3745C31.567 68.3745 30.9552 68.9859 30.9552 69.7377C30.9552 70.3632 30.4482 70.8705 29.8224 70.8705Z" fill="#02BF7F"/>
<defs>
<linearGradient id="paint0_linear_361_71" x1="78.5806" y1="111.634" x2="15.5078" y2="-63.6645" gradientUnits="userSpaceOnUse">
<stop offset="0.0023" stop-color="#B4CDF4"/>
<stop offset="0.592094" stop-color="#CAEBE5"/>
</linearGradient>
</defs>
</svg>
