<svg width="116" height="116" viewBox="0 0 116 116" fill="none" xmlns="http://www.w3.org/2000/svg">
<path d="M114.556 65.0112C111.877 57.1699 105.915 51.3812 98.73 48.6529C95.0076 47.2394 92.5344 43.7012 92.4798 39.7198C92.4787 39.6328 92.4771 39.5456 92.4751 39.4583C92.1336 24.8265 79.9035 13.1023 65.2701 13.3536C56.6394 13.5017 49.0056 17.7387 44.2213 24.2105C40.1013 29.7837 33.6884 33.265 26.7579 33.2614C26.5544 33.2614 26.3507 33.2634 26.1462 33.268C12.1181 33.5745 0.189574 45.6106 0.0024336 59.6405C-0.196715 74.5782 11.8523 86.7496 26.7441 86.7496C38.2867 86.7496 48.12 79.4369 51.8667 69.1917C52.847 66.511 55.7527 65.0742 58.5011 65.8449C58.5353 65.8545 58.5697 65.8642 58.6042 65.8737C61.1188 66.5679 62.7861 68.964 62.5804 71.5647C62.3046 75.0499 62.712 78.646 63.894 82.167C68.5433 96.0179 83.6475 103.619 97.5369 99.0866C111.745 94.45 119.373 79.1075 114.556 65.0112Z" fill="url(#paint0_linear_361_162)"/>
<path opacity="0.1" d="M104.348 81.686L100.66 80.6358C100.299 79.1636 99.7175 77.7773 98.9524 76.5156L100.818 73.1645C100.976 72.8795 100.927 72.5231 100.696 72.2927L98.176 69.7724C97.9453 69.5418 97.5889 69.4924 97.3042 69.6505L93.9528 71.5163C92.6911 70.7512 91.3048 70.1698 89.8326 69.8089L88.7825 66.1213C88.693 65.8069 88.4061 65.5905 88.0792 65.5905H86.2973V9.63274C86.2973 7.75817 84.7759 6.23657 82.9011 6.23657H33.092C31.2175 6.23657 29.6959 7.75794 29.6959 9.63274V17.3547H20.2013C18.3274 17.3547 16.8047 18.8774 16.8047 20.7513V91.8933C16.8047 93.7695 18.3274 95.2899 20.2013 95.2899H70.0099C70.8115 95.2899 71.5474 95.0101 72.1288 94.545L71.7765 95.1775C71.6183 95.4623 71.6679 95.8189 71.8983 96.0494L74.4186 98.5696C74.6493 98.8003 75.0056 98.8497 75.2904 98.6915L78.6417 96.8258C79.9032 97.5909 81.2898 98.1722 82.762 98.5334L83.8121 102.221C83.9016 102.535 84.1885 102.752 84.5154 102.752H88.0792C88.4061 102.752 88.693 102.535 88.7825 102.221L89.8326 98.5334C91.3048 98.1722 92.6911 97.5911 93.9528 96.8258L97.3042 98.6915C97.5892 98.8497 97.9453 98.8 98.176 98.5696L100.696 96.0494C100.927 95.8187 100.976 95.4623 100.818 95.1775L98.9524 91.8262C99.7175 90.5647 100.299 89.1782 100.66 87.706L104.348 86.6558C104.662 86.5664 104.878 86.2795 104.878 85.9526V82.389C104.878 82.0623 104.662 81.7755 104.348 81.686ZM73.3803 92.2968C73.3959 92.1643 73.4063 92.0301 73.4063 91.8933V91.4205C73.4831 91.5568 73.5611 91.6926 73.6422 91.8262L73.3803 92.2968ZM86.2973 90.0153C83.0699 90.0153 80.4533 87.3987 80.4529 84.1716H82.9011C84.7757 84.1716 86.2973 82.6502 86.2973 80.7754V78.3265C89.5249 78.3265 92.1417 80.9433 92.1417 84.1709C92.1417 87.3985 89.5249 90.0153 86.2973 90.0153Z" fill="#242F4D"/>
<path d="M73.4066 25.5097V96.6516C73.4066 98.5278 71.8838 100.048 70.0099 100.048H20.2013C18.3274 100.048 16.8047 98.5278 16.8047 96.6516V25.5097C16.8047 23.6358 18.3274 22.113 20.2013 22.113H70.0099C71.8838 22.113 73.4066 23.6358 73.4066 25.5097Z" fill="white"/>
<path d="M67.8649 67.3257V39.251C67.8649 38.8758 67.5609 38.5718 67.1857 38.5718H23.023C22.6478 38.5718 22.3438 38.8758 22.3438 39.251V67.3253C22.3438 67.7005 22.6478 68.0045 23.023 68.0045H67.1857C67.5609 68.005 67.8649 67.7007 67.8649 67.3257Z" fill="#FFE783"/>
<path d="M73.4053 57.0208V92.6901H33.0915C31.2169 92.6901 29.6953 91.1687 29.6953 89.2939V57.0208H73.4053Z" fill="#CCEEE3"/>
<path d="M73.4063 33.0191V25.509C73.4063 23.6333 71.8859 22.1128 70.0102 22.1128H20.2009C18.3251 22.1128 16.8047 23.6333 16.8047 25.509V33.0191H73.4063Z" fill="#242F4D"/>
<path d="M86.2967 14.391V85.5337C86.2967 87.4083 84.7754 88.9299 82.9006 88.9299H33.0915C31.2169 88.9299 29.6953 87.4085 29.6953 85.5337V14.391C29.6953 12.5165 31.2167 10.9949 33.0915 10.9949H82.9008C84.7754 10.9949 86.2967 12.5165 86.2967 14.391Z" fill="#CCEEE3"/>
<path d="M29.6953 80.1658V85.5339C29.6953 87.4085 31.2167 88.9301 33.0915 88.9301H82.9008C84.7754 88.9301 86.297 87.4087 86.297 85.5339V80.1658H29.6953Z" fill="#78B5EE"/>
<path d="M42.0532 10.995H33.0915C31.2169 10.995 29.6953 12.5164 29.6953 14.3912V85.5338C29.6953 87.4084 31.2167 88.93 33.0915 88.93H42.0532V10.995Z" fill="white"/>
<path d="M86.2967 21.9011V14.391C86.2967 12.5153 84.7763 10.9949 82.9006 10.9949H33.0915C31.2158 10.9949 29.6953 12.5153 29.6953 14.391V21.9011H86.2967Z" fill="#2A8CFF"/>
<path d="M104.346 86.4442L100.659 85.3941C100.297 83.9219 99.7163 82.5355 98.951 81.2738L100.817 77.9225C100.975 77.6375 100.925 77.2813 100.695 77.0507L98.1746 74.5304C97.9439 74.2997 97.5876 74.2504 97.3028 74.4085L93.9515 76.2742C92.69 75.5091 91.3034 74.9278 89.8312 74.5666L88.7811 70.8791C88.6916 70.5646 88.4048 70.3483 88.0778 70.3483H84.514C84.1871 70.3483 83.9005 70.5646 83.8108 70.8791L82.7606 74.5666C81.2884 74.9278 79.9021 75.5089 78.6404 76.2742L75.2891 74.4085C75.004 74.2504 74.6479 74.3 74.4172 74.5304L71.897 77.0507C71.6663 77.2813 71.6167 77.6377 71.7751 77.9225L73.6408 81.2738C72.8757 82.5353 72.2943 83.9219 71.9332 85.3941L68.2457 86.4442C67.9312 86.5337 67.7148 86.8205 67.7148 87.1474V90.7112C67.7148 91.0382 67.9312 91.325 68.2457 91.4145L71.9332 92.4646C72.2943 93.9368 72.8755 95.3232 73.6408 96.5849L71.7751 99.9362C71.6169 100.221 71.6665 100.577 71.897 100.808L74.4172 103.328C74.6479 103.559 75.0043 103.609 75.2891 103.45L78.6404 101.584C79.9019 102.35 81.2884 102.931 82.7606 103.292L83.8108 106.98C83.9002 107.294 84.1871 107.51 84.514 107.51H88.0778C88.4048 107.51 88.6914 107.294 88.7811 106.98L89.8312 103.292C91.3034 102.931 92.6897 102.35 93.9515 101.584L97.3028 103.45C97.5878 103.608 97.9439 103.559 98.1746 103.328L100.695 100.808C100.926 100.577 100.975 100.221 100.817 99.9362L98.951 96.5849C99.7161 95.3234 100.297 93.9368 100.659 92.4646L104.346 91.4145C104.661 91.325 104.877 91.0382 104.877 90.7112V87.1474C104.877 86.8205 104.661 86.5337 104.346 86.4442ZM86.2959 94.7735C83.0683 94.7735 80.4515 92.1567 80.4515 88.9291C80.4515 85.7015 83.0683 83.0847 86.2959 83.0847C89.5235 83.0847 92.1403 85.7015 92.1403 88.9291C92.1403 92.1567 89.5235 94.7735 86.2959 94.7735Z" fill="#02BF7F"/>
<path d="M22.5471 13.911C21.9216 13.911 21.4143 13.4039 21.4143 12.7781C21.4143 12.0285 20.8044 11.4185 20.0547 11.4185C19.4291 11.4185 18.9219 10.9115 18.9219 10.2857C18.9219 9.65997 19.4291 9.15292 20.0547 9.15292C20.8044 9.15292 21.4143 8.54301 21.4143 7.79309C21.4143 7.16733 21.9216 6.66028 22.5471 6.66028C23.1726 6.66028 23.6799 7.16733 23.6799 7.79309C23.6799 8.54301 24.2898 9.15292 25.0395 9.15292C25.6651 9.15292 26.1723 9.65997 26.1723 10.2857C26.1723 10.9115 25.6651 11.4185 25.0395 11.4185C24.2898 11.4185 23.6799 12.0285 23.6799 12.7781C23.6799 13.4039 23.1726 13.911 22.5471 13.911Z" fill="#02BF7F"/>
<path d="M93.3013 25.7401H102.561C103.202 25.7401 103.722 25.2203 103.722 24.5794C103.722 23.9384 103.202 23.4187 102.561 23.4187H93.3013C92.6601 23.4187 92.1406 23.9384 92.1406 24.5794C92.1406 25.2203 92.6604 25.7401 93.3013 25.7401Z" fill="#02BF7F"/>
<path d="M93.3013 29.8187H97.8029C98.444 29.8187 98.9636 29.2989 98.9636 28.658C98.9636 28.0171 98.444 27.4973 97.8029 27.4973H93.3013C92.6601 27.4973 92.1406 28.0171 92.1406 28.658C92.1406 29.2989 92.6604 29.8187 93.3013 29.8187Z" fill="#242F4D"/>
<path d="M93.3013 33.897H97.8029C98.444 33.897 98.9636 33.3773 98.9636 32.7364C98.9636 32.0954 98.444 31.5757 97.8029 31.5757H93.3013C92.6601 31.5757 92.1406 32.0954 92.1406 32.7364C92.1406 33.3773 92.6604 33.897 93.3013 33.897Z" fill="#242F4D"/>
<path d="M93.3013 42.0544H102.561C103.202 42.0544 103.722 41.5347 103.722 40.8937C103.722 40.2528 103.202 39.733 102.561 39.733H93.3013C92.6601 39.733 92.1406 40.2528 92.1406 40.8937C92.1406 41.5347 92.6604 42.0544 93.3013 42.0544Z" fill="#02BF7F"/>
<path d="M93.3013 46.1331H97.8029C98.444 46.1331 98.9636 45.6134 98.9636 44.9724C98.9636 44.3315 98.444 43.8118 97.8029 43.8118H93.3013C92.6601 43.8118 92.1406 44.3315 92.1406 44.9724C92.1406 45.6132 92.6604 46.1331 93.3013 46.1331Z" fill="#242F4D"/>
<path d="M93.3013 50.2115H97.8029C98.444 50.2115 98.9636 49.6918 98.9636 49.0508C98.9636 48.4099 98.444 47.8901 97.8029 47.8901H93.3013C92.6601 47.8901 92.1406 48.4099 92.1406 49.0508C92.1406 49.6918 92.6604 50.2115 93.3013 50.2115Z" fill="#242F4D"/>
<path d="M102.563 35.6544H98.0611C97.4199 35.6544 96.9004 36.1742 96.9004 36.8151C96.9004 37.456 97.4199 37.9758 98.0611 37.9758H102.563C103.204 37.9758 103.723 37.456 103.723 36.8151C103.723 36.1742 103.204 35.6544 102.563 35.6544Z" fill="#242F4D"/>
<path d="M93.3013 58.3688H102.561C103.202 58.3688 103.722 57.8491 103.722 57.2082C103.722 56.5672 103.202 56.0475 102.561 56.0475H93.3013C92.6601 56.0475 92.1406 56.5672 92.1406 57.2082C92.1406 57.8491 92.6604 58.3688 93.3013 58.3688Z" fill="#02BF7F"/>
<path d="M93.3013 62.4475H97.8029C98.444 62.4475 98.9636 61.9277 98.9636 61.2868C98.9636 60.6458 98.444 60.1261 97.8029 60.1261H93.3013C92.6601 60.1261 92.1406 60.6458 92.1406 61.2868C92.1406 61.9277 92.6604 62.4475 93.3013 62.4475Z" fill="#242F4D"/>
<path d="M93.3013 66.5261H97.8029C98.444 66.5261 98.9636 66.0063 98.9636 65.3654C98.9636 64.7244 98.444 64.2047 97.8029 64.2047H93.3013C92.6601 64.2047 92.1406 64.7244 92.1406 65.3654C92.1406 66.0066 92.6604 66.5261 93.3013 66.5261Z" fill="#242F4D"/>
<path d="M102.563 51.9689H98.0611C97.4199 51.9689 96.9004 52.4886 96.9004 53.1296C96.9004 53.7705 97.4199 54.2902 98.0611 54.2902H102.563C103.204 54.2902 103.723 53.7705 103.723 53.1296C103.723 52.4886 103.204 51.9689 102.563 51.9689Z" fill="#242F4D"/>
<path d="M55.2862 29.9158C55.0767 29.0501 54.3084 28.4457 53.4178 28.4457H52.3094C51.4188 28.4457 50.6505 29.0501 50.441 29.9158L48.1316 39.4591C47.9846 40.0672 48.3582 40.6794 48.9663 40.8266C49.5741 40.9741 50.1868 40.6001 50.3338 39.992L51.3517 35.7849H54.3745L55.3925 39.992C55.518 40.5106 55.9818 40.8588 56.4929 40.8588C56.581 40.8588 56.6708 40.8484 56.7602 40.8266C57.3683 40.6796 57.7422 40.0672 57.5951 39.4591L55.2862 29.9158ZM51.9007 33.5191L52.5802 30.7115H53.1477L53.8272 33.5191H51.9007Z" fill="#242F4D"/>
<path d="M64.634 28.4449H60.635C60.0092 28.4449 59.502 28.9522 59.502 29.578V39.7248C59.502 40.3506 60.0092 40.8579 60.635 40.8579C61.2608 40.8579 61.768 40.3506 61.768 39.7248V36.4118H64.634C65.6939 36.4118 66.5562 35.5495 66.5562 34.4896V30.3673C66.556 29.3072 65.6939 28.4449 64.634 28.4449ZM64.2901 34.1459H61.7678V30.7108H64.2901V34.1459Z" fill="#242F4D"/>
<path d="M71.7164 38.6588V30.6437C72.1593 30.4899 72.4795 30.0732 72.4795 29.5777C72.4795 28.952 71.9722 28.4447 71.3464 28.4447H69.8205C69.1948 28.4447 68.6875 28.952 68.6875 29.5777C68.6875 30.0732 69.0074 30.4899 69.4506 30.6437V38.6588C69.0076 38.8127 68.6875 39.2293 68.6875 39.7248C68.6875 40.3506 69.1948 40.8578 69.8205 40.8578H71.3464C71.9722 40.8578 72.4795 40.3506 72.4795 39.7248C72.4795 39.2293 72.1593 38.8127 71.7164 38.6588Z" fill="#242F4D"/>
<path d="M76.1077 40.8823C75.4819 40.8823 74.9746 40.375 74.9746 39.7493V39.7164C74.9746 39.0906 75.4819 38.5834 76.1077 38.5834C76.7334 38.5834 77.2407 39.0906 77.2407 39.7164V39.7493C77.2407 40.375 76.7334 40.8823 76.1077 40.8823Z" fill="#242F4D"/>
<path d="M52.3786 50.109H48.8141C48.2216 50.109 47.6924 50.5422 47.6362 51.1319C47.5716 51.8087 48.102 52.378 48.7654 52.378H52.3786C53.0053 52.378 53.5132 51.8701 53.5132 51.2434C53.5132 50.617 53.0053 50.109 52.3786 50.109Z" fill="#242F4D"/>
<path d="M66.0702 50.109H57.5936C56.9669 50.109 56.459 50.617 56.459 51.2436C56.459 51.8703 56.9669 52.3783 57.5936 52.3783H66.1189C66.7823 52.3783 67.3127 51.8089 67.2481 51.1322C67.1919 50.5422 66.6627 50.109 66.0702 50.109Z" fill="#02BF7F"/>
<path d="M60.5358 54.8591H48.8141C48.2216 54.8591 47.6924 55.2923 47.6362 55.8821C47.5716 56.5588 48.102 57.1282 48.7654 57.1282H60.5358C61.1624 57.1282 61.6704 56.6202 61.6704 55.9935C61.6704 55.3671 61.1624 54.8591 60.5358 54.8591Z" fill="#242F4D"/>
<path d="M72.8671 54.8591H65.7499C65.1232 54.8591 64.6152 55.3671 64.6152 55.9938C64.6152 56.6204 65.1232 57.1284 65.7499 57.1284H72.9158C73.5794 57.1284 74.1096 56.5588 74.045 55.8823C73.9888 55.2923 73.4598 54.8591 72.8671 54.8591Z" fill="#02BF7F"/>
<path d="M57.1369 59.6095H48.8141C48.2216 59.6095 47.6924 60.0427 47.6362 60.6324C47.5716 61.3092 48.102 61.8785 48.7654 61.8785H57.1371C57.7638 61.8785 58.2717 61.3706 58.2717 60.7439C58.2715 60.1175 57.7635 59.6095 57.1369 59.6095Z" fill="#242F4D"/>
<path d="M66.0698 59.6095H62.3514C61.7248 59.6095 61.2168 60.1175 61.2168 60.7441C61.2168 61.3708 61.7248 61.8788 62.3514 61.8788H66.1185C66.7819 61.8788 67.3123 61.3094 67.2477 60.6327C67.1915 60.0427 66.6622 59.6095 66.0698 59.6095Z" fill="#02BF7F"/>
<path d="M72.8678 64.3596H58.953C58.3263 64.3596 57.8184 64.8676 57.8184 65.4942C57.8184 66.1209 58.3263 66.6289 58.953 66.6289H72.9165C73.5799 66.6289 74.1102 66.0595 74.0457 65.3828C73.9893 64.7928 73.4602 64.3596 72.8678 64.3596Z" fill="#02BF7F"/>
<path d="M53.7382 64.3596H48.8141C48.2216 64.3596 47.6924 64.7928 47.6362 65.3825C47.5716 66.0593 48.102 66.6286 48.7654 66.6286H53.7382C54.3649 66.6286 54.8728 66.1207 54.8728 65.494C54.8726 64.8676 54.3646 64.3596 53.7382 64.3596Z" fill="#242F4D"/>
<path d="M104.657 85.3546L101.587 84.4805C101.262 83.3618 100.816 82.2842 100.254 81.2636L101.808 78.4728C102.21 77.7491 102.081 76.835 101.496 76.25L98.976 73.7297C98.391 73.1445 97.4768 73.0165 96.7518 73.4189L93.9619 74.9719C92.941 74.4101 91.8635 73.9635 90.7452 73.6386L89.8709 70.5685C89.6439 69.7717 88.9066 69.2152 88.0781 69.2152H87.429V14.3909C87.429 11.8938 85.3974 9.86218 82.9 9.86218H33.0911C30.594 9.86218 28.5621 11.8938 28.5621 14.3909V20.9798H20.2006C17.7035 20.9798 15.6719 23.0114 15.6719 25.5086V33.018C15.6719 33.6438 16.1791 34.1519 16.8047 34.1519H28.5624V85.5329C28.5624 88.0301 30.594 90.0617 33.0914 90.0617H61.4792C62.1047 90.0617 62.612 89.5546 62.612 88.9289C62.612 88.3031 62.1047 87.7961 61.4792 87.7961H33.0911C31.8432 87.7961 30.8278 86.7808 30.8278 85.5329V23.0341H85.1636V69.2152H84.5145C83.6859 69.2152 82.9489 69.7716 82.7217 70.5687L81.8476 73.6386C80.7293 73.9635 79.6518 74.4098 78.6309 74.9719L75.8398 73.4182C75.1162 73.0165 74.2018 73.1445 73.617 73.7297L71.097 76.2498C70.5116 76.835 70.3835 77.7489 70.7859 78.4735L72.339 81.2634C71.7771 82.2843 71.3306 83.3618 71.0059 84.4803L67.9358 85.3544C67.1392 85.5814 66.5827 86.3186 66.5827 87.1472V90.7108C66.5827 91.5391 67.1392 92.2763 67.9362 92.5033L71.0061 93.3774C71.3308 94.4962 71.7774 95.5735 72.3392 96.5944L71.2574 98.5378C70.8874 98.7832 70.4594 98.9139 70.0102 98.9139H20.2006C18.9527 98.9139 17.9375 97.8987 17.9375 96.6506V39.2596C17.9375 38.6338 17.4302 38.1268 16.8047 38.1268C16.1791 38.1268 15.6719 38.6338 15.6719 39.2596V96.6508C15.6719 99.148 17.7035 101.18 20.2006 101.18H70.0099C70.2594 101.18 70.5057 101.16 70.7472 101.12C70.8349 101.298 70.9515 101.463 71.0968 101.609L73.617 104.129C74.2025 104.714 75.1162 104.842 75.841 104.44L78.6309 102.887C79.6515 103.448 80.7291 103.895 81.8476 104.22L82.7219 107.29C82.9489 108.087 83.6862 108.643 84.5147 108.643H88.0783C88.9068 108.643 89.6439 108.087 89.8711 107.29L90.7452 104.22C91.8639 103.895 92.9412 103.449 93.9619 102.887L96.7529 104.44C97.4763 104.842 98.3905 104.714 98.9757 104.129L101.496 101.609C102.081 101.023 102.209 100.11 101.807 99.385L100.254 96.5951C100.815 95.5744 101.262 94.4967 101.587 93.3781L104.657 92.504C105.454 92.277 106.01 91.5398 106.01 90.7115V87.1479C106.01 86.3189 105.454 85.5816 104.657 85.3546ZM28.5621 31.8863H17.9375V25.5088C17.9375 24.2609 18.9527 23.2457 20.2006 23.2457H28.5621V31.8863ZM30.8278 20.7684V14.3909C30.8278 13.143 31.843 12.1278 33.0911 12.1278H82.9004C84.1483 12.1278 85.1638 13.143 85.1638 14.3909V20.7682L30.8278 20.7684ZM103.745 90.4079L100.349 91.3751C99.9574 91.4865 99.6559 91.7994 99.5589 92.1945C99.2297 93.5362 98.6996 94.8156 97.9829 95.9972C97.7718 96.3452 97.7638 96.7799 97.9619 97.1354L99.6799 100.221L97.5887 102.312L94.5029 100.594C94.1472 100.397 93.7125 100.404 93.3645 100.616C92.1829 101.332 90.9035 101.862 89.5618 102.191C89.1665 102.289 88.8536 102.59 88.7421 102.981L87.7752 106.377H84.8176L83.8506 102.982C83.7392 102.59 83.4261 102.289 83.031 102.192C81.6895 101.863 80.4101 101.332 79.2283 100.616C78.8801 100.405 78.4458 100.397 78.0898 100.595L75.0041 102.312L72.9131 100.221L74.6311 97.1357C74.8292 96.7802 74.821 96.3454 74.6101 95.9974C73.8932 94.8156 73.3631 93.5362 73.0341 92.1948C72.9371 91.7996 72.6356 91.4868 72.2441 91.3753L68.8484 90.4081V87.4508L72.2441 86.4836C72.6356 86.3721 72.9371 86.0592 73.0341 85.6641C73.3631 84.3226 73.8932 83.0432 74.6101 81.8615C74.8212 81.5135 74.8292 81.0787 74.6311 80.7232L72.9133 77.6375L75.0045 75.5465L78.0901 77.2643C78.4455 77.4623 78.8803 77.4544 79.2285 77.2432C80.4105 76.5264 81.6899 75.996 83.0312 75.6673C83.4265 75.5701 83.7394 75.2685 83.8509 74.8772L84.8178 71.4815H87.7754L88.7424 74.8772C88.8538 75.2687 89.1667 75.5703 89.5621 75.6673C90.9033 75.9962 92.1827 76.5264 93.3647 77.2432C93.7129 77.4544 94.1477 77.4623 94.5032 77.2643L97.5887 75.5465L99.6799 77.6375L97.9621 80.7232C97.7641 81.0787 97.7722 81.5135 97.9832 81.8615C98.6998 83.043 99.2299 84.3224 99.5591 85.6641C99.6561 86.0592 99.9577 86.3721 100.349 86.4836L103.745 87.4508L103.745 90.4079Z" fill="#242F4D"/>
<path d="M86.2956 81.9518C82.4483 81.9518 79.3184 85.0817 79.3184 88.929C79.3184 92.7763 82.4483 95.9062 86.2956 95.9062C90.1428 95.9062 93.2728 92.7763 93.2728 88.929C93.2728 85.0817 90.1428 81.9518 86.2956 81.9518ZM85.1628 84.3608V85.5331C85.1628 86.781 84.1475 87.7962 82.8994 87.7962H81.7274C82.1465 86.1083 83.4749 84.78 85.1628 84.3608ZM86.2956 93.6406C84.0889 93.6406 82.2367 92.1133 81.7274 90.0618H82.8994C85.3966 90.0618 87.4284 88.0302 87.4284 85.5331V84.3608C89.4799 84.8701 91.0072 86.7221 91.0072 88.929C91.0072 91.527 88.8936 93.6406 86.2956 93.6406Z" fill="#242F4D"/>
<path d="M25.4258 28.7151C26.0513 28.7151 26.5586 28.2081 26.5586 27.5823V27.5494C26.5586 26.9237 26.0513 26.4166 25.4258 26.4166C24.8002 26.4166 24.293 26.9237 24.293 27.5494V27.5823C24.293 28.2081 24.8002 28.7151 25.4258 28.7151Z" fill="#242F4D"/>
<path d="M38.3164 15.2988C37.6909 15.2988 37.1836 15.8059 37.1836 16.4316V16.4645C37.1836 17.0903 37.6909 17.5973 38.3164 17.5973C38.9419 17.5973 39.4492 17.0903 39.4492 16.4645V16.4316C39.4492 15.8059 38.9419 15.2988 38.3164 15.2988Z" fill="#242F4D"/>
<path d="M42.6934 15.2988C42.0678 15.2988 41.5605 15.8059 41.5605 16.4316V16.4645C41.5605 17.0903 42.0678 17.5973 42.6934 17.5973C43.3189 17.5973 43.8262 17.0903 43.8262 16.4645V16.4316C43.8262 15.8059 43.3189 15.2988 42.6934 15.2988Z" fill="#242F4D"/>
<path d="M47.0684 15.2988C46.4428 15.2988 45.9355 15.8059 45.9355 16.4316V16.4645C45.9355 17.0903 46.4428 17.5973 47.0684 17.5973C47.6939 17.5973 48.2012 17.0903 48.2012 16.4645V16.4316C48.2012 15.8059 47.6939 15.2988 47.0684 15.2988Z" fill="#242F4D"/>
<path d="M37.0063 51.2271C37.0063 50.6013 36.499 50.0942 35.8733 50.0942C35.2475 50.0942 34.7402 50.6015 34.7402 51.2271V51.2599C34.7402 51.8857 35.2475 52.3929 35.8733 52.3929C36.499 52.3929 37.0063 51.8857 37.0063 51.2599V51.2271Z" fill="#242F4D"/>
<path d="M35.8733 64.3448C35.2475 64.3448 34.7402 64.8521 34.7402 65.4779V65.5107C34.7402 66.1365 35.2475 66.6435 35.8733 66.6435C36.499 66.6435 37.0063 66.1363 37.0063 65.5107V65.4779C37.0061 64.8521 36.4988 64.3448 35.8733 64.3448Z" fill="#242F4D"/>
<path d="M96.8995 17.11C96.6095 17.11 96.3197 16.9995 96.0984 16.7781L93.6071 14.2871C93.3946 14.0745 93.2754 13.7866 93.2754 13.4862C93.2754 13.1857 93.3948 12.8975 93.6071 12.6853L96.0984 10.194C96.3109 9.98146 96.5988 9.86206 96.8995 9.86206C97.1999 9.86206 97.4881 9.98146 97.7006 10.194L100.192 12.6853C100.634 13.1275 100.634 13.8448 100.192 14.2871L97.7006 16.7781C97.4793 16.9995 97.1895 17.11 96.8995 17.11ZM96.0102 13.4862L96.8993 14.3752L97.7883 13.4862L96.8993 12.5969L96.0102 13.4862Z" fill="#02BF7F"/>
<path d="M106.219 73.9772C105.593 73.9772 105.086 73.4701 105.086 72.8444C105.086 72.0926 104.474 71.4809 103.723 71.4809C103.097 71.4809 102.59 70.9739 102.59 70.3481C102.59 69.7223 103.097 69.2153 103.723 69.2153C104.474 69.2153 105.086 68.6038 105.086 67.8521C105.086 67.2263 105.593 66.7192 106.219 66.7192C106.844 66.7192 107.352 67.2263 107.352 67.8521C107.352 68.6036 107.963 69.2153 108.715 69.2153C109.34 69.2153 109.848 69.7223 109.848 70.3481C109.848 70.9739 109.34 71.4809 108.715 71.4809C107.963 71.4809 107.352 72.0924 107.352 72.8444C107.352 73.4701 106.844 73.9772 106.219 73.9772Z" fill="#2A8CFF"/>
<path d="M9.7812 38.2801C9.15566 38.2801 8.64838 37.7731 8.64838 37.1473C8.64838 36.3958 8.03689 35.7841 7.28516 35.7841C6.65962 35.7841 6.15234 35.2771 6.15234 34.6513C6.15234 34.0255 6.65962 33.5185 7.28516 33.5185C8.03689 33.5185 8.64838 32.907 8.64838 32.155C8.64838 31.5293 9.15566 31.0222 9.7812 31.0222C10.4067 31.0222 10.914 31.5293 10.914 32.155C10.914 32.9068 11.5255 33.5185 12.2772 33.5185C12.9028 33.5185 13.41 34.0255 13.41 34.6513C13.41 35.2771 12.9028 35.7841 12.2772 35.7841C11.5255 35.7841 10.914 36.3956 10.914 37.1473C10.914 37.7729 10.407 38.2801 9.7812 38.2801Z" fill="#2A8CFF"/>
<defs>
<linearGradient id="paint0_linear_361_162" x1="-1.50602" y1="36.0141" x2="123.618" y2="72.8151" gradientUnits="userSpaceOnUse">
<stop stop-color="#CBECE5"/>
<stop offset="1" stop-color="#B4CDF4"/>
</linearGradient>
</defs>
</svg>
