<svg width="93" height="93" viewBox="0 0 93 93" fill="none" xmlns="http://www.w3.org/2000/svg">
<path d="M56.3221 16.2301C52.4295 6.66327 43.0131 -0.067245 32.032 0.000506907C18.0231 0.0867862 6.50493 11.3865 6.16509 25.3913C5.99743 32.3009 8.52242 38.6186 12.7648 43.3707C16.1468 47.159 17.844 52.1484 17.6729 57.224C17.6502 57.8986 17.6468 58.5782 17.6635 59.262C18.111 77.6804 33.8453 93.011 52.2691 93C71.3655 92.9885 86.8426 77.5042 86.8426 58.4052C86.8426 44.4055 78.5264 32.3492 66.5648 26.9046C61.9026 24.7825 58.2525 20.9745 56.3221 16.2301Z" fill="url(#paint0_linear_223_84)"/>
<path opacity="0.1" d="M82.8281 16.0417V62.2239C82.8281 63.7279 81.6075 64.9485 80.1035 64.9485H12.8965C11.3925 64.9485 10.1719 63.7279 10.1719 62.2239V16.0417C10.1719 14.5378 11.3925 13.3171 12.8965 13.3171H80.1035C81.6075 13.3171 82.8281 14.5378 82.8281 16.0417Z" fill="#243C70"/>
<path d="M66.9095 10.8189C66.6686 10.8189 66.4376 10.7231 66.2674 10.5529L64.2661 8.55162C63.9113 8.19687 63.9113 7.6218 64.2661 7.26724L66.2674 5.26592C66.4378 5.09554 66.6686 5 66.9095 5C67.1503 5 67.3814 5.09572 67.5516 5.26592L69.5531 7.26724C69.7234 7.43762 69.8192 7.66848 69.8192 7.90952C69.8192 8.15056 69.7236 8.38142 69.5531 8.5518L67.5516 10.5531C67.3814 10.7231 67.1503 10.8189 66.9095 10.8189ZM66.1927 7.90934L66.9095 8.62627L67.6264 7.90934L66.9095 7.1924L66.1927 7.90934Z" fill="#02BF7F"/>
<path d="M69.3958 79.2825C69.1549 79.2825 68.9239 79.1868 68.7537 79.0166L66.7524 77.0153C66.3976 76.6605 66.3976 76.0854 66.7524 75.7309L68.7537 73.7295C69.1081 73.375 69.6832 73.375 70.0379 73.7295L72.0394 75.7309C72.2098 75.9012 72.3055 76.1321 72.3055 76.3732C72.3055 76.6142 72.21 76.8451 72.0394 77.0154L70.0379 79.0168C69.8675 79.1868 69.6367 79.2825 69.3958 79.2825ZM68.679 76.373L69.3958 77.0899L70.1127 76.373L69.3958 75.656L68.679 76.373Z" fill="#1E80F3"/>
<path d="M19.3785 86.686C18.8768 86.686 18.4702 86.2793 18.4702 85.7778C18.4702 85.1751 17.9798 84.6847 17.377 84.6847C16.8753 84.6847 16.4688 84.278 16.4688 83.7765C16.4688 83.2749 16.8753 82.8683 17.377 82.8683C17.9796 82.8683 18.4702 82.3778 18.4702 81.7751C18.4702 81.2736 18.8768 80.8669 19.3785 80.8669C19.8801 80.8669 20.2867 81.2736 20.2867 81.7751C20.2867 82.3778 20.7769 82.8683 21.3798 82.8683C21.8815 82.8683 22.288 83.2749 22.288 83.7765C22.288 84.278 21.8815 84.6847 21.3798 84.6847C20.7771 84.6847 20.2867 85.1751 20.2867 85.7778C20.2867 86.2793 19.88 86.686 19.3785 86.686Z" fill="#02BF7F"/>
<path d="M27.2484 78.2582C26.7467 78.2582 26.3402 77.8516 26.3402 77.35C26.3402 76.7474 25.8499 76.2569 25.2471 76.2569C24.7454 76.2569 24.3389 75.8502 24.3389 75.3487C24.3389 74.8472 24.7454 74.4405 25.2471 74.4405C25.8498 74.4405 26.3402 73.9501 26.3402 73.3474C26.3402 72.8459 26.7467 72.4392 27.2484 72.4392C27.7501 72.4392 28.1566 72.8459 28.1566 73.3474C28.1566 73.9501 28.647 74.4405 29.2499 74.4405C29.7516 74.4405 30.1581 74.8472 30.1581 75.3487C30.1581 75.8502 29.7516 76.2569 29.2499 76.2569C28.6472 76.2569 28.1566 76.7474 28.1566 77.35C28.1566 77.8517 27.7499 78.2582 27.2484 78.2582Z" fill="#1E80F3"/>
<path d="M56.8011 81.9696H36.1992L38.8842 71.3249L40.3192 65.6394H52.6811L54.1161 71.3249L56.8011 81.9696Z" fill="#78B5EE"/>
<path d="M54.1156 71.3249H38.8838L40.3187 65.6394H52.6807L54.1156 71.3249Z" fill="#529FFA"/>
<path d="M56.8013 82.8766H36.1981C35.918 82.8766 35.6538 82.7475 35.4817 82.5266C35.3097 82.3057 35.2491 82.0178 35.3177 81.7463L38.5604 68.8963C38.6832 68.4098 39.1769 68.1156 39.6631 68.2378C40.1494 68.3606 40.4442 68.8543 40.3214 69.3406L37.3641 81.0602H55.6357L52.6521 69.2359C52.5293 68.7497 52.8241 68.2558 53.3103 68.1332C53.7973 68.0108 54.2905 68.3052 54.4131 68.7916L57.6819 81.7463C57.7505 82.0178 57.6899 82.3057 57.5179 82.5266C57.3458 82.7475 57.0814 82.8766 56.8013 82.8766Z" fill="#243C70"/>
<path d="M82.8281 19.8562V66.0383C82.8281 67.5423 81.6075 68.7629 80.1035 68.7629H12.8965C11.3925 68.7629 10.1719 67.5423 10.1719 66.0383V19.8562C10.1719 18.3522 11.3925 17.1316 12.8965 17.1316H80.1035C81.6075 17.1316 82.8281 18.3522 82.8281 19.8562Z" fill="white"/>
<path d="M80.1035 17.1316H64.4824V68.7629H80.1035C81.6075 68.7629 82.8281 67.5423 82.8281 66.0383V19.8562C82.8281 18.3522 81.6075 17.1316 80.1035 17.1316Z" fill="#CCEEE3"/>
<path d="M82.8281 25.8821V19.8569C82.8281 18.3522 81.6082 17.1323 80.1035 17.1323H12.8965C11.3918 17.1323 10.1719 18.3522 10.1719 19.8569V25.8821H82.8281Z" fill="#1E80F3"/>
<path d="M82.8281 26.7903H10.1719C9.67018 26.7903 9.26367 26.3836 9.26367 25.8821C9.26367 25.3806 9.67018 24.9739 10.1719 24.9739H82.8281C83.3298 24.9739 83.7363 25.3806 83.7363 25.8821C83.7363 26.3836 83.3298 26.7903 82.8281 26.7903Z" fill="#243C70"/>
<path d="M10.1719 59.6104V66.0386C10.1719 67.5433 11.3918 68.7632 12.8965 68.7632H80.1035C81.6082 68.7632 82.8281 67.5433 82.8281 66.0386V59.6104H10.1719Z" fill="#78B5EE"/>
<path d="M82.7275 60.5188H15.9766C15.4749 60.5188 15.0684 60.1121 15.0684 59.6106C15.0684 59.1091 15.4749 58.7024 15.9766 58.7024H82.7273C83.229 58.7024 83.6355 59.1091 83.6355 59.6106C83.6357 60.1121 83.2292 60.5188 82.7275 60.5188Z" fill="#243C70"/>
<path d="M60.2924 82.8767H32.707C32.2053 82.8767 31.7988 82.47 31.7988 81.9685C31.7988 81.467 32.2053 81.0603 32.707 81.0603H60.2923C60.794 81.0603 61.2005 81.467 61.2005 81.9685C61.2005 82.47 60.794 82.8767 60.2924 82.8767Z" fill="#243C70"/>
<path d="M17.0889 22.4289C16.5872 22.4289 16.1807 22.0222 16.1807 21.5207V21.4941C16.1807 20.9926 16.5872 20.5859 17.0889 20.5859C17.5906 20.5859 17.9971 20.9926 17.9971 21.4941V21.5207C17.9971 22.0222 17.5906 22.4289 17.0889 22.4289Z" fill="#243C70"/>
<path d="M20.5996 22.4289C20.0979 22.4289 19.6914 22.0222 19.6914 21.5207V21.4941C19.6914 20.9926 20.0979 20.5859 20.5996 20.5859C21.1013 20.5859 21.5078 20.9926 21.5078 21.4941V21.5207C21.5078 22.0222 21.1013 22.4289 20.5996 22.4289Z" fill="#243C70"/>
<path d="M24.1094 22.4289C23.6077 22.4289 23.2012 22.0222 23.2012 21.5207V21.4941C23.2012 20.9926 23.6077 20.5859 24.1094 20.5859C24.6111 20.5859 25.0176 20.9926 25.0176 21.4941V21.5207C25.0176 22.0222 24.6111 22.4289 24.1094 22.4289Z" fill="#243C70"/>
<path d="M80.1035 69.6713H12.8965C10.8934 69.6713 9.26367 68.0416 9.26367 66.0385V19.8569C9.26367 17.8538 10.8934 16.2241 12.8965 16.2241H80.1035C82.1067 16.2241 83.7363 17.8538 83.7363 19.8569V25.8821C83.7363 26.3836 83.3298 26.7903 82.8281 26.7903C82.3264 26.7903 81.9199 26.3836 81.9199 25.8821V19.8569C81.9199 18.8554 81.1051 18.0405 80.1035 18.0405H12.8965C11.8949 18.0405 11.0801 18.8554 11.0801 19.8569V66.0387C11.0801 67.0403 11.8949 67.8551 12.8965 67.8551H80.1035C81.1051 67.8551 81.9199 67.0403 81.9199 66.0387V30.8847C81.9199 30.3832 82.3264 29.9765 82.8281 29.9765C83.3298 29.9765 83.7363 30.3832 83.7363 30.8847V66.0387C83.7363 68.0416 82.1067 69.6713 80.1035 69.6713Z" fill="#243C70"/>
<circle cx="47" cy="16" r="14" fill="#F5CA2A"/>
<path d="M57.7341 5.48474C54.8035 2.59269 50.9221 1 46.805 1C42.6879 1 38.8065 2.59269 35.8758 5.48474C32.9451 8.37672 31.3311 12.2069 31.3311 16.2696C31.3311 20.3324 32.9451 24.1625 35.8758 27.0545C38.8065 29.9465 42.6879 31.5392 46.805 31.5392C50.9221 31.5392 54.8035 29.9465 57.7341 27.0545C60.6649 24.1625 62.2789 20.3324 62.2789 16.2696C62.2789 12.2069 60.6649 8.37672 57.7341 5.48474ZM46.805 29.7498C39.2725 29.7498 33.1444 23.7026 33.1444 16.2696C33.1444 8.8366 39.2725 2.78941 46.805 2.78941C54.3374 2.78941 60.4655 8.8366 60.4655 16.2696C60.4655 23.7026 54.3374 29.7498 46.805 29.7498Z" fill="#243C70"/>
<path d="M46.5 6C40.7103 6 36 10.7103 36 16.5C36 22.2897 40.7103 27 46.5 27C52.2897 27 57 22.2897 57 16.5C57 10.7103 52.2897 6 46.5 6Z" fill="white"/>
<path d="M49.3444 11.1565L49.3444 11.1565C50.1425 11.7472 50.5667 12.5593 50.5667 13.3683C50.5667 13.58 50.3909 13.763 50.1601 13.763C49.9292 13.763 49.7534 13.58 49.7534 13.3683C49.7534 12.8093 49.4707 12.3263 49.0751 11.966C48.6794 11.6056 48.1459 11.3415 47.5573 11.1995L46.94 11.0506V11.6855V15.2291V15.6562L47.3619 15.7229C48.1132 15.8418 48.7971 16.1197 49.3444 16.5247L49.3444 16.5247C50.1425 17.1154 50.5667 17.9275 50.5667 18.7365C50.5667 19.5455 50.1425 20.3576 49.3444 20.9483L49.3443 20.9484C48.7972 21.3534 48.1133 21.6312 47.3619 21.7501L46.94 21.8168V22.2439V23.2191C46.94 23.4308 46.7642 23.6138 46.5334 23.6138C46.3025 23.6138 46.1267 23.4308 46.1267 23.2191V22.2439V21.8168L45.7048 21.7501C44.9535 21.6312 44.2696 21.3534 43.7224 20.9483C42.9242 20.3576 42.5 19.5455 42.5 18.7365C42.5 18.5248 42.6758 18.3418 42.9067 18.3418C43.1375 18.3418 43.3133 18.5248 43.3133 18.7365C43.3133 19.2955 43.596 19.7785 43.9917 20.1389C44.3874 20.4992 44.9208 20.7634 45.5095 20.9053L46.1267 21.0542V20.4193V16.8757V16.4486L45.7048 16.3819C44.9535 16.263 44.2696 15.9851 43.7224 15.5801C42.9242 14.9894 42.5 14.1773 42.5 13.3683C42.5 12.5593 42.9242 11.7472 43.7224 11.1565L43.7224 11.1564C44.2696 10.7514 44.9534 10.4736 45.7048 10.3547L46.1267 10.288V9.86087V8.8947C46.1267 8.68298 46.3025 8.5 46.5334 8.5C46.7642 8.5 46.94 8.68298 46.94 8.8947V9.86087V10.288L47.3619 10.3547C48.1132 10.4736 48.7971 10.7514 49.3444 11.1565ZM46.1267 11.6855V11.0506L45.5095 11.1995C44.9208 11.3414 44.3874 11.6056 43.9917 11.9659C43.596 12.3263 43.3133 12.8093 43.3133 13.3683C43.3133 13.9272 43.596 14.4103 43.9917 14.7706C44.3874 15.131 44.9208 15.3951 45.5095 15.5371L46.1267 15.6859V15.051V11.6855ZM46.94 20.4193V21.0542L47.5573 20.9053C48.1459 20.7634 48.6794 20.4992 49.0751 20.1389C49.4707 19.7785 49.7534 19.2955 49.7534 18.7365C49.7534 18.1775 49.4707 17.6945 49.0751 17.3342C48.6794 16.9739 48.1459 16.7097 47.5573 16.5677L46.94 16.4189V17.0538V20.4193Z" stroke="#243C70"/>
<path d="M27.6433 37.3333H65.63C67.4567 37.3333 67.4567 40.3333 65.63 40.3333H27.6433C25.4521 40.3333 25.4523 37.3333 27.6433 37.3333Z" stroke="#243C70" stroke-width="1.8"/>
<path fill-rule="evenodd" clip-rule="evenodd" d="M37.6602 30.2893C38.3505 30.2893 38.9102 30.849 38.9102 31.5393L38.9102 34.3156C38.9102 35.006 38.3505 35.5656 37.6602 35.5656C36.9698 35.5656 36.4102 35.006 36.4102 34.3156V31.5393C36.4102 30.849 36.9698 30.2893 37.6602 30.2893ZM42.5837 31.6774C43.274 31.6774 43.8337 32.2371 43.8337 32.9274L43.8337 34.3156C43.8337 35.0059 43.274 35.5656 42.5837 35.5656C41.8933 35.5656 41.3337 35.0059 41.3337 34.3156L41.3337 32.9274C41.3337 32.2371 41.8933 31.6774 42.5837 31.6774ZM52.2734 32.9274C52.2734 32.2371 51.7138 31.6774 51.0234 31.6774C50.3331 31.6774 49.7734 32.2371 49.7734 32.9274V34.3156C49.7734 35.0059 50.3331 35.5656 51.0234 35.5656C51.7138 35.5656 52.2734 35.0059 52.2734 34.3156V32.9274ZM46.8041 32.3715C47.4945 32.3715 48.0541 32.9311 48.0541 33.6215V34.3156C48.0541 35.0059 47.4945 35.5656 46.8041 35.5656C46.1138 35.5656 45.5541 35.0059 45.5541 34.3156V33.6215C45.5541 32.9311 46.1138 32.3715 46.8041 32.3715ZM57.1969 31.5393C57.1969 30.849 56.6373 30.2893 55.9469 30.2893C55.2566 30.2893 54.6969 30.849 54.6969 31.5393V34.3156C54.6969 35.006 55.2566 35.5656 55.9469 35.5656C56.6373 35.5656 57.1969 35.006 57.1969 34.3156V31.5393Z" fill="#243C70"/>
<path d="M25 50.6334V43.3333H27.7466C28.5404 43.3333 29.1679 43.5662 29.6288 44.032C30.0898 44.4978 30.3203 45.1131 30.3203 45.8779C30.3203 46.6913 30.0642 47.324 29.552 47.7759C29.0398 48.2209 28.39 48.4433 27.6025 48.4433H26.4789V50.6334H25ZM26.4789 47.0146H27.6505C28.0155 47.0146 28.3004 46.9103 28.5052 46.7017C28.7165 46.4932 28.8221 46.222 28.8221 45.8883C28.8221 45.5337 28.7165 45.2626 28.5052 45.0749C28.294 44.8802 27.9995 44.7828 27.6217 44.7828H26.4789V47.0146Z" fill="#02BF7F"/>
<path d="M32.627 50.7377C32.1213 50.7377 31.6987 50.5847 31.3594 50.2788C31.0265 49.9729 30.86 49.5488 30.86 49.0065C30.86 48.4155 31.0457 47.9706 31.417 47.6716C31.7947 47.3726 32.3005 47.2232 32.9343 47.2232C33.3633 47.2232 33.7826 47.2996 34.1924 47.4526V47.3587C34.1924 46.6774 33.8243 46.3367 33.088 46.3367C32.6462 46.3367 32.1725 46.4375 31.6667 46.6392L31.3018 45.4294C31.9292 45.1305 32.595 44.981 33.2993 44.981C34.0739 44.981 34.6534 45.1896 35.0375 45.6067C35.4088 46.01 35.5945 46.6044 35.5945 47.39V50.6334H34.1828V50.0285C33.7922 50.5013 33.2737 50.7377 32.627 50.7377ZM33.0688 49.6426C33.4081 49.6426 33.6834 49.5523 33.8947 49.3715C34.106 49.1838 34.2116 48.9474 34.2116 48.6623V48.3808C33.9363 48.2417 33.6258 48.1722 33.2801 48.1722C32.96 48.1722 32.7103 48.2417 32.531 48.3808C32.3581 48.5129 32.2717 48.7075 32.2717 48.9648C32.2717 49.1733 32.3453 49.3402 32.4926 49.4653C32.6398 49.5835 32.8319 49.6426 33.0688 49.6426Z" fill="#02BF7F"/>
<path d="M37.8922 52.3333C37.4313 52.3333 36.9991 52.2046 36.5958 51.9474L37.0856 50.8002C37.3096 50.9462 37.5177 51.0192 37.7098 51.0192C37.9403 51.0192 38.1099 50.8976 38.2188 50.6542L36.202 45.0436H37.7482L38.9198 48.8501L40.0434 45.0436H41.5607L39.5824 50.7689C39.384 51.346 39.1599 51.7492 38.9102 51.9787C38.6605 52.2151 38.3212 52.3333 37.8922 52.3333Z" fill="#02BF7F"/>
<path d="M42.5749 50.6334V43.3333H44.0539V46.5244L46.7812 43.3333H48.5675L45.8305 46.4306L48.6923 50.6334H46.9157L44.8317 47.5256L44.0539 48.4016V50.6334H42.5749Z" fill="#02BF7F"/>
<path d="M50.8022 50.7377C50.2964 50.7377 49.8739 50.5847 49.5345 50.2788C49.2016 49.9729 49.0352 49.5488 49.0352 49.0065C49.0352 48.4155 49.2208 47.9706 49.5922 47.6716C49.9699 47.3726 50.4757 47.2232 51.1095 47.2232C51.5384 47.2232 51.9578 47.2996 52.3675 47.4526V47.3587C52.3675 46.6774 51.9994 46.3367 51.2632 46.3367C50.8214 46.3367 50.3476 46.4375 49.8419 46.6392L49.4769 45.4294C50.1043 45.1305 50.7702 44.981 51.4744 44.981C52.2491 44.981 52.8285 45.1896 53.2126 45.6067C53.584 46.01 53.7696 46.6044 53.7696 47.39V50.6334H52.3579V50.0285C51.9674 50.5013 51.4488 50.7377 50.8022 50.7377ZM51.2439 49.6426C51.5833 49.6426 51.8586 49.5523 52.0698 49.3715C52.2811 49.1838 52.3867 48.9474 52.3867 48.6623V48.3808C52.1115 48.2417 51.8009 48.1722 51.4552 48.1722C51.1351 48.1722 50.8854 48.2417 50.7062 48.3808C50.5333 48.5129 50.4469 48.7075 50.4469 48.9648C50.4469 49.1733 50.5205 49.3402 50.6677 49.4653C50.815 49.5835 51.0071 49.6426 51.2439 49.6426Z" fill="#02BF7F"/>
<path d="M56.8312 50.7377C56.0181 50.7377 55.2818 50.4561 54.6224 49.8929L55.2466 48.8501C55.81 49.295 56.351 49.5175 56.8696 49.5175C57.2793 49.5175 57.4842 49.3715 57.4842 49.0795C57.4842 49.0447 57.4778 49.01 57.465 48.9752C57.4586 48.9404 57.4426 48.9092 57.417 48.8813C57.3914 48.8535 57.3626 48.8292 57.3305 48.8083C57.3049 48.7805 57.2665 48.7562 57.2153 48.7353C57.1705 48.7075 57.1289 48.6867 57.0905 48.6728C57.0584 48.6519 57.0104 48.6311 56.9464 48.6102C56.8824 48.5824 56.828 48.5615 56.7831 48.5476C56.7383 48.5337 56.6775 48.5163 56.6007 48.4955C56.5239 48.4677 56.463 48.4468 56.4182 48.4329C56.2005 48.3634 56.0149 48.2939 55.8612 48.2243C55.714 48.1479 55.5571 48.047 55.3907 47.9219C55.2242 47.7898 55.0962 47.6264 55.0065 47.4317C54.9233 47.2301 54.8817 46.9972 54.8817 46.733C54.8817 46.1838 55.0609 45.7527 55.4195 45.4399C55.778 45.12 56.2262 44.9601 56.7639 44.9601C57.4554 44.9601 58.0956 45.1757 58.6846 45.6067L58.1276 46.7017C57.5834 46.3541 57.1193 46.1803 56.7351 46.1803C56.3766 46.1803 56.1973 46.3159 56.1973 46.587C56.1973 46.7747 56.4918 46.9764 57.0809 47.1919C57.1513 47.2197 57.2057 47.2406 57.2441 47.2545C57.417 47.317 57.5642 47.3761 57.6859 47.4317C57.8075 47.4874 57.9452 47.5638 58.0988 47.6612C58.2525 47.7585 58.3741 47.8628 58.4637 47.974C58.5598 48.0783 58.6398 48.2139 58.7038 48.3808C58.7678 48.5476 58.7999 48.7319 58.7999 48.9335C58.7999 49.5314 58.6174 49.9833 58.2525 50.2892C57.8939 50.5882 57.4202 50.7377 56.8312 50.7377Z" fill="#02BF7F"/>
<path d="M61.5578 50.7377C60.7447 50.7377 60.0085 50.4561 59.3491 49.8929L59.9733 48.8501C60.5367 49.295 61.0777 49.5175 61.5962 49.5175C62.006 49.5175 62.2109 49.3715 62.2109 49.0795C62.2109 49.0447 62.2045 49.01 62.1917 48.9752C62.1852 48.9404 62.1692 48.9092 62.1436 48.8813C62.118 48.8535 62.0892 48.8292 62.0572 48.8083C62.0316 48.7805 61.9932 48.7562 61.942 48.7353C61.8971 48.7075 61.8555 48.6867 61.8171 48.6728C61.7851 48.6519 61.7371 48.6311 61.6731 48.6102C61.609 48.5824 61.5546 48.5615 61.5098 48.5476C61.465 48.5337 61.4042 48.5163 61.3274 48.4955C61.2505 48.4677 61.1897 48.4468 61.1449 48.4329C60.9272 48.3634 60.7415 48.2939 60.5879 48.2243C60.4406 48.1479 60.2838 48.047 60.1173 47.9219C59.9509 47.7898 59.8228 47.6264 59.7332 47.4317C59.65 47.2301 59.6083 46.9972 59.6083 46.733C59.6083 46.1838 59.7876 45.7527 60.1461 45.4399C60.5047 45.12 60.9528 44.9601 61.4906 44.9601C62.182 44.9601 62.8223 45.1757 63.4113 45.6067L62.8543 46.7017C62.3101 46.3541 61.8459 46.1803 61.4618 46.1803C61.1033 46.1803 60.924 46.3159 60.924 46.587C60.924 46.7747 61.2185 46.9764 61.8075 47.1919C61.8779 47.2197 61.9324 47.2406 61.9708 47.2545C62.1436 47.317 62.2909 47.3761 62.4125 47.4317C62.5342 47.4874 62.6718 47.5638 62.8255 47.6612C62.9791 47.7585 63.1008 47.8628 63.1904 47.974C63.2864 48.0783 63.3665 48.2139 63.4305 48.3808C63.4945 48.5476 63.5265 48.7319 63.5265 48.9335C63.5265 49.5314 63.3441 49.9833 62.9791 50.2892C62.6206 50.5882 62.1468 50.7377 61.5578 50.7377Z" fill="#02BF7F"/>
<path d="M66.0326 50.7377C65.5268 50.7377 65.1042 50.5847 64.7649 50.2788C64.432 49.9729 64.2655 49.5488 64.2655 49.0065C64.2655 48.4155 64.4512 47.9706 64.8225 47.6716C65.2003 47.3726 65.706 47.2232 66.3399 47.2232C66.7688 47.2232 67.1882 47.2996 67.5979 47.4526V47.3587C67.5979 46.6774 67.2298 46.3367 66.4935 46.3367C66.0518 46.3367 65.578 46.4375 65.0722 46.6392L64.7073 45.4294C65.3347 45.1305 66.0005 44.981 66.7048 44.981C67.4795 44.981 68.0589 45.1896 68.443 45.6067C68.8143 46.01 69 46.6044 69 47.39V50.6334H67.5883V50.0285C67.1978 50.5013 66.6792 50.7377 66.0326 50.7377ZM66.4743 49.6426C66.8136 49.6426 67.0889 49.5523 67.3002 49.3715C67.5115 49.1838 67.6171 48.9474 67.6171 48.6623V48.3808C67.3418 48.2417 67.0313 48.1722 66.6856 48.1722C66.3655 48.1722 66.1158 48.2417 65.9365 48.3808C65.7637 48.5129 65.6772 48.7075 65.6772 48.9648C65.6772 49.1733 65.7509 49.3402 65.8981 49.4653C66.0454 49.5835 66.2374 49.6426 66.4743 49.6426Z" fill="#02BF7F"/>
<defs>
<linearGradient id="paint0_linear_223_84" x1="12.4631" y1="-1.12639" x2="74.8563" y2="92.0178" gradientUnits="userSpaceOnUse">
<stop offset="0.0485" stop-color="#CAECE5"/>
<stop offset="0.9993" stop-color="#B3CCF5"/>
</linearGradient>
</defs>
</svg>
