<svg width="93" height="93" viewBox="0 0 93 93" fill="none" xmlns="http://www.w3.org/2000/svg">
<path d="M93 34.4454C93 20.4211 72.1813 9.05225 46.5 9.05225C20.8187 9.05225 0 20.4211 0 34.4454C0 36.7123 0.54474 38.9096 1.56574 41.0007C3.38342 44.7226 3.83661 48.9616 2.93477 53.0046C2.56495 54.6624 2.35733 56.3813 2.32936 58.1439C2.10503 72.2777 13.584 83.9479 27.7194 83.9478C38.3351 83.9478 47.428 77.4332 51.221 68.1841C53.3041 63.1047 57.6811 59.2984 63.0558 58.1799C80.5623 54.5367 93 45.2848 93 34.4454Z" fill="url(#paint0_linear_224_0)"/>
<path d="M13.1704 78.392C12.9381 78.392 12.7056 78.3034 12.5283 78.1261L10.5268 76.1248C10.3565 75.9544 10.2607 75.7236 10.2607 75.4825C10.2607 75.2415 10.3563 75.0106 10.5268 74.8402L12.5283 72.8389C12.6987 72.6685 12.9296 72.573 13.1704 72.573C13.4113 72.573 13.6423 72.6687 13.8125 72.8389L15.8139 74.8402C16.1686 75.195 16.1686 75.7701 15.8139 76.1246L13.8125 78.1259C13.6354 78.3032 13.4029 78.392 13.1704 78.392ZM12.4535 75.4825L13.1704 76.1995L13.8872 75.4825L13.1704 74.7656L12.4535 75.4825Z" fill="#02BF7F"/>
<path d="M78.9097 18.819C78.6774 18.819 78.4449 18.7304 78.2676 18.5531L76.2661 16.5518C76.0957 16.3814 76 16.1506 76 15.9095C76 15.6685 76.0955 15.4376 76.2661 15.2672L78.2676 13.2659C78.438 13.0955 78.6688 13 78.9097 13C79.1506 13 79.3816 13.0957 79.5518 13.2659L81.5531 15.2672C81.9079 15.622 81.9079 16.1971 81.5531 16.5516L79.5518 18.5529C79.3747 18.7302 79.1422 18.819 78.9097 18.819ZM78.1928 15.9095L78.9097 16.6265L79.6265 15.9095L78.9097 15.1926L78.1928 15.9095Z" fill="#02BF7F"/>
<path d="M4.90952 75.8187C4.40783 75.8187 4.00131 75.412 4.00131 74.9105C4.00131 74.3078 3.51107 73.8175 2.9082 73.8175C2.40651 73.8175 2 73.4108 2 72.9093C2 72.4078 2.40651 72.0011 2.9082 72.0011C3.51089 72.0011 4.00131 71.5109 4.00131 70.9082C4.00131 70.4067 4.40783 70 4.90952 70C5.41121 70 5.81772 70.4067 5.81772 70.9082C5.81772 71.5109 6.30797 72.0011 6.91066 72.0011C7.41235 72.0011 7.81886 72.4078 7.81886 72.9093C7.81886 73.4108 7.41235 73.8175 6.91066 73.8175C6.30815 73.8175 5.81772 74.3078 5.81772 74.9105C5.81772 75.412 5.41121 75.8187 4.90952 75.8187Z" fill="#02BF7F"/>
<path d="M61.9095 5.81868C61.4078 5.81868 61.0013 5.41198 61.0013 4.91047C61.0013 4.30779 60.5111 3.81754 59.9082 3.81754C59.4065 3.81754 59 3.41085 59 2.90934C59 2.40783 59.4065 2.00114 59.9082 2.00114C60.5109 2.00114 61.0013 1.51089 61.0013 0.908203C61.0013 0.406693 61.4078 0 61.9095 0C62.4112 0 62.8177 0.406693 62.8177 0.908203C62.8177 1.51089 63.308 2.00114 63.9107 2.00114C64.4123 2.00114 64.8189 2.40783 64.8189 2.90934C64.8189 3.41085 64.4123 3.81754 63.9107 3.81754C63.3082 3.81754 62.8177 4.30779 62.8177 4.91047C62.8177 5.41198 62.4112 5.81868 61.9095 5.81868Z" fill="#02BF7F"/>
<path d="M23.9095 56.8187C23.4078 56.8187 23.0013 56.412 23.0013 55.9105C23.0013 55.3078 22.5111 54.8175 21.9082 54.8175C21.4065 54.8175 21 54.4108 21 53.9093C21 53.4078 21.4065 53.0011 21.9082 53.0011C22.5109 53.0011 23.0013 52.5109 23.0013 51.9082C23.0013 51.4067 23.4078 51 23.9095 51C24.4112 51 24.8177 51.4067 24.8177 51.9082C24.8177 52.5109 25.308 53.0011 25.9107 53.0011C26.4123 53.0011 26.8189 53.4078 26.8189 53.9093C26.8189 54.4108 26.4123 54.8175 25.9107 54.8175C25.3082 54.8175 24.8177 55.3078 24.8177 55.9105C24.8177 56.412 24.4112 56.8187 23.9095 56.8187Z" fill="#02BF7F"/>
<path opacity="0.1" d="M73.989 49.4875V22.9342C73.989 20.2206 71.7815 18.013 69.0678 18.013H61.9475V17.4165C61.9475 15.5326 60.4149 14 58.5311 14C56.6473 14 55.1147 15.5326 55.1147 17.4164V18.0129H38.8718V17.4164C38.8718 15.5326 37.3392 14 35.4554 14C33.5714 14 32.0388 15.5326 32.0388 17.4164V18.0129H24.9213C22.2077 18.0129 20 20.2206 20 22.9341V37.1693C20 37.671 20.4066 38.0777 20.9084 38.0777C21.4101 38.0777 21.8167 37.671 21.8167 37.1693V33.875H72.1723V47.7334C69.4151 45.4626 65.8856 44.0971 62.0431 44.0971C59.0793 44.0971 56.3022 44.9103 53.9216 46.3238V46.0087C53.9216 44.9546 53.0641 44.0971 52.01 44.0971H50.0036C48.9496 44.0971 48.0921 44.9546 48.0921 46.0087V48.0152C48.0921 48.9788 48.8094 49.776 49.7377 49.9061C47.4575 52.666 46.0861 56.2028 46.0861 60.0541C46.0861 60.0858 46.0871 60.1171 46.0874 60.1489H24.9213C23.2094 60.1489 21.8167 58.7562 21.8167 57.0445V40.8028C21.8167 40.3011 21.4101 39.8944 20.9084 39.8944C20.4066 39.8944 20 40.3011 20 40.8028V61.0574C20 63.771 22.2076 65.9785 24.9213 65.9785H27.1189C27.6207 65.9785 28.0273 65.5718 28.0273 65.0702C28.0273 64.5685 27.6207 64.1618 27.1189 64.1618H24.9213C23.2094 64.1618 21.8167 62.7691 21.8167 61.0574V60.8593C22.6642 61.5503 23.745 61.9656 24.9213 61.9656H46.2011C46.291 62.7148 46.4329 63.4481 46.6232 64.1619H30.7522C30.2505 64.1619 29.8439 64.5686 29.8439 65.0703C29.8439 65.5719 30.2505 65.9786 30.7522 65.9786H47.2272C49.5844 71.8522 55.3369 76.011 62.0431 76.011C70.8417 76.011 78 68.8527 78 60.0541C78 56.0049 76.4833 52.304 73.989 49.4875ZM21.8168 32.0583V29.8621H72.1724V32.0583H21.8168ZM49.9088 46.0087C49.9088 45.9564 49.9514 45.9139 50.0036 45.9139H52.01C52.0623 45.9139 52.1048 45.9565 52.1048 46.0087V47.5794C51.89 47.7509 51.6799 47.9279 51.4742 48.11H50.0035C49.9512 48.11 49.9087 48.0674 49.9087 48.0152L49.9088 46.0087Z" fill="#243C70"/>
<path d="M45.8512 66.07H22.921C20.7047 66.07 18.9082 64.2734 18.9082 62.0572V58.0442H49.7057L45.8512 66.07Z" fill="#D3DCFB"/>
<path d="M71.0804 33.9665V50.8254V62.0571H22.921C20.7047 62.0571 18.9082 60.2605 18.9082 58.0442V33.9665L47.0007 23.9341L71.0804 33.9665Z" fill="white"/>
<path d="M25.9668 41.9924H23.8918C23.3567 41.9924 22.9229 41.5586 22.9229 41.0235V38.9484C22.9229 38.4133 23.3567 37.9795 23.8918 37.9795H25.9668C26.5019 37.9795 26.9358 38.4133 26.9358 38.9484V41.0235C26.9358 41.5586 26.5019 41.9924 25.9668 41.9924Z" fill="#3C58A0"/>
<path d="M33.9922 41.9924H31.9172C31.3821 41.9924 30.9482 41.5586 30.9482 41.0235V38.9484C30.9482 38.4133 31.3821 37.9795 31.9172 37.9795H33.9922C34.5273 37.9795 34.9612 38.4133 34.9612 38.9484V41.0235C34.9612 41.5586 34.5273 41.9924 33.9922 41.9924Z" fill="#3C58A0"/>
<path d="M42.0176 41.9924H39.9426C39.4075 41.9924 38.9736 41.5586 38.9736 41.0235V38.9484C38.9736 38.4133 39.4075 37.9795 39.9426 37.9795H42.0176C42.5527 37.9795 42.9865 38.4133 42.9865 38.9484V41.0235C42.9865 41.5586 42.5528 41.9924 42.0176 41.9924Z" fill="#3C58A0"/>
<path d="M50.044 41.9924H47.9689C47.4338 41.9924 47 41.5586 47 41.0235V38.9484C47 38.4133 47.4338 37.9795 47.9689 37.9795H50.044C50.5791 37.9795 51.0129 38.4133 51.0129 38.9484V41.0235C51.0129 41.5586 50.5791 41.9924 50.044 41.9924Z" fill="#3C58A0"/>
<path d="M58.0674 41.9924H55.9924C55.4573 41.9924 55.0234 41.5586 55.0234 41.0235V38.9484C55.0234 38.4133 55.4573 37.9795 55.9924 37.9795H58.0674C58.6025 37.9795 59.0363 38.4133 59.0363 38.9484V41.0235C59.0363 41.5586 58.6025 41.9924 58.0674 41.9924Z" fill="#3C58A0"/>
<path d="M66.0938 41.9924H64.0187C63.4836 41.9924 63.0498 41.5586 63.0498 41.0235V38.9484C63.0498 38.4133 63.4836 37.9795 64.0187 37.9795H66.0938C66.6289 37.9795 67.0627 38.4133 67.0627 38.9484V41.0235C67.0627 41.5586 66.629 41.9924 66.0938 41.9924Z" fill="#3C58A0"/>
<path d="M25.9659 50.0183H23.8908C23.3557 50.0183 22.9219 49.5844 22.9219 49.0494V46.9743C22.9219 46.4392 23.3557 46.0054 23.8908 46.0054H25.9659C26.501 46.0054 26.9348 46.4392 26.9348 46.9743V49.0494C26.9348 49.5846 26.501 50.0183 25.9659 50.0183Z" fill="#3C58A0"/>
<path d="M33.9922 50.0183H31.9172C31.3821 50.0183 30.9482 49.5844 30.9482 49.0494V46.9743C30.9482 46.4392 31.3821 46.0054 31.9172 46.0054H33.9922C34.5273 46.0054 34.9612 46.4392 34.9612 46.9743V49.0494C34.9612 49.5846 34.5273 50.0183 33.9922 50.0183Z" fill="#3C58A0"/>
<path d="M42.0176 50.0183H39.9426C39.4075 50.0183 38.9736 49.5844 38.9736 49.0494V46.9743C38.9736 46.4392 39.4075 46.0054 39.9426 46.0054H42.0176C42.5527 46.0054 42.9865 46.4392 42.9865 46.9743V49.0494C42.9865 49.5846 42.5528 50.0183 42.0176 50.0183Z" fill="#3C58A0"/>
<path d="M51.0129 50.0183V47.0086C51.0129 46.4545 50.5637 46.0054 50.0097 46.0054H48.0032C47.4491 46.0054 47 46.4546 47 47.0086V49.0151C47 49.5692 47.4492 50.0183 48.0032 50.0183H51.0129Z" fill="#3C58A0"/>
<path d="M25.9659 58.0442H23.8908C23.3557 58.0442 22.9219 57.6103 22.9219 57.0752V55.0002C22.9219 54.4651 23.3557 54.0312 23.8908 54.0312H25.9659C26.501 54.0312 26.9348 54.4651 26.9348 55.0002V57.0752C26.9348 57.6103 26.501 58.0442 25.9659 58.0442Z" fill="#3C58A0"/>
<path d="M33.9922 58.0442H31.9172C31.3821 58.0442 30.9482 57.6103 30.9482 57.0752V55.0002C30.9482 54.4651 31.3821 54.0312 31.9172 54.0312H33.9922C34.5273 54.0312 34.9612 54.4651 34.9612 55.0002V57.0752C34.9612 57.6103 34.5273 58.0442 33.9922 58.0442Z" fill="#3C58A0"/>
<path d="M42.0176 58.0442H39.9426C39.4075 58.0442 38.9736 57.6103 38.9736 57.0752V55.0002C38.9736 54.4651 39.4075 54.0312 39.9426 54.0312H42.0176C42.5527 54.0312 42.9865 54.4651 42.9865 55.0002V57.0752C42.9865 57.6103 42.5528 58.0442 42.0176 58.0442Z" fill="#3C58A0"/>
<path d="M66.0953 37.9792H64.0203C63.8947 37.9792 63.7751 38.004 63.665 38.0474C64.0241 38.1893 64.2787 38.5387 64.2787 38.9483V41.0234C64.2787 41.433 64.0243 41.7824 63.665 41.9241C63.7751 41.9676 63.8948 41.9923 64.0203 41.9923H66.0953C66.6304 41.9923 67.0642 41.5584 67.0642 41.0234V38.9483C67.0642 38.4131 66.6305 37.9792 66.0953 37.9792Z" fill="#78B5EE"/>
<path d="M58.069 37.9792H55.9939C55.8683 37.9792 55.7488 38.004 55.6387 38.0474C55.9978 38.1893 56.2524 38.5387 56.2524 38.9483V41.0234C56.2524 41.433 55.9979 41.7824 55.6387 41.9241C55.7488 41.9676 55.8683 41.9923 55.9939 41.9923H58.069C58.6041 41.9923 59.0379 41.5584 59.0379 41.0234V38.9483C59.0379 38.4131 58.6041 37.9792 58.069 37.9792Z" fill="#78B5EE"/>
<path d="M50.0436 37.9792H47.9685C47.8429 37.9792 47.7234 38.004 47.6133 38.0474C47.9724 38.1893 48.227 38.5387 48.227 38.9483V41.0234C48.227 41.433 47.9725 41.7824 47.6133 41.9241C47.7234 41.9676 47.8429 41.9923 47.9685 41.9923H50.0436C50.5787 41.9923 51.0125 41.5584 51.0125 41.0234V38.9483C51.0125 38.4131 50.5787 37.9792 50.0436 37.9792Z" fill="#78B5EE"/>
<path d="M42.0182 37.9792H39.9431C39.8175 37.9792 39.698 38.004 39.5879 38.0474C39.947 38.1893 40.2016 38.5387 40.2016 38.9483V41.0234C40.2016 41.433 39.9471 41.7824 39.5879 41.9241C39.698 41.9676 39.8175 41.9923 39.9431 41.9923H42.0182C42.5533 41.9923 42.9871 41.5584 42.9871 41.0234V38.9483C42.9871 38.4131 42.5534 37.9792 42.0182 37.9792Z" fill="#78B5EE"/>
<path d="M33.9928 37.9792H31.9177C31.7921 37.9792 31.6726 38.004 31.5625 38.0474C31.9216 38.1893 32.1762 38.5387 32.1762 38.9483V41.0234C32.1762 41.433 31.9217 41.7824 31.5625 41.9241C31.6726 41.9676 31.7921 41.9923 31.9177 41.9923H33.9928C34.5279 41.9923 34.9617 41.5584 34.9617 41.0234V38.9483C34.9617 38.4131 34.5279 37.9792 33.9928 37.9792Z" fill="#78B5EE"/>
<path d="M25.9664 37.9792H23.8914C23.7658 37.9792 23.6462 38.004 23.5361 38.0474C23.8952 38.1893 24.1498 38.5387 24.1498 38.9483V41.0234C24.1498 41.433 23.8954 41.7824 23.5361 41.9241C23.6462 41.9676 23.7659 41.9923 23.8914 41.9923H25.9664C26.5015 41.9923 26.9354 41.5584 26.9354 41.0234V38.9483C26.9354 38.4131 26.5015 37.9792 25.9664 37.9792Z" fill="#78B5EE"/>
<path d="M25.9664 46.0054H23.8914C23.7658 46.0054 23.6462 46.0301 23.5361 46.0736C23.8952 46.2154 24.1498 46.5648 24.1498 46.9744V49.0495C24.1498 49.4591 23.8954 49.8085 23.5361 49.9502C23.6462 49.9937 23.7659 50.0184 23.8914 50.0184H25.9664C26.5015 50.0184 26.9354 49.5846 26.9354 49.0495V46.9743C26.9354 46.4392 26.5015 46.0054 25.9664 46.0054Z" fill="#78B5EE"/>
<path d="M25.9664 54.0312H23.8914C23.7658 54.0312 23.6462 54.056 23.5361 54.0994C23.8952 54.2413 24.1498 54.5907 24.1498 55.0003V57.0752C24.1498 57.4849 23.8954 57.8343 23.5361 57.976C23.6462 58.0195 23.7659 58.0442 23.8914 58.0442H25.9664C26.5015 58.0442 26.9354 57.6103 26.9354 57.0752V55.0002C26.9354 54.465 26.5015 54.0312 25.9664 54.0312Z" fill="#78B5EE"/>
<path d="M33.9928 46.0054H31.9177C31.7921 46.0054 31.6726 46.0301 31.5625 46.0736C31.9216 46.2154 32.1762 46.5648 32.1762 46.9744V49.0495C32.1762 49.4591 31.9217 49.8085 31.5625 49.9502C31.6726 49.9937 31.7921 50.0184 31.9177 50.0184H33.9928C34.5279 50.0184 34.9617 49.5846 34.9617 49.0495V46.9743C34.9617 46.4392 34.5279 46.0054 33.9928 46.0054Z" fill="#78B5EE"/>
<path d="M33.9928 54.0312H31.9177C31.7921 54.0312 31.6726 54.056 31.5625 54.0994C31.9216 54.2413 32.1762 54.5907 32.1762 55.0003V57.0752C32.1762 57.4849 31.9217 57.8343 31.5625 57.976C31.6726 58.0195 31.7921 58.0442 31.9177 58.0442H33.9928C34.5279 58.0442 34.9617 57.6103 34.9617 57.0752V55.0002C34.9617 54.465 34.5279 54.0312 33.9928 54.0312Z" fill="#78B5EE"/>
<path d="M42.0182 46.0054H39.9431C39.8175 46.0054 39.698 46.0301 39.5879 46.0736C39.947 46.2154 40.2016 46.5648 40.2016 46.9744V49.0495C40.2016 49.4591 39.9471 49.8085 39.5879 49.9502C39.698 49.9937 39.8175 50.0184 39.9431 50.0184H42.0182C42.5533 50.0184 42.9871 49.5846 42.9871 49.0495V46.9743C42.9871 46.4392 42.5534 46.0054 42.0182 46.0054Z" fill="#78B5EE"/>
<path d="M51.0125 50.0183V46.9743C51.0125 46.4392 50.5787 46.0054 50.0436 46.0054H47.9685C47.8429 46.0054 47.7234 46.0301 47.6133 46.0736C47.9724 46.2154 48.227 46.5648 48.227 46.9744V49.0495C48.227 49.4591 47.9725 49.8085 47.6133 49.9502C47.7234 49.9937 47.8429 50.0184 47.9685 50.0184H51.0125V50.0183Z" fill="#78B5EE"/>
<path d="M42.0182 54.0312H39.9431C39.8175 54.0312 39.698 54.056 39.5879 54.0994C39.947 54.2413 40.2016 54.5907 40.2016 55.0003V57.0752C40.2016 57.4849 39.9471 57.8343 39.5879 57.976C39.698 58.0195 39.8175 58.0442 39.9431 58.0442H42.0182C42.5533 58.0442 42.9871 57.6103 42.9871 57.0752V55.0002C42.9871 54.465 42.5534 54.0312 42.0182 54.0312Z" fill="#78B5EE"/>
<path d="M68.293 32.8049V50.8253V62.057H71.0806V50.8253V33.9664L68.293 32.8049Z" fill="#D3DCFB"/>
<path d="M71.0804 33.9664V23.9339C71.0804 21.7176 69.2838 19.9211 67.0676 19.9211H22.921C20.7047 19.9211 18.9082 21.7178 18.9082 23.9339V33.9664H71.0804Z" fill="#1E80F3"/>
<path d="M35.9634 23.4325C35.9634 24.8177 34.8405 25.9405 33.4553 25.9405C32.0701 25.9405 30.9473 24.8176 30.9473 23.4325V18.4163C30.9473 17.0311 32.0701 15.9082 33.4553 15.9082C34.8405 15.9082 35.9634 17.0311 35.9634 18.4163V23.4325Z" fill="white"/>
<path d="M59.0395 23.4325C59.0395 24.8177 57.9167 25.9405 56.5315 25.9405C55.1463 25.9405 54.0234 24.8176 54.0234 23.4325V18.4163C54.0234 17.0311 55.1463 15.9082 56.5315 15.9082C57.9167 15.9082 59.0395 17.0311 59.0395 18.4163V23.4325Z" fill="white"/>
<path d="M56.5302 15.9082C56.0153 15.9082 55.5369 16.0638 55.1387 16.3299C55.8117 16.7797 56.2552 17.5459 56.2552 18.4163V23.4325C56.2552 24.3027 55.8117 25.069 55.1387 25.5188C55.5369 25.7849 56.0152 25.9405 56.5302 25.9405C57.9154 25.9405 59.0382 24.8176 59.0382 23.4325V18.4163C59.0383 17.0311 57.9154 15.9082 56.5302 15.9082Z" fill="#D3DCFB"/>
<path d="M33.455 15.9082C32.9401 15.9082 32.4617 16.0638 32.0635 16.3299C32.7365 16.7797 33.18 17.5459 33.18 18.4163V23.4325C33.18 24.3027 32.7365 25.069 32.0635 25.5188C32.4617 25.7849 32.94 25.9405 33.455 25.9405C34.8402 25.9405 35.963 24.8176 35.963 23.4325V18.4163C35.963 17.0311 34.8402 15.9082 33.455 15.9082Z" fill="#D3DCFB"/>
<path d="M67.0679 19.9209H64.2812C66.4974 19.9209 68.294 21.7175 68.294 23.9337V33.9663H71.0807V23.9338C71.0807 21.7175 69.284 19.9209 67.0679 19.9209Z" fill="#1E80F3"/>
<path d="M60.0427 76.1025C68.3538 76.1025 75.0913 69.365 75.0913 61.0539C75.0913 52.7428 68.3538 46.0054 60.0427 46.0054C51.7316 46.0054 44.9941 52.7428 44.9941 61.0539C44.9941 69.365 51.7316 76.1025 60.0427 76.1025Z" fill="#F5CA2A"/>
<path d="M60.0435 72.0894C66.1383 72.0894 71.0791 67.1485 71.0791 61.0537C71.0791 54.9589 66.1383 50.0181 60.0435 50.0181C53.9486 50.0181 49.0078 54.9589 49.0078 61.0537C49.0078 67.1485 53.9486 72.0894 60.0435 72.0894Z" fill="white"/>
<path d="M23.891 42.9009H25.9661C27.0013 42.9009 27.8434 42.0588 27.8434 41.0236V38.9486C27.8434 37.9134 27.0013 37.0713 25.9661 37.0713H23.891C22.8558 37.0713 22.0137 37.9134 22.0137 38.9486V41.0236C22.0137 42.0588 22.8558 42.9009 23.891 42.9009ZM23.8304 38.9485C23.8304 38.915 23.8577 38.8879 23.891 38.8879H25.9661C25.9995 38.8879 26.0267 38.915 26.0267 38.9485V41.0235C26.0267 41.0569 25.9995 41.0841 25.9661 41.0841H23.891C23.8577 41.0841 23.8304 41.0569 23.8304 41.0235V38.9485Z" fill="#243C70"/>
<path d="M31.9173 42.9009H33.9924C35.0276 42.9009 35.8697 42.0588 35.8697 41.0236V38.9486C35.8697 37.9134 35.0276 37.0713 33.9924 37.0713H31.9173C30.8822 37.0713 30.04 37.9134 30.04 38.9486V41.0236C30.04 42.0588 30.8822 42.9009 31.9173 42.9009ZM31.8568 38.9485C31.8568 38.915 31.884 38.8879 31.9173 38.8879H33.9924C34.0257 38.8879 34.0529 38.915 34.0529 38.9485V41.0235C34.0529 41.0569 34.0257 41.0841 33.9924 41.0841H31.9173C31.884 41.0841 31.8568 41.0569 31.8568 41.0235V38.9485Z" fill="#243C70"/>
<path d="M39.9437 42.9009H42.0188C43.0539 42.9009 43.896 42.0588 43.896 41.0236V38.9486C43.896 37.9134 43.0539 37.0713 42.0188 37.0713H39.9437C38.9085 37.0713 38.0664 37.9134 38.0664 38.9486V41.0236C38.0664 42.0588 38.9085 42.9009 39.9437 42.9009ZM39.8831 38.9485C39.8831 38.915 39.9104 38.8879 39.9437 38.8879H42.0188C42.0521 38.8879 42.0793 38.915 42.0793 38.9485V41.0235C42.0793 41.0569 42.0521 41.0841 42.0188 41.0841H39.9437C39.9104 41.0841 39.8831 41.0569 39.8831 41.0235V38.9485Z" fill="#243C70"/>
<path d="M50.0441 42.9009C51.0793 42.9009 51.9214 42.0588 51.9214 41.0236V38.9486C51.9214 37.9134 51.0793 37.0713 50.0441 37.0713H47.9691C46.9339 37.0713 46.0918 37.9134 46.0918 38.9486V41.0236C46.0918 42.0588 46.9339 42.9009 47.9691 42.9009H50.0441ZM47.9085 41.0236V38.9486C47.9085 38.9151 47.9358 38.888 47.9691 38.888H50.0441C50.0774 38.888 50.1047 38.9151 50.1047 38.9486V41.0236C50.1047 41.0571 50.0774 41.0842 50.0441 41.0842H47.9691C47.9358 41.0842 47.9085 41.0571 47.9085 41.0236Z" fill="#243C70"/>
<path d="M58.0695 42.9009C59.1047 42.9009 59.9468 42.0588 59.9468 41.0236V38.9486C59.9468 37.9134 59.1047 37.0713 58.0695 37.0713H55.9945C54.9593 37.0713 54.1172 37.9134 54.1172 38.9486V41.0236C54.1172 42.0588 54.9593 42.9009 55.9945 42.9009H58.0695ZM55.9339 41.0236V38.9486C55.9339 38.9151 55.9612 38.888 55.9945 38.888H58.0695C58.1028 38.888 58.1301 38.9151 58.1301 38.9486V41.0236C58.1301 41.0571 58.1028 41.0842 58.0695 41.0842H55.9945C55.961 41.0842 55.9339 41.0571 55.9339 41.0236Z" fill="#243C70"/>
<path d="M66.0949 42.9009C67.1301 42.9009 67.9722 42.0588 67.9722 41.0236V38.9486C67.9722 37.9134 67.1301 37.0713 66.0949 37.0713H64.0199C62.9847 37.0713 62.1426 37.9134 62.1426 38.9486V41.0236C62.1426 42.0588 62.9847 42.9009 64.0199 42.9009H66.0949ZM63.9593 41.0236V38.9486C63.9593 38.9151 63.9866 38.888 64.0199 38.888H66.0949C66.1282 38.888 66.1555 38.9151 66.1555 38.9486V41.0236C66.1555 41.0571 66.1282 41.0842 66.0949 41.0842H64.0199C63.9866 41.0842 63.9593 41.0571 63.9593 41.0236Z" fill="#243C70"/>
<path d="M22.0137 49.0495C22.0137 50.0847 22.8558 50.9268 23.891 50.9268H25.9661C27.0013 50.9268 27.8434 50.0847 27.8434 49.0495V46.9745C27.8434 45.9393 27.0013 45.0972 25.9661 45.0972H23.891C22.8558 45.0972 22.0137 45.9393 22.0137 46.9745V49.0495ZM23.8304 46.9745C23.8304 46.941 23.8577 46.9139 23.891 46.9139H25.9661C25.9995 46.9139 26.0267 46.941 26.0267 46.9745V49.0495C26.0267 49.0829 25.9995 49.1101 25.9661 49.1101H23.891C23.8577 49.1101 23.8304 49.0829 23.8304 49.0495V46.9745Z" fill="#243C70"/>
<path d="M30.04 49.0495C30.04 50.0847 30.8822 50.9268 31.9173 50.9268H33.9924C35.0276 50.9268 35.8697 50.0847 35.8697 49.0495V46.9745C35.8697 45.9393 35.0276 45.0972 33.9924 45.0972H31.9173C30.8822 45.0972 30.04 45.9393 30.04 46.9745V49.0495ZM31.8568 46.9745C31.8568 46.941 31.884 46.9139 31.9173 46.9139H33.9924C34.0257 46.9139 34.0529 46.941 34.0529 46.9745V49.0495C34.0529 49.0829 34.0257 49.1101 33.9924 49.1101H31.9173C31.884 49.1101 31.8568 49.0829 31.8568 49.0495V46.9745Z" fill="#243C70"/>
<path d="M38.0664 49.0495C38.0664 50.0847 38.9085 50.9268 39.9437 50.9268H42.0188C43.0539 50.9268 43.896 50.0847 43.896 49.0495V46.9745C43.896 45.9393 43.0539 45.0972 42.0188 45.0972H39.9437C38.9085 45.0972 38.0664 45.9393 38.0664 46.9745V49.0495ZM39.8831 46.9745C39.8831 46.941 39.9104 46.9139 39.9437 46.9139H42.0188C42.0521 46.9139 42.0793 46.941 42.0793 46.9745V49.0495C42.0793 49.0829 42.0521 49.1101 42.0188 49.1101H39.9437C39.9104 49.1101 39.8831 49.0829 39.8831 49.0495V46.9745Z" fill="#243C70"/>
<path d="M22.0137 57.0756C22.0137 58.1108 22.8558 58.9529 23.891 58.9529H25.9661C27.0013 58.9529 27.8434 58.1108 27.8434 57.0756V55.0006C27.8434 53.9654 27.0013 53.1233 25.9661 53.1233H23.891C22.8558 53.1233 22.0137 53.9654 22.0137 55.0006V57.0756ZM23.8304 55.0006C23.8304 54.9671 23.8577 54.94 23.891 54.94H25.9661C25.9995 54.94 26.0267 54.9671 26.0267 55.0006V57.0756C26.0267 57.1091 25.9995 57.1362 25.9661 57.1362H23.891C23.8577 57.1362 23.8304 57.1091 23.8304 57.0756V55.0006Z" fill="#243C70"/>
<path d="M30.04 57.0756C30.04 58.1108 30.8822 58.9529 31.9173 58.9529H33.9924C35.0276 58.9529 35.8697 58.1108 35.8697 57.0756V55.0006C35.8697 53.9654 35.0276 53.1233 33.9924 53.1233H31.9173C30.8822 53.1233 30.04 53.9654 30.04 55.0006V57.0756ZM31.8568 55.0006C31.8568 54.9671 31.884 54.94 31.9173 54.94H33.9924C34.0257 54.94 34.0529 54.9671 34.0529 55.0006V57.0756C34.0529 57.1091 34.0257 57.1362 33.9924 57.1362H31.9173C31.884 57.1362 31.8568 57.1091 31.8568 57.0756V55.0006Z" fill="#243C70"/>
<path d="M38.0664 57.0756C38.0664 58.1108 38.9085 58.9529 39.9437 58.9529H42.0188C43.0539 58.9529 43.896 58.1108 43.896 57.0756V55.0006C43.896 53.9654 43.0539 53.1233 42.0188 53.1233H39.9437C38.9085 53.1233 38.0664 53.9654 38.0664 55.0006V57.0756ZM39.8831 55.0006C39.8831 54.9671 39.9104 54.94 39.9437 54.94H42.0188C42.0521 54.94 42.0793 54.9671 42.0793 55.0006V57.0756C42.0793 57.1091 42.0521 57.1362 42.0188 57.1362H39.9437C39.9104 57.1362 39.8831 57.1091 39.8831 57.0756V55.0006Z" fill="#243C70"/>
<path d="M71.989 50.4875V23.9342C71.989 21.2206 69.7815 19.013 67.0678 19.013H59.9475V18.4165C59.9475 16.5326 58.4149 15 56.5311 15C54.6473 15 53.1147 16.5326 53.1147 18.4164V19.0129H36.8718V18.4164C36.8718 16.5326 35.3392 15 33.4554 15C31.5714 15 30.0388 16.5326 30.0388 18.4164V19.0129H22.9213C20.2077 19.0129 18 21.2206 18 23.9341V38.1693C18 38.671 18.4066 39.0777 18.9084 39.0777C19.4101 39.0777 19.8167 38.671 19.8167 38.1693V34.875H70.1723V48.7334C67.4151 46.4626 63.8856 45.0971 60.0431 45.0971C57.0793 45.0971 54.3022 45.9103 51.9216 47.3238V47.0087C51.9216 45.9546 51.0641 45.0971 50.01 45.0971H48.0036C46.9496 45.0971 46.0921 45.9546 46.0921 47.0087V49.0152C46.0921 49.9788 46.8094 50.776 47.7377 50.9061C45.4575 53.666 44.0861 57.2028 44.0861 61.0541C44.0861 61.0858 44.0871 61.1171 44.0874 61.1489H22.9213C21.2094 61.1489 19.8167 59.7562 19.8167 58.0445V41.8028C19.8167 41.3011 19.4101 40.8944 18.9084 40.8944C18.4066 40.8944 18 41.3011 18 41.8028V62.0574C18 64.771 20.2076 66.9785 22.9213 66.9785H25.1189C25.6207 66.9785 26.0273 66.5718 26.0273 66.0702C26.0273 65.5685 25.6207 65.1618 25.1189 65.1618H22.9213C21.2094 65.1618 19.8167 63.7691 19.8167 62.0574V61.8593C20.6642 62.5503 21.745 62.9656 22.9213 62.9656H44.2011C44.291 63.7148 44.4329 64.4481 44.6232 65.1619H28.7522C28.2505 65.1619 27.8439 65.5686 27.8439 66.0703C27.8439 66.5719 28.2505 66.9786 28.7522 66.9786H45.2272C47.5844 72.8522 53.3369 77.011 60.0431 77.011C68.8417 77.011 76 69.8527 76 61.0541C76 57.0049 74.4833 53.304 71.989 50.4875ZM54.9314 18.4164C54.9314 17.5343 55.649 16.8167 56.5311 16.8167C57.4132 16.8167 58.1308 17.5343 58.1308 18.4164V23.4326C58.1308 24.3147 57.4132 25.0325 56.5311 25.0325C55.649 25.0325 54.9314 24.3148 54.9314 23.4326V18.4164ZM31.8556 18.4164C31.8556 17.5343 32.5733 16.8167 33.4554 16.8167C34.3375 16.8167 35.0551 17.5343 35.0551 18.4164V23.4326C35.0551 24.3147 34.3375 25.0325 33.4554 25.0325C32.5733 25.0325 31.8556 24.3148 31.8556 23.4326V18.4164ZM22.9213 20.8296H30.0388V23.0258H28.9408C28.439 23.0258 28.0325 23.4325 28.0325 23.9342C28.0325 24.4358 28.439 24.8425 28.9408 24.8425H30.3447C30.8827 26.0246 32.0742 26.8491 33.4554 26.8491C34.8366 26.8491 36.0281 26.0248 36.566 24.8425H37.9698C38.4716 24.8425 38.8782 24.4358 38.8782 23.9342C38.8782 23.4325 38.4716 23.0258 37.9698 23.0258H36.8718V20.8296H53.1147V23.0258H52.0165C51.5147 23.0258 51.1082 23.4325 51.1082 23.9342C51.1082 24.4358 51.5147 24.8425 52.0165 24.8425H53.4205C53.9585 26.0246 55.15 26.8491 56.5311 26.8491C57.9122 26.8491 59.1038 26.0248 59.6417 24.8425H61.0457C61.5474 24.8425 61.954 24.4358 61.954 23.9342C61.954 23.4325 61.5474 23.0258 61.0457 23.0258H59.9475V20.8296H67.0678C68.7796 20.8296 70.1723 22.2223 70.1723 23.9341V29.0452H19.8168V23.9342C19.8168 22.2223 21.2096 20.8296 22.9213 20.8296ZM19.8168 33.0583V30.8621H70.1724V33.0583H19.8168ZM47.9088 47.0087C47.9088 46.9564 47.9514 46.9139 48.0036 46.9139H50.01C50.0623 46.9139 50.1048 46.9565 50.1048 47.0087V48.5794C49.89 48.7509 49.6799 48.9279 49.4742 49.11H48.0035C47.9512 49.11 47.9087 49.0674 47.9087 49.0152L47.9088 47.0087ZM60.0431 75.1942C52.2462 75.1942 45.9029 68.851 45.9029 61.0541C45.9029 53.2571 52.2462 46.9139 60.0431 46.9139C67.84 46.9139 74.1833 53.2571 74.1833 61.0541C74.1833 68.851 67.84 75.1942 60.0431 75.1942Z" fill="#243C70"/>
<path d="M63.1285 55.4771L63.1285 55.4771C64.0198 56.1451 64.5 57.0689 64.5 57.9967C64.5 58.2722 64.2764 58.4961 64 58.4961C63.7236 58.4961 63.5 58.2722 63.5 57.9967C63.5 57.3955 63.1998 56.8712 62.771 56.4756C62.3423 56.0802 61.7619 55.7884 61.1187 55.6312L60.5 55.4801V56.1169V60.0753V60.5015L60.9209 60.569C61.7559 60.7028 62.5176 61.0157 63.1285 61.4737L63.1285 61.4737C64.0198 62.1417 64.5 63.0655 64.5 63.9933C64.5 64.921 64.0198 65.8448 63.1285 66.5129L63.1285 66.5129C62.5177 66.9708 61.756 67.2837 60.9209 67.4175L60.5 67.485V67.9112V69.0006C60.5 69.2761 60.2764 69.5 60 69.5C59.7236 69.5 59.5 69.2761 59.5 69.0006V67.9112V67.485L59.0791 67.4175C58.2441 67.2837 57.4824 66.9708 56.8715 66.5129C55.9802 65.8448 55.5 64.921 55.5 63.9933C55.5 63.7177 55.7236 63.4938 56 63.4938C56.2764 63.4938 56.5 63.7177 56.5 63.9933C56.5 64.5944 56.8002 65.1188 57.229 65.5143C57.6577 65.9098 58.2381 66.2016 58.8814 66.3587L59.5 66.5098V65.873V61.9146V61.4884L59.0791 61.4209C58.2441 61.2871 57.4824 60.9742 56.8715 60.5163C55.9802 59.8482 55.5 58.9244 55.5 57.9967C55.5 57.0689 55.9802 56.1451 56.8715 55.4771L56.8715 55.4771C57.4823 55.0191 58.244 54.7062 59.0791 54.5724L59.5 54.5049V54.0787V52.9994C59.5 52.7239 59.7236 52.5 60 52.5C60.2764 52.5 60.5 52.7239 60.5 52.9994V54.0787V54.5049L60.9209 54.5724C61.7559 54.7062 62.5176 55.0191 63.1285 55.4771ZM59.5 56.1169V55.4801L58.8814 55.6312C58.2381 55.7883 57.6577 56.0802 57.229 56.4756C56.8002 56.8711 56.5 57.3955 56.5 57.9967C56.5 58.5978 56.8002 59.1222 57.229 59.5177C57.6577 59.9131 58.2381 60.205 58.8814 60.3621L59.5 60.5131V59.8763V56.1169ZM60.5 65.873V66.5098L61.1186 66.3587C61.7619 66.2016 62.3423 65.9098 62.771 65.5143C63.1998 65.1188 63.5 64.5944 63.5 63.9933C63.5 63.3921 63.1998 62.8678 62.771 62.4722C62.3423 62.0768 61.7619 61.785 61.1186 61.6279L60.5 61.4768V62.1136V65.873Z" stroke="#243C70"/>
<defs>
<linearGradient id="paint0_linear_224_0" x1="63" y1="89.5" x2="12.4329" y2="-51.0414" gradientUnits="userSpaceOnUse">
<stop offset="0.0023" stop-color="#B4CDF4"/>
<stop offset="0.592094" stop-color="#CAEBE5"/>
</linearGradient>
</defs>
</svg>
