<svg width="93" height="93" viewBox="0 0 93 93" fill="none" xmlns="http://www.w3.org/2000/svg">
<g clip-path="url(#clip0_223_0)">
<path d="M69.4968 31.6086C69.4619 31.6084 69.4269 31.6082 69.392 31.6082C63.5733 31.5991 58.0603 29.0936 54.2359 24.7084C48.5386 18.1759 40.1406 14.0603 30.7823 14.1019C13.7967 14.1773 -0.217057 28.448 0.00254636 45.4323C0.22106 62.3224 13.9807 75.9471 30.9227 75.9471C35.7076 75.9471 40.2383 74.8596 44.2818 72.9187C47.7682 71.2453 51.9225 71.6865 54.9928 74.0378C58.964 77.0794 63.9277 78.89 69.3144 78.8991C82.2803 78.9207 92.9243 68.3603 92.9996 55.3946C93.0756 42.3074 82.5658 31.6856 69.4968 31.6086Z" fill="url(#paint0_linear_223_0)"/>
<path d="M48.5845 17.4758C48.3522 17.4758 48.1197 17.3871 47.9424 17.2099L45.9409 15.2085C45.7705 15.0382 45.6748 14.8073 45.6748 14.5663C45.6748 14.3252 45.7703 14.0944 45.9409 13.924L47.9424 11.9227C48.1128 11.7523 48.3437 11.6567 48.5845 11.6567C48.8254 11.6567 49.0564 11.7525 49.2266 11.9227L51.2279 13.924C51.5827 14.2787 51.5827 14.8538 51.2279 15.2084L49.2266 17.2097C49.0495 17.387 48.817 17.4758 48.5845 17.4758ZM47.8676 14.5663L48.5845 15.2832L49.3013 14.5663L48.5845 13.8493L47.8676 14.5663Z" fill="#02BF7F"/>
<path d="M20.0208 83.916C19.7799 83.916 19.5489 83.8203 19.3787 83.6501L17.3774 81.6488C17.0226 81.2941 17.0226 80.719 17.3774 80.3644L19.3787 78.3631C19.5491 78.1927 19.7799 78.0972 20.0208 78.0972C20.2617 78.0972 20.4927 78.1929 20.6629 78.3631L22.6644 80.3644C22.8348 80.5348 22.9305 80.7657 22.9305 81.0067C22.9305 81.2477 22.835 81.4786 22.6644 81.649L20.6629 83.6503C20.4927 83.8203 20.2618 83.916 20.0208 83.916ZM19.304 81.0065L20.0208 81.7235L20.7377 81.0065L20.0208 80.2896L19.304 81.0065Z" fill="#02BF7F"/>
<path d="M82.7355 47.2364C82.2338 47.2364 81.8273 46.8297 81.8273 46.3282C81.8273 45.7255 81.3371 45.2353 80.7344 45.2353C80.2327 45.2353 79.8262 44.8286 79.8262 44.3271C79.8262 43.8255 80.2327 43.4189 80.7344 43.4189C81.3369 43.4189 81.8273 42.9286 81.8273 42.3259C81.8273 41.8244 82.2338 41.4177 82.7355 41.4177C83.2372 41.4177 83.6437 41.8244 83.6437 42.3259C83.6437 42.9286 84.134 43.4189 84.7368 43.4189C85.2385 43.4189 85.645 43.8255 85.645 44.3271C85.645 44.8286 85.2385 45.2353 84.7368 45.2353C84.1341 45.2353 83.6437 45.7255 83.6437 46.3282C83.6437 46.8297 83.2372 47.2364 82.7355 47.2364Z" fill="#1E80F3"/>
<path d="M40.3236 14.9024C39.8219 14.9024 39.4154 14.4957 39.4154 13.9942C39.4154 13.3915 38.9251 12.9013 38.3223 12.9013C37.8206 12.9013 37.4141 12.4946 37.4141 11.9931C37.4141 11.4916 37.8206 11.0849 38.3223 11.0849C38.9249 11.0849 39.4154 10.5946 39.4154 9.99194C39.4154 9.49043 39.8219 9.08374 40.3236 9.08374C40.8253 9.08374 41.2318 9.49043 41.2318 9.99194C41.2318 10.5946 41.722 11.0849 42.3247 11.0849C42.8264 11.0849 43.2329 11.4916 43.2329 11.9931C43.2329 12.4946 42.8264 12.9013 42.3247 12.9013C41.7222 12.9013 41.2318 13.3915 41.2318 13.9942C41.2318 14.4957 40.8253 14.9024 40.3236 14.9024Z" fill="#02BF7F"/>
<circle cx="46.5" cy="47.5" r="12.5" fill="#1E80F3"/>
<circle cx="65.5" cy="28.5" r="8.5" fill="#F5CA2A"/>
<circle cx="65.5" cy="66.5" r="8.5" fill="#F5CA2A"/>
<circle cx="27.5" cy="28.5" r="8.5" fill="#F5CA2A"/>
<circle cx="27.5" cy="66.5" r="8.5" fill="#F5CA2A"/>
<path fill-rule="evenodd" clip-rule="evenodd" d="M55.9333 28.5335C55.9333 33.7907 60.2095 38.0669 65.4668 38.0669C70.724 38.0669 75.0002 33.7907 75.0002 28.5335C75.0002 23.2762 70.724 19 65.4668 19C60.2095 19 55.9333 23.2762 55.9333 28.5335ZM57.191 28.5335C57.191 23.9554 60.8887 20.2577 65.4668 20.2577C70.0197 20.2577 73.7425 23.9554 73.7425 28.5335C73.7425 33.1115 70.0448 36.8092 65.4668 36.8092C60.8887 36.8092 57.191 33.1115 57.191 28.5335ZM27.5337 38.0672C22.2764 38.0672 18.0002 33.791 18.0002 28.5338C18.0002 23.2765 22.2764 19.0003 27.5337 19.0003C32.7909 19.0003 37.0672 23.2765 37.0672 28.5338C37.0672 33.791 32.7909 38.0672 27.5337 38.0672ZM27.5337 20.258C22.9556 20.258 19.2579 23.9557 19.2579 28.5338C19.2579 33.1118 22.9556 36.8095 27.5337 36.8095C32.1118 36.8095 35.8094 33.1118 35.8094 28.5338C35.8094 23.9557 32.1118 20.258 27.5337 20.258ZM27.5335 22.5197C24.212 22.5197 21.5194 25.2123 21.5194 28.5338C21.5194 31.8552 24.212 34.5478 27.5335 34.5478C30.8549 34.5478 33.5475 31.8552 33.5475 28.5338C33.5475 25.2123 30.8549 22.5197 27.5335 22.5197ZM20.8194 28.5338C20.8194 24.8257 23.8254 21.8197 27.5335 21.8197C31.2415 21.8197 34.2475 24.8257 34.2475 28.5338C34.2475 32.2418 31.2415 35.2478 27.5335 35.2478C23.8254 35.2478 20.8194 32.2418 20.8194 28.5338ZM21.5194 66.4659C21.5194 63.1445 24.212 60.4519 27.5335 60.4519C30.8549 60.4519 33.5475 63.1445 33.5475 66.4659C33.5475 69.7874 30.8549 72.4799 27.5335 72.4799C24.212 72.4799 21.5194 69.7874 21.5194 66.4659ZM27.5335 59.7519C23.8254 59.7519 20.8194 62.7579 20.8194 66.4659C20.8194 70.174 23.8254 73.1799 27.5335 73.1799C31.2415 73.1799 34.2475 70.174 34.2475 66.4659C34.2475 62.7579 31.2415 59.7519 27.5335 59.7519ZM65.4656 60.4519C62.1442 60.4519 59.4516 63.1445 59.4516 66.4659C59.4516 69.7874 62.1442 72.4799 65.4656 72.4799C68.7871 72.4799 71.4797 69.7874 71.4797 66.4659C71.4797 63.1445 68.7871 60.4519 65.4656 60.4519ZM58.7516 66.4659C58.7516 62.7579 61.7576 59.7519 65.4656 59.7519C69.1737 59.7519 72.1797 62.7579 72.1797 66.4659C72.1797 70.174 69.1737 73.1799 65.4656 73.1799C61.7576 73.1799 58.7516 70.174 58.7516 66.4659ZM59.4516 28.5338C59.4516 25.2123 62.1442 22.5197 65.4656 22.5197C68.7871 22.5197 71.4797 25.2123 71.4797 28.5338C71.4797 31.8552 68.7871 34.5478 65.4656 34.5478C62.1442 34.5478 59.4516 31.8552 59.4516 28.5338ZM65.4656 21.8197C61.7576 21.8197 58.7516 24.8257 58.7516 28.5338C58.7516 32.2418 61.7576 35.2478 65.4656 35.2478C69.1737 35.2478 72.1797 32.2418 72.1797 28.5338C72.1797 24.8257 69.1737 21.8197 65.4656 21.8197ZM42.4789 60.3992C36.9772 58.6858 32.9918 53.5495 32.9918 47.4999C32.9918 40.0543 39.0288 33.9921 46.4996 33.9921C47.6669 33.9921 48.7993 34.1401 49.879 34.4182C50.095 34.4739 50.3088 34.5347 50.5204 34.6006C56.0223 36.3139 60.0079 41.4503 60.0079 47.5C60.0079 54.9709 53.9709 61.0079 46.5 61.0079C45.3326 61.0079 44.2001 60.8598 43.1203 60.5816C42.9043 60.526 42.6905 60.4651 42.4789 60.3992ZM45.8706 59.7052C43.1103 59.3112 40.7806 56.3544 39.7394 52.279H45.8706V59.7052ZM41.8256 58.827C40.3038 57.2711 39.1111 54.9806 38.4561 52.279H35.2168C36.4708 55.2368 38.8539 57.5996 41.8256 58.827ZM45.8706 51.0213H39.466C39.2643 49.9051 39.1559 48.7228 39.1559 47.4999C39.1559 46.2768 39.2644 45.0943 39.4661 43.978H45.8706V51.0213ZM45.8706 42.7202H39.7395C40.7808 38.6451 43.1105 35.6886 45.8706 35.2946V42.7202ZM47.1283 43.978V51.0213H53.5359C53.7376 49.9051 53.846 48.7228 53.846 47.4999C53.846 46.2768 53.7375 45.0943 53.5358 43.978H47.1283ZM53.2623 42.7202H47.1283V35.2942C49.8898 35.6865 52.2207 38.6437 53.2623 42.7202ZM54.8077 43.978C55.0007 45.1013 55.1037 46.2821 55.1037 47.4999C55.1037 48.7175 55.0001 49.8981 54.8061 51.0213H58.2363C58.5703 49.906 58.7498 48.724 58.7498 47.4999C58.7498 46.2756 58.5702 45.0934 58.2361 43.978H54.8077ZM57.7826 42.7202H54.5486C53.898 40.0244 52.7132 37.7379 51.1967 36.1823C54.1576 37.4123 56.5316 39.7703 57.7826 42.7202ZM38.4533 42.7202C39.1041 40.0236 40.2893 37.7366 41.8065 36.1809C38.844 37.4105 36.4686 39.7691 35.2171 42.7202H38.4533ZM34.7636 43.978C34.4294 45.0934 34.2499 46.2757 34.2499 47.5C34.2499 48.724 34.4293 49.9061 34.7633 51.0213H38.1958C38.0018 49.8981 37.8982 48.7175 37.8982 47.4999C37.8982 46.2821 38.0011 45.1013 38.1942 43.978H34.7636ZM47.1283 59.7057V52.279H53.2625C52.2209 56.3559 49.8899 59.3133 47.1283 59.7057ZM51.178 58.8253C52.6989 57.2694 53.891 54.9796 54.5457 52.279H57.7828C56.5293 55.2355 54.1479 57.5974 51.178 58.8253ZM68.1068 42.6199C68.8321 45.821 68.8363 49.1464 68.1194 52.3489L66.7741 50.443C66.5728 50.1663 66.1704 50.0908 65.8937 50.2921C65.617 50.4933 65.5415 50.8958 65.7428 51.1725L67.906 54.2664C68.1073 54.5431 68.5097 54.6186 68.7864 54.3922L71.8804 52.2289C72.1571 52.0277 72.2326 51.6252 72.0313 51.3485C71.8301 51.0718 71.4276 50.9964 71.1509 51.1976L69.3919 52.4393C70.0936 49.1173 70.0761 45.6583 69.3394 42.3432C69.2639 41.991 68.9369 41.7898 68.5848 41.8653C68.2326 41.9407 68.0314 42.2929 68.1068 42.6199ZM23.0814 42.7972C22.4297 46.0465 22.4635 49.4199 23.1827 52.6563C23.2581 53.0084 23.5851 53.2097 23.9373 53.1342C24.2895 53.0587 24.4907 52.7066 24.4152 52.3796C23.7078 49.2573 23.6864 46.0168 24.351 42.8874L25.7484 44.7077C25.8741 44.8586 26.0502 44.9592 26.2515 44.9592C26.4024 44.9592 26.5281 44.9089 26.6288 44.8334C26.9055 44.6322 26.9558 44.2297 26.7545 43.953L24.4655 40.9597C24.2643 40.683 23.8618 40.6327 23.5851 40.8339L20.5917 43.1229C20.315 43.3242 20.2647 43.7267 20.466 44.0033C20.6672 44.28 21.0697 44.3304 21.3464 44.1291L23.0814 42.7972ZM18 66.4662C18 71.7234 22.2762 75.9997 27.5335 75.9997C32.7907 75.9997 37.0669 71.7234 37.0669 66.4662C37.0669 61.209 32.7907 56.9327 27.5335 56.9327C22.2762 56.9327 18 61.209 18 66.4662ZM19.2577 66.4662C19.2577 61.8881 22.9554 58.1904 27.5335 58.1904C32.1115 58.1904 35.8092 61.8881 35.8092 66.4662C35.8092 71.0443 32.1115 74.742 27.5335 74.742C22.9554 74.742 19.2577 71.0443 19.2577 66.4662ZM65.4668 75.9997C60.2095 75.9997 55.9333 71.7234 55.9333 66.4662C55.9333 61.209 60.2095 56.9327 65.4668 56.9327C70.724 56.9327 75.0002 61.209 75.0002 66.4662C75.0002 71.7234 70.724 75.9997 65.4668 75.9997ZM65.4668 58.1904C60.8887 58.1904 57.191 61.8881 57.191 66.4662C57.191 71.0443 60.8887 74.742 65.4668 74.742C70.0448 74.742 73.7425 71.0443 73.7425 66.4662C73.7425 61.8881 70.0197 58.1904 65.4668 58.1904ZM46.3499 71.2707C44.6872 71.2707 43.0245 71.086 41.406 70.7387L42.6516 72.5034C42.8528 72.7801 42.7774 73.1825 42.5007 73.3838C42.3749 73.4844 42.2491 73.5347 42.1234 73.5095C41.9221 73.5095 41.7209 73.4089 41.5951 73.2328L39.4319 70.1389C39.2306 69.8622 39.3061 69.4597 39.5828 69.2585L42.6768 67.0952C42.9535 66.894 43.3559 66.9694 43.5572 67.2461C43.7584 67.5228 43.6829 67.9253 43.4062 68.1265L41.5065 69.4675C44.715 70.1639 48.0474 70.1612 51.2549 69.4596C51.582 69.3841 51.9341 69.5853 52.0096 69.9375C52.085 70.2896 51.8838 70.6166 51.5316 70.6921C49.8212 71.0694 48.0855 71.2707 46.3499 71.2707ZM51.0291 24.428L49.7202 22.723C49.519 22.4463 49.5693 22.0438 49.846 21.8426C50.1227 21.6413 50.5251 21.6916 50.7264 21.9683L53.0154 24.9617C53.2166 25.2384 53.1663 25.6408 52.8896 25.8421L49.8963 28.1311C49.7957 28.2066 49.6699 28.2569 49.519 28.2569C49.1668 28.2569 48.8901 27.9802 48.8901 27.628C48.8901 27.4268 48.9907 27.2507 49.1416 27.1249L50.9857 25.7093C47.849 25.0628 44.6 25.0818 41.4699 25.7665C41.1429 25.842 40.7908 25.6408 40.7153 25.2886C40.6399 24.9616 40.8411 24.6094 41.1932 24.534C44.4219 23.8165 47.787 23.7812 51.0291 24.428Z" fill="#243C70"/>
<path d="M42.4789 60.3992L42.5235 60.256L42.4789 60.3992ZM49.879 34.4182L49.9164 34.273L49.879 34.4182ZM50.5204 34.6006L50.4758 34.7438L50.4758 34.7438L50.5204 34.6006ZM43.1203 60.5816L43.1577 60.4363H43.1577L43.1203 60.5816ZM39.7394 52.279V52.129H39.5462L39.5941 52.3161L39.7394 52.279ZM45.8706 59.7052L45.8494 59.8537L46.0206 59.8782V59.7052H45.8706ZM45.8706 52.279H46.0206V52.129H45.8706V52.279ZM38.4561 52.279L38.6019 52.2436L38.5741 52.129H38.4561V52.279ZM41.8256 58.827L41.7683 58.9657L41.9328 58.7221L41.8256 58.827ZM35.2168 52.279V52.129H34.9903L35.0787 52.3375L35.2168 52.279ZM39.466 51.0213L39.3184 51.0479L39.3407 51.1713H39.466V51.0213ZM45.8706 51.0213V51.1713H46.0206V51.0213H45.8706ZM39.4661 43.978V43.828H39.3408L39.3185 43.9513L39.4661 43.978ZM45.8706 43.978H46.0206V43.828H45.8706V43.978ZM39.7395 42.7202L39.5942 42.6831L39.5464 42.8702H39.7395V42.7202ZM45.8706 42.7202V42.8702H46.0206V42.7202H45.8706ZM45.8706 35.2946H46.0206V35.1217L45.8494 35.1461L45.8706 35.2946ZM47.1283 51.0213H46.9783V51.1713H47.1283V51.0213ZM47.1283 43.978V43.828H46.9783V43.978H47.1283ZM53.5359 51.0213V51.1713H53.6612L53.6835 51.0479L53.5359 51.0213ZM53.5358 43.978L53.6834 43.9513L53.6611 43.828H53.5358V43.978ZM47.1283 42.7202H46.9783V42.8702H47.1283V42.7202ZM53.2623 42.7202V42.8702H53.4555L53.4077 42.6831L53.2623 42.7202ZM47.1283 35.2942L47.1494 35.1457L46.9783 35.1214V35.2942H47.1283ZM54.8077 43.978V43.828H54.6297L54.6599 44.0034L54.8077 43.978ZM54.8061 51.0213L54.6583 50.9957L54.628 51.1713H54.8061V51.0213ZM58.2363 51.0213V51.1713H58.3479L58.38 51.0643L58.2363 51.0213ZM58.2361 43.978L58.3798 43.9349L58.3477 43.828H58.2361V43.978ZM54.5486 42.7202L54.4027 42.7554L54.4304 42.8702H54.5486V42.7202ZM57.7826 42.7202V42.8702H58.0091L57.9207 42.6617L57.7826 42.7202ZM51.1967 36.1823L51.2542 36.0438L51.0892 36.287L51.1967 36.1823ZM41.8065 36.1809L41.9139 36.2857L41.749 36.0424L41.8065 36.1809ZM38.4533 42.7202V42.8702H38.5714L38.5991 42.7554L38.4533 42.7202ZM35.2171 42.7202L35.079 42.6617L34.9906 42.8702H35.2171V42.7202ZM34.7636 43.978V43.828H34.6519L34.6199 43.9349L34.7636 43.978ZM34.7633 51.0213L34.6197 51.0643L34.6517 51.1713H34.7633V51.0213ZM38.1958 51.0213V51.1713H38.3739L38.3436 50.9957L38.1958 51.0213ZM38.1942 43.978L38.342 44.0034L38.3721 43.828H38.1942V43.978ZM47.1283 52.279V52.129H46.9783V52.279H47.1283ZM47.1283 59.7057H46.9783V59.8785L47.1494 59.8542L47.1283 59.7057ZM53.2625 52.279L53.4078 52.3161L53.4556 52.129H53.2625V52.279ZM54.5457 52.279V52.129H54.4277L54.3999 52.2436L54.5457 52.279ZM51.178 58.8253L51.0707 58.7204L51.2353 58.9639L51.178 58.8253ZM57.7828 52.279L57.9209 52.3375L58.0094 52.129H57.7828V52.279ZM68.1194 52.3489L67.9969 52.4354L68.1919 52.7117L68.2658 52.3817L68.1194 52.3489ZM68.1068 42.6199L68.2531 42.5868L68.253 42.5862L68.1068 42.6199ZM66.7741 50.443L66.8966 50.3565L66.8954 50.3548L66.7741 50.443ZM65.8937 50.2921L65.8055 50.1707V50.1707L65.8937 50.2921ZM65.7428 51.1725L65.8657 51.0865L65.8641 51.0842L65.7428 51.1725ZM67.906 54.2664L67.7831 54.3524L67.7847 54.3547L67.906 54.2664ZM68.7864 54.3922L68.7002 54.2689L68.6914 54.2761L68.7864 54.3922ZM71.8804 52.2289L71.9664 52.3519L71.9686 52.3502L71.8804 52.2289ZM72.0313 51.3485L72.1526 51.2603L72.0313 51.3485ZM71.1509 51.1976L71.2374 51.3202L71.2391 51.3189L71.1509 51.1976ZM69.3919 52.4393L69.2452 52.4083L69.1662 52.7822L69.4784 52.5618L69.3919 52.4393ZM69.3394 42.3432L69.1927 42.3746L69.193 42.3757L69.3394 42.3432ZM68.5848 41.8653L68.6162 42.0119L68.5848 41.8653ZM23.1827 52.6563L23.3293 52.6248L23.3291 52.6237L23.1827 52.6563ZM23.0814 42.7972L23.2284 42.8267L23.307 42.4349L22.99 42.6782L23.0814 42.7972ZM23.9373 53.1342L23.9059 52.9875L23.9373 53.1342ZM24.4152 52.3796L24.2689 52.4127L24.2691 52.4133L24.4152 52.3796ZM24.351 42.8874L24.47 42.796L24.2718 42.538L24.2042 42.8562L24.351 42.8874ZM25.7484 44.7077L25.6293 44.7991L25.6331 44.8037L25.7484 44.7077ZM26.6288 44.8334L26.5405 44.7121L26.5388 44.7134L26.6288 44.8334ZM26.7545 43.953L26.8759 43.8648L26.8737 43.8619L26.7545 43.953ZM24.4655 40.9597L24.3442 41.0479L24.3463 41.0508L24.4655 40.9597ZM23.5851 40.8339L23.4968 40.7126L23.494 40.7148L23.5851 40.8339ZM20.5917 43.1229L20.68 43.2443L20.6829 43.2421L20.5917 43.1229ZM20.466 44.0033L20.5873 43.9151L20.466 44.0033ZM21.3464 44.1291L21.4346 44.2505L21.4377 44.2481L21.3464 44.1291ZM41.406 70.7387L41.4375 70.5921L41.062 70.5115L41.2835 70.8252L41.406 70.7387ZM42.6516 72.5034L42.5291 72.5899L42.5303 72.5916L42.6516 72.5034ZM42.5007 73.3838L42.4124 73.2623L42.407 73.2666L42.5007 73.3838ZM42.1234 73.5095L42.1528 73.3624L42.1382 73.3595H42.1234V73.5095ZM41.5951 73.2328L41.4722 73.3188L41.4731 73.32L41.5951 73.2328ZM39.4319 70.1389L39.5548 70.0529L39.5532 70.0506L39.4319 70.1389ZM39.5828 69.2585L39.4968 69.1355L39.4946 69.1372L39.5828 69.2585ZM42.6768 67.0952L42.7627 67.2181L42.765 67.2165L42.6768 67.0952ZM43.5572 67.2461L43.6785 67.1579H43.6785L43.5572 67.2461ZM43.4062 68.1265L43.4928 68.2491L43.4945 68.2478L43.4062 68.1265ZM41.5065 69.4675L41.42 69.345L41.1412 69.5417L41.4747 69.6141L41.5065 69.4675ZM51.2549 69.4596L51.287 69.6061L51.2887 69.6057L51.2549 69.4596ZM52.0096 69.9375L52.1562 69.9061L52.0096 69.9375ZM51.5316 70.6921L51.5002 70.5454L51.4993 70.5456L51.5316 70.6921ZM51.0291 24.428L50.9998 24.5751L51.3911 24.6532L51.1481 24.3367L51.0291 24.428ZM49.7202 22.723L49.5988 22.8112L49.6012 22.8143L49.7202 22.723ZM49.846 21.8426L49.9342 21.9639V21.9639L49.846 21.8426ZM50.7264 21.9683L50.605 22.0566L50.6072 22.0594L50.7264 21.9683ZM53.0154 24.9617L53.1367 24.8734L53.1345 24.8706L53.0154 24.9617ZM52.8896 25.8421L52.8014 25.7207L52.7985 25.7229L52.8896 25.8421ZM49.8963 28.1311L49.9863 28.2511L49.9874 28.2503L49.8963 28.1311ZM49.1416 27.1249L49.0502 27.0059L49.0456 27.0097L49.1416 27.1249ZM50.9857 25.7093L51.077 25.8283L51.3371 25.6286L51.0159 25.5624L50.9857 25.7093ZM41.4699 25.7665L41.4379 25.62L41.4362 25.6204L41.4699 25.7665ZM40.7153 25.2886L40.862 25.2572L40.8615 25.2549L40.7153 25.2886ZM41.1932 24.534L41.2247 24.6807L41.2258 24.6804L41.1932 24.534ZM65.4668 37.9169C60.2924 37.9169 56.0833 33.7079 56.0833 28.5335H55.7833C55.7833 33.8736 60.1267 38.2169 65.4668 38.2169V37.9169ZM74.8502 28.5335C74.8502 33.7079 70.6412 37.9169 65.4668 37.9169V38.2169C70.8069 38.2169 75.1502 33.8736 75.1502 28.5335H74.8502ZM65.4668 19.15C70.6412 19.15 74.8502 23.3591 74.8502 28.5335H75.1502C75.1502 23.1934 70.8069 18.85 65.4668 18.85V19.15ZM56.0833 28.5335C56.0833 23.3591 60.2924 19.15 65.4668 19.15V18.85C60.1267 18.85 55.7833 23.1934 55.7833 28.5335H56.0833ZM65.4668 20.1077C60.8058 20.1077 57.041 23.8725 57.041 28.5335H57.341C57.341 24.0382 60.9715 20.4077 65.4668 20.4077V20.1077ZM73.8925 28.5335C73.8925 23.8723 70.1022 20.1077 65.4668 20.1077V20.4077C69.9371 20.4077 73.5925 24.0385 73.5925 28.5335H73.8925ZM65.4668 36.9592C70.1277 36.9592 73.8925 33.1944 73.8925 28.5335H73.5925C73.5925 33.0287 69.962 36.6592 65.4668 36.6592V36.9592ZM57.041 28.5335C57.041 33.1944 60.8058 36.9592 65.4668 36.9592V36.6592C60.9715 36.6592 57.341 33.0287 57.341 28.5335H57.041ZM17.8502 28.5338C17.8502 33.8739 22.1936 38.2172 27.5337 38.2172V37.9172C22.3593 37.9172 18.1502 33.7082 18.1502 28.5338H17.8502ZM27.5337 18.8503C22.1936 18.8503 17.8502 23.1937 17.8502 28.5338H18.1502C18.1502 23.3594 22.3593 19.1503 27.5337 19.1503V18.8503ZM37.2172 28.5338C37.2172 23.1937 32.8738 18.8503 27.5337 18.8503V19.1503C32.7081 19.1503 36.9172 23.3594 36.9172 28.5338H37.2172ZM27.5337 38.2172C32.8738 38.2172 37.2172 33.8739 37.2172 28.5338H36.9172C36.9172 33.7082 32.7081 37.9172 27.5337 37.9172V38.2172ZM19.4079 28.5338C19.4079 24.0385 23.0384 20.408 27.5337 20.408V20.108C22.8728 20.108 19.1079 23.8728 19.1079 28.5338H19.4079ZM27.5337 36.6595C23.0384 36.6595 19.4079 33.029 19.4079 28.5338H19.1079C19.1079 33.1947 22.8728 36.9595 27.5337 36.9595V36.6595ZM35.6594 28.5338C35.6594 33.029 32.0289 36.6595 27.5337 36.6595V36.9595C32.1946 36.9595 35.9594 33.1947 35.9594 28.5338H35.6594ZM27.5337 20.408C32.0289 20.408 35.6594 24.0385 35.6594 28.5338H35.9594C35.9594 23.8728 32.1946 20.108 27.5337 20.108V20.408ZM21.6694 28.5338C21.6694 25.2951 24.2949 22.6697 27.5335 22.6697V22.3697C24.1292 22.3697 21.3694 25.1295 21.3694 28.5338H21.6694ZM27.5335 34.3978C24.2949 34.3978 21.6694 31.7724 21.6694 28.5338H21.3694C21.3694 31.9381 24.1292 34.6978 27.5335 34.6978V34.3978ZM33.3975 28.5338C33.3975 31.7724 30.7721 34.3978 27.5335 34.3978V34.6978C30.9378 34.6978 33.6975 31.9381 33.6975 28.5338H33.3975ZM27.5335 22.6697C30.7721 22.6697 33.3975 25.2951 33.3975 28.5338H33.6975C33.6975 25.1295 30.9378 22.3697 27.5335 22.3697V22.6697ZM27.5335 21.6697C23.7426 21.6697 20.6694 24.7429 20.6694 28.5338H20.9694C20.9694 24.9085 23.9083 21.9697 27.5335 21.9697V21.6697ZM34.3975 28.5338C34.3975 24.7429 31.3244 21.6697 27.5335 21.6697V21.9697C31.1587 21.9697 34.0975 24.9085 34.0975 28.5338H34.3975ZM27.5335 35.3978C31.3244 35.3978 34.3975 32.3246 34.3975 28.5338H34.0975C34.0975 32.159 31.1587 35.0978 27.5335 35.0978V35.3978ZM20.6694 28.5338C20.6694 32.3246 23.7426 35.3978 27.5335 35.3978V35.0978C23.9083 35.0978 20.9694 32.159 20.9694 28.5338H20.6694ZM27.5335 60.3019C24.1292 60.3019 21.3694 63.0616 21.3694 66.4659H21.6694C21.6694 63.2273 24.2949 60.6019 27.5335 60.6019V60.3019ZM33.6975 66.4659C33.6975 63.0616 30.9378 60.3019 27.5335 60.3019V60.6019C30.7721 60.6019 33.3975 63.2273 33.3975 66.4659H33.6975ZM27.5335 72.6299C30.9378 72.6299 33.6975 69.8702 33.6975 66.4659H33.3975C33.3975 69.7045 30.7721 72.3299 27.5335 72.3299V72.6299ZM21.3694 66.4659C21.3694 69.8702 24.1292 72.6299 27.5335 72.6299V72.3299C24.2949 72.3299 21.6694 69.7045 21.6694 66.4659H21.3694ZM20.9694 66.4659C20.9694 62.8407 23.9083 59.9019 27.5335 59.9019V59.6019C23.7426 59.6019 20.6694 62.675 20.6694 66.4659H20.9694ZM27.5335 73.0299C23.9083 73.0299 20.9694 70.0911 20.9694 66.4659H20.6694C20.6694 70.2568 23.7426 73.3299 27.5335 73.3299V73.0299ZM34.0975 66.4659C34.0975 70.0911 31.1587 73.0299 27.5335 73.0299V73.3299C31.3244 73.3299 34.3975 70.2568 34.3975 66.4659H34.0975ZM27.5335 59.9019C31.1587 59.9019 34.0975 62.8407 34.0975 66.4659H34.3975C34.3975 62.675 31.3244 59.6019 27.5335 59.6019V59.9019ZM59.6016 66.4659C59.6016 63.2273 62.227 60.6019 65.4656 60.6019V60.3019C62.0613 60.3019 59.3016 63.0616 59.3016 66.4659H59.6016ZM65.4656 72.3299C62.227 72.3299 59.6016 69.7045 59.6016 66.4659H59.3016C59.3016 69.8702 62.0613 72.6299 65.4656 72.6299V72.3299ZM71.3297 66.4659C71.3297 69.7045 68.7042 72.3299 65.4656 72.3299V72.6299C68.8699 72.6299 71.6297 69.8702 71.6297 66.4659H71.3297ZM65.4656 60.6019C68.7042 60.6019 71.3297 63.2273 71.3297 66.4659H71.6297C71.6297 63.0616 68.8699 60.3019 65.4656 60.3019V60.6019ZM65.4656 59.6019C61.6747 59.6019 58.6016 62.675 58.6016 66.4659H58.9016C58.9016 62.8407 61.8404 59.9019 65.4656 59.9019V59.6019ZM72.3297 66.4659C72.3297 62.675 69.2565 59.6019 65.4656 59.6019V59.9019C69.0908 59.9019 72.0297 62.8407 72.0297 66.4659H72.3297ZM65.4656 73.3299C69.2565 73.3299 72.3297 70.2568 72.3297 66.4659H72.0297C72.0297 70.0911 69.0908 73.0299 65.4656 73.0299V73.3299ZM58.6016 66.4659C58.6016 70.2568 61.6747 73.3299 65.4656 73.3299V73.0299C61.8404 73.0299 58.9016 70.0911 58.9016 66.4659H58.6016ZM65.4656 22.3697C62.0613 22.3697 59.3016 25.1295 59.3016 28.5338H59.6016C59.6016 25.2951 62.227 22.6697 65.4656 22.6697V22.3697ZM71.6297 28.5338C71.6297 25.1295 68.8699 22.3697 65.4656 22.3697V22.6697C68.7042 22.6697 71.3297 25.2951 71.3297 28.5338H71.6297ZM65.4656 34.6978C68.8699 34.6978 71.6297 31.9381 71.6297 28.5338H71.3297C71.3297 31.7724 68.7042 34.3978 65.4656 34.3978V34.6978ZM59.3016 28.5338C59.3016 31.9381 62.0613 34.6978 65.4656 34.6978V34.3978C62.227 34.3978 59.6016 31.7724 59.6016 28.5338H59.3016ZM58.9016 28.5338C58.9016 24.9085 61.8404 21.9697 65.4656 21.9697V21.6697C61.6747 21.6697 58.6016 24.7429 58.6016 28.5338H58.9016ZM65.4656 35.0978C61.8404 35.0978 58.9016 32.159 58.9016 28.5338H58.6016C58.6016 32.3246 61.6747 35.3978 65.4656 35.3978V35.0978ZM72.0297 28.5338C72.0297 32.159 69.0908 35.0978 65.4656 35.0978V35.3978C69.2565 35.3978 72.3297 32.3246 72.3297 28.5338H72.0297ZM65.4656 21.9697C69.0908 21.9697 72.0297 24.9085 72.0297 28.5338H72.3297C72.3297 24.7429 69.2565 21.6697 65.4656 21.6697V21.9697ZM32.8418 47.4999C32.8418 53.6169 36.8716 58.81 42.4343 60.5424L42.5235 60.256C37.0828 58.5616 33.1418 53.4821 33.1418 47.4999H32.8418ZM46.4996 33.8421C38.9458 33.8421 32.8418 39.9716 32.8418 47.4999H33.1418C33.1418 40.1369 39.1118 34.1421 46.4996 34.1421V33.8421ZM49.9164 34.273C48.8246 33.9917 47.6797 33.8421 46.4996 33.8421V34.1421C47.6542 34.1421 48.774 34.2885 49.8416 34.5635L49.9164 34.273ZM50.565 34.4574C50.351 34.3907 50.1348 34.3292 49.9164 34.273L49.8416 34.5635C50.0551 34.6185 50.2666 34.6787 50.4758 34.7438L50.565 34.4574ZM60.1579 47.5C60.1579 41.3829 56.1279 36.1897 50.565 34.4574L50.4758 34.7438C55.9167 36.4381 59.8579 41.5177 59.8579 47.5H60.1579ZM46.5 61.1579C54.0537 61.1579 60.1579 55.0537 60.1579 47.5H59.8579C59.8579 54.888 53.888 60.8579 46.5 60.8579V61.1579ZM43.0828 60.7269C44.1748 61.0082 45.3198 61.1579 46.5 61.1579V60.8579C45.3453 60.8579 44.2254 60.7114 43.1577 60.4363L43.0828 60.7269ZM42.4343 60.5424C42.6482 60.6091 42.8645 60.6706 43.0828 60.7269L43.1577 60.4363C42.9441 60.3813 42.7327 60.3212 42.5235 60.256L42.4343 60.5424ZM39.5941 52.3161C40.1189 54.3703 40.9699 56.1493 42.0441 57.4674C43.118 58.7852 44.4216 59.6499 45.8494 59.8537L45.8918 59.5568C44.5594 59.3666 43.318 58.5558 42.2766 57.2779C41.2355 56.0003 40.4011 54.2632 39.8847 52.2419L39.5941 52.3161ZM45.8706 52.129H39.7394V52.429H45.8706V52.129ZM46.0206 59.7052V52.279H45.7206V59.7052H46.0206ZM38.3104 52.3143C38.9702 55.0359 40.1737 57.3525 41.7183 58.9319L41.9328 58.7221C40.434 57.1896 39.2521 54.9253 38.6019 52.2436L38.3104 52.3143ZM35.2168 52.429H38.4561V52.129H35.2168V52.429ZM41.8828 58.6884C38.9476 57.476 36.5936 55.142 35.3549 52.2204L35.0787 52.3375C36.3481 55.3316 38.7601 57.7231 41.7683 58.9657L41.8828 58.6884ZM39.466 51.1713H45.8706V50.8713H39.466V51.1713ZM39.0059 47.4999C39.0059 48.7316 39.1151 49.9228 39.3184 51.0479L39.6136 50.9946C39.4135 49.8873 39.3059 48.714 39.3059 47.4999H39.0059ZM39.3185 43.9513C39.1151 45.0766 39.0059 46.268 39.0059 47.4999H39.3059C39.3059 46.2857 39.4136 45.1121 39.6137 44.0046L39.3185 43.9513ZM45.8706 43.828H39.4661V44.128H45.8706V43.828ZM46.0206 51.0213V43.978H45.7206V51.0213H46.0206ZM39.7395 42.8702H45.8706V42.5702H39.7395V42.8702ZM45.8494 35.1461C44.4217 35.3499 43.1181 36.2145 42.0442 37.5322C40.9701 38.8503 40.119 40.6291 39.5942 42.6831L39.8849 42.7574C40.4013 40.7362 41.2357 38.9993 42.2768 37.7218C43.3181 36.4439 44.5594 35.6333 45.8918 35.4431L45.8494 35.1461ZM46.0206 42.7202V35.2946H45.7206V42.7202H46.0206ZM47.2783 51.0213V43.978H46.9783V51.0213H47.2783ZM53.5359 50.8713H47.1283V51.1713H53.5359V50.8713ZM53.696 47.4999C53.696 48.714 53.5883 49.8873 53.3883 50.9946L53.6835 51.0479C53.8868 49.9228 53.996 48.7316 53.996 47.4999H53.696ZM53.3881 44.0046C53.5883 45.1121 53.696 46.2857 53.696 47.4999H53.996C53.996 46.268 53.8867 45.0766 53.6834 43.9513L53.3881 44.0046ZM47.1283 44.128H53.5358V43.828H47.1283V44.128ZM47.1283 42.8702H53.2623V42.5702H47.1283V42.8702ZM46.9783 35.2942V42.7202H47.2783V35.2942H46.9783ZM53.4077 42.6831C52.8826 40.6284 52.0311 38.849 50.9565 37.5308C49.8821 36.213 48.5779 35.3486 47.1494 35.1457L47.1072 35.4427C48.4402 35.6321 49.6821 36.4425 50.724 37.7204C51.7656 38.9981 52.6004 40.7355 53.117 42.7574L53.4077 42.6831ZM55.2537 47.4999C55.2537 46.2737 55.15 45.0844 54.9555 43.9525L54.6599 44.0034C54.8514 45.1182 54.9537 46.2905 54.9537 47.4999H55.2537ZM54.9539 51.0468C55.1494 49.9151 55.2537 48.726 55.2537 47.4999H54.9537C54.9537 48.709 54.8508 49.8811 54.6583 50.9957L54.9539 51.0468ZM58.2363 50.8713H54.8061V51.1713H58.2363V50.8713ZM58.5998 47.4999C58.5998 48.7092 58.4225 49.8768 58.0926 50.9782L58.38 51.0643C58.7181 49.9353 58.8998 48.7387 58.8998 47.4999H58.5998ZM58.0924 44.021C58.4224 45.1226 58.5998 46.2904 58.5998 47.4999H58.8998C58.8998 46.2609 58.7181 45.0641 58.3798 43.9349L58.0924 44.021ZM54.8077 44.128H58.2361V43.828H54.8077V44.128ZM54.5486 42.8702H57.7826V42.5702H54.5486V42.8702ZM51.0892 36.287C52.5829 37.8191 53.7569 40.0794 54.4027 42.7554L54.6944 42.6851C54.039 39.9694 52.8436 37.6567 51.3041 36.0776L51.0892 36.287ZM57.9207 42.6617C56.6544 39.6755 54.2515 37.2888 51.2542 36.0438L51.1391 36.3208C54.0638 37.5357 56.4088 39.865 57.6445 42.7788L57.9207 42.6617ZM41.6991 36.0762C40.159 37.6554 38.9631 39.9686 38.3075 42.6851L38.5991 42.7554C39.2451 40.0787 40.4196 37.8178 41.9139 36.2857L41.6991 36.0762ZM35.3552 42.7788C36.5914 39.8639 38.9378 37.534 41.864 36.3195L41.749 36.0424C38.7501 37.287 36.3459 39.6744 35.079 42.6617L35.3552 42.7788ZM38.4533 42.5702H35.2171V42.8702H38.4533V42.5702ZM34.3999 47.5C34.3999 46.2904 34.5773 45.1226 34.9073 44.021L34.6199 43.9349C34.2816 45.0642 34.0999 46.261 34.0999 47.5H34.3999ZM34.907 50.9782C34.5772 49.8769 34.3999 48.7093 34.3999 47.5H34.0999C34.0999 48.7388 34.2815 49.9353 34.6197 51.0643L34.907 50.9782ZM38.1958 50.8713H34.7633V51.1713H38.1958V50.8713ZM37.7482 47.4999C37.7482 48.726 37.8525 49.9151 38.0479 51.0468L38.3436 50.9957C38.151 49.8811 38.0482 48.709 38.0482 47.4999H37.7482ZM38.0463 43.9526C37.8518 45.0844 37.7482 46.2737 37.7482 47.4999H38.0482C38.0482 46.2905 38.1504 45.1182 38.342 44.0034L38.0463 43.9526ZM34.7636 44.128H38.1942V43.828H34.7636V44.128ZM46.9783 52.279V59.7057H47.2783V52.279H46.9783ZM53.2625 52.129H47.1283V52.429H53.2625V52.129ZM47.1494 59.8542C48.5779 59.6512 49.8822 58.7868 50.9567 57.4688C52.0313 56.1505 52.8828 54.371 53.4078 52.3161L53.1171 52.2419C52.6006 54.2639 51.7658 56.0015 50.7241 57.2792C49.6823 58.5573 48.4403 59.3678 47.1072 59.5572L47.1494 59.8542ZM54.3999 52.2436C53.75 54.9243 52.5688 57.188 51.0707 58.7204L51.2853 58.9301C52.8291 57.3508 54.0319 55.0348 54.6915 52.3143L54.3999 52.2436ZM57.7828 52.129H54.5457V52.429H57.7828V52.129ZM51.2353 58.9639C54.2416 57.721 56.652 55.3302 57.9209 52.3375L57.6447 52.2204C56.4066 55.1407 54.0541 57.4738 51.1207 58.6867L51.2353 58.9639ZM68.2658 52.3817C68.9875 49.1574 68.9833 45.8095 68.2531 42.5868L67.9605 42.653C68.6809 45.8324 68.685 49.1353 67.9731 52.3162L68.2658 52.3817ZM66.6515 50.5295L67.9969 52.4354L68.242 52.2624L66.8966 50.3565L66.6515 50.5295ZM65.9819 50.4134C66.1875 50.2638 66.4972 50.3173 66.6528 50.5312L66.8954 50.3548C66.6485 50.0152 66.1532 49.9178 65.8055 50.1707L65.9819 50.4134ZM65.8641 51.0842C65.7145 50.8786 65.768 50.5689 65.9819 50.4134L65.8055 50.1707C65.4659 50.4177 65.3685 50.9129 65.6214 51.2607L65.8641 51.0842ZM68.029 54.1805L65.8657 51.0865L65.6198 51.2584L67.7831 54.3524L68.029 54.1805ZM68.6914 54.2761C68.4876 54.4429 68.1826 54.3917 68.0273 54.1782L67.7847 54.3547C68.0319 54.6945 68.5319 54.7943 68.8814 54.5083L68.6914 54.2761ZM71.7944 52.106L68.7005 54.2693L68.8724 54.5151L71.9663 52.3519L71.7944 52.106ZM71.91 51.4368C72.0595 51.6424 72.006 51.9521 71.7922 52.1076L71.9686 52.3502C72.3081 52.1033 72.4056 51.6081 72.1526 51.2603L71.91 51.4368ZM71.2391 51.3189C71.4447 51.1694 71.7545 51.2229 71.91 51.4368L72.1526 51.2603C71.9057 50.9208 71.4105 50.8234 71.0627 51.0763L71.2391 51.3189ZM69.4784 52.5618L71.2374 51.3202L71.0644 51.0751L69.3054 52.3167L69.4784 52.5618ZM69.193 42.3757C69.925 45.6699 69.9424 49.1072 69.2452 52.4083L69.5387 52.4703C70.2448 49.1273 70.2272 45.6467 69.4858 42.3107L69.193 42.3757ZM68.6162 42.0119C68.8911 41.953 69.1354 42.1072 69.1927 42.3746L69.4861 42.3118C69.3924 41.8749 68.9827 41.6266 68.5533 41.7186L68.6162 42.0119ZM68.253 42.5862C68.1953 42.3363 68.3504 42.0689 68.6162 42.0119L68.5533 41.7186C68.1148 41.8126 67.8674 42.2495 67.9607 42.6536L68.253 42.5862ZM23.3291 52.6237C22.6145 49.4078 22.5809 46.0555 23.2284 42.8267L22.9343 42.7677C22.2785 46.0374 22.3125 49.432 23.0362 52.6888L23.3291 52.6237ZM23.9059 52.9875C23.6309 53.0464 23.3866 52.8923 23.3293 52.6248L23.036 52.6877C23.1296 53.1246 23.5394 53.3729 23.9687 53.2809L23.9059 52.9875ZM24.2691 52.4133C24.3267 52.6632 24.1717 52.9306 23.9059 52.9875L23.9687 53.2809C24.4072 53.1869 24.6547 52.75 24.5614 52.3458L24.2691 52.4133ZM24.2042 42.8562C23.5352 46.0068 23.5568 49.2693 24.2689 52.4127L24.5615 52.3464C23.8589 49.2453 23.8377 46.0268 24.4977 42.9185L24.2042 42.8562ZM25.8673 44.6163L24.47 42.796L24.232 42.9787L25.6294 44.799L25.8673 44.6163ZM26.2515 44.8092C26.1033 44.8092 25.9668 44.7355 25.8636 44.6116L25.6331 44.8037C25.7815 44.9817 25.9972 45.1092 26.2515 45.1092V44.8092ZM26.5388 44.7134C26.4615 44.7714 26.3668 44.8092 26.2515 44.8092V45.1092C26.4379 45.1092 26.5948 45.0464 26.7188 44.9534L26.5388 44.7134ZM26.6332 44.0413C26.7891 44.2556 26.7457 44.5629 26.5405 44.7121L26.717 44.9548C27.0653 44.7015 27.1224 44.2038 26.8758 43.8648L26.6332 44.0413ZM24.3463 41.0508L26.6354 44.0442L26.8737 43.8619L24.5847 40.8686L24.3463 41.0508ZM23.6733 40.9552C23.8877 40.7993 24.195 40.8428 24.3442 41.0479L24.5868 40.8715C24.3335 40.5232 23.8359 40.466 23.4969 40.7126L23.6733 40.9552ZM20.6829 43.2421L23.6762 40.9531L23.494 40.7148L20.5006 43.0038L20.6829 43.2421ZM20.5873 43.9151C20.4314 43.7008 20.4748 43.3934 20.68 43.2443L20.5035 43.0016C20.1552 43.2549 20.0981 43.7525 20.3447 44.0916L20.5873 43.9151ZM21.2581 44.0078C21.0438 44.1637 20.7365 44.1202 20.5873 43.9151L20.3447 44.0916C20.5979 44.4398 21.0956 44.497 21.4346 44.2504L21.2581 44.0078ZM22.99 42.6782L21.255 44.0101L21.4377 44.2481L23.1727 42.9162L22.99 42.6782ZM27.5335 75.8497C22.3591 75.8497 18.15 71.6406 18.15 66.4662H17.85C17.85 71.8063 22.1934 76.1497 27.5335 76.1497V75.8497ZM36.9169 66.4662C36.9169 71.6406 32.7079 75.8497 27.5335 75.8497V76.1497C32.8736 76.1497 37.2169 71.8063 37.2169 66.4662H36.9169ZM27.5335 57.0827C32.7079 57.0827 36.9169 61.2918 36.9169 66.4662H37.2169C37.2169 61.1261 32.8736 56.7827 27.5335 56.7827V57.0827ZM18.15 66.4662C18.15 61.2918 22.3591 57.0827 27.5335 57.0827V56.7827C22.1934 56.7827 17.85 61.1261 17.85 66.4662H18.15ZM27.5335 58.0404C22.8725 58.0404 19.1077 61.8053 19.1077 66.4662H19.4077C19.4077 61.971 23.0382 58.3404 27.5335 58.3404V58.0404ZM35.9592 66.4662C35.9592 61.8053 32.1944 58.0404 27.5335 58.0404V58.3404C32.0287 58.3404 35.6592 61.971 35.6592 66.4662H35.9592ZM27.5335 74.892C32.1944 74.892 35.9592 71.1271 35.9592 66.4662H35.6592C35.6592 70.9614 32.0287 74.592 27.5335 74.592V74.892ZM19.1077 66.4662C19.1077 71.1271 22.8725 74.892 27.5335 74.892V74.592C23.0382 74.592 19.4077 70.9614 19.4077 66.4662H19.1077ZM55.7833 66.4662C55.7833 71.8063 60.1267 76.1497 65.4668 76.1497V75.8497C60.2924 75.8497 56.0833 71.6406 56.0833 66.4662H55.7833ZM65.4668 56.7827C60.1267 56.7827 55.7833 61.1261 55.7833 66.4662H56.0833C56.0833 61.2918 60.2924 57.0827 65.4668 57.0827V56.7827ZM75.1502 66.4662C75.1502 61.1261 70.8069 56.7827 65.4668 56.7827V57.0827C70.6412 57.0827 74.8502 61.2918 74.8502 66.4662H75.1502ZM65.4668 76.1497C70.8069 76.1497 75.1502 71.8063 75.1502 66.4662H74.8502C74.8502 71.6406 70.6412 75.8497 65.4668 75.8497V76.1497ZM57.341 66.4662C57.341 61.971 60.9715 58.3404 65.4668 58.3404V58.0404C60.8058 58.0404 57.041 61.8053 57.041 66.4662H57.341ZM65.4668 74.592C60.9715 74.592 57.341 70.9614 57.341 66.4662H57.041C57.041 71.1271 60.8058 74.892 65.4668 74.892V74.592ZM73.5925 66.4662C73.5925 70.9614 69.962 74.592 65.4668 74.592V74.892C70.1277 74.892 73.8925 71.1271 73.8925 66.4662H73.5925ZM65.4668 58.3404C69.9371 58.3404 73.5925 61.9713 73.5925 66.4662H73.8925C73.8925 61.805 70.1022 58.0404 65.4668 58.0404V58.3404ZM41.3745 70.8854C43.0029 71.2348 44.6761 71.4207 46.3499 71.4207V71.1207C44.6982 71.1207 43.0461 70.9372 41.4375 70.5921L41.3745 70.8854ZM42.7742 72.4169L41.5285 70.6522L41.2835 70.8252L42.5291 72.5899L42.7742 72.4169ZM42.5889 73.5051C42.9284 73.2581 43.0259 72.7629 42.7729 72.4151L42.5303 72.5916C42.6798 72.7972 42.6263 73.1069 42.4125 73.2625L42.5889 73.5051ZM42.094 73.6566C42.2821 73.6943 42.4527 73.6143 42.5944 73.5009L42.407 73.2666C42.2972 73.3545 42.2162 73.3751 42.1528 73.3624L42.094 73.6566ZM41.4731 73.32C41.6267 73.5351 41.8732 73.6595 42.1234 73.6595V73.3595C41.971 73.3595 41.8151 73.2827 41.7172 73.1457L41.4731 73.32ZM39.3089 70.2248L41.4722 73.3188L41.7181 73.1469L39.5548 70.0529L39.3089 70.2248ZM39.4946 69.1372C39.155 69.3841 39.0576 69.8793 39.3106 70.2271L39.5532 70.0506C39.4036 69.845 39.4571 69.5353 39.671 69.3798L39.4946 69.1372ZM42.5908 66.9723L39.4968 69.1355L39.6687 69.3814L42.7627 67.2181L42.5908 66.9723ZM43.6785 67.1579C43.4316 66.8184 42.9363 66.7209 42.5885 66.9739L42.765 67.2165C42.9706 67.067 43.2803 67.1205 43.4359 67.3343L43.6785 67.1579ZM43.4945 68.2478C43.834 68.0009 43.9314 67.5057 43.6785 67.1579L43.4359 67.3343C43.5854 67.54 43.5319 67.8497 43.318 68.0052L43.4945 68.2478ZM41.593 69.5901L43.4927 68.2491L43.3197 68.004L41.42 69.345L41.593 69.5901ZM51.2229 69.313C48.0364 70.0101 44.7258 70.0127 41.5383 69.3209L41.4747 69.6141C44.7042 70.315 48.0584 70.3123 51.287 69.6061L51.2229 69.313ZM52.1562 69.9061C52.0623 69.4675 51.6253 69.2201 51.2212 69.3134L51.2887 69.6057C51.5386 69.548 51.8059 69.7031 51.8629 69.9689L52.1562 69.9061ZM51.5631 70.8388C52 70.7452 52.2483 70.3354 52.1562 69.9061L51.8629 69.9689C51.9218 70.2439 51.7676 70.4881 51.5002 70.5454L51.5631 70.8388ZM46.3499 71.4207C48.0971 71.4207 49.8436 71.2181 51.564 70.8386L51.4993 70.5456C49.7987 70.9208 48.0739 71.1207 46.3499 71.1207V71.4207ZM51.1481 24.3367L49.8392 22.6316L49.6012 22.8143L50.9102 24.5194L51.1481 24.3367ZM49.8415 22.6347C49.6856 22.4204 49.7291 22.113 49.9342 21.9639L49.7577 21.7212C49.4095 21.9745 49.3523 22.4721 49.5989 22.8112L49.8415 22.6347ZM49.9342 21.9639C50.1486 21.808 50.4559 21.8514 50.6051 22.0565L50.8477 21.8801C50.5944 21.5318 50.0968 21.4747 49.7577 21.7212L49.9342 21.9639ZM50.6072 22.0594L52.8962 25.0528L53.1345 24.8706L50.8455 21.8772L50.6072 22.0594ZM52.8941 25.0499C53.05 25.2643 53.0065 25.5716 52.8014 25.7208L52.9779 25.9634C53.3261 25.7101 53.3833 25.2125 53.1367 24.8735L52.8941 25.0499ZM52.7985 25.7229L49.8052 28.012L49.9874 28.2503L52.9807 25.9612L52.7985 25.7229ZM49.8063 28.0111C49.729 28.069 49.6344 28.1069 49.519 28.1069V28.4069C49.7054 28.4069 49.8623 28.3441 49.9863 28.2511L49.8063 28.0111ZM49.519 28.1069C49.2496 28.1069 49.0401 27.8974 49.0401 27.628H48.7401C48.7401 28.063 49.084 28.4069 49.519 28.4069V28.1069ZM49.0401 27.628C49.0401 27.4798 49.1138 27.3434 49.2377 27.2402L49.0456 27.0097C48.8676 27.158 48.7401 27.3738 48.7401 27.628H49.0401ZM49.233 27.2439L51.077 25.8283L50.8943 25.5904L49.0503 27.006L49.233 27.2439ZM51.0159 25.5624C47.8587 24.9116 44.5885 24.9308 41.4379 25.62L41.502 25.9131C44.6115 25.2329 47.8392 25.2139 50.9554 25.8562L51.0159 25.5624ZM41.4362 25.6204C41.1863 25.678 40.9189 25.523 40.862 25.2572L40.5686 25.32C40.6626 25.7585 41.0995 26.006 41.5037 25.9127L41.4362 25.6204ZM40.8615 25.2549C40.8038 25.005 40.9589 24.7376 41.2247 24.6807L41.1618 24.3873C40.7233 24.4813 40.4759 24.9182 40.5692 25.3223L40.8615 25.2549ZM41.2258 24.6804C44.4341 23.9675 47.7781 23.9324 50.9998 24.5751L51.0585 24.2809C47.796 23.63 44.4098 23.6655 41.1607 24.3876L41.2258 24.6804Z" fill="#243C70"/>
<path d="M65.4665 73.4335C61.6179 73.4335 58.4736 70.3144 58.4736 66.4406C58.4736 62.5669 61.5928 59.4478 65.4665 59.4478C69.3403 59.4478 72.4594 62.5669 72.4594 66.4406C72.4342 70.3144 69.3151 73.4335 65.4665 73.4335Z" fill="white"/>
<path d="M65.4677 70.8682C65.1156 70.8682 64.8389 70.5915 64.8389 70.2394V66.4914C64.8389 66.1392 65.1156 65.8625 65.4677 65.8625C65.8199 65.8625 66.0966 66.1392 66.0966 66.4914V70.2394C66.0966 70.5915 65.8199 70.8682 65.4677 70.8682Z" fill="#243C70"/>
<path d="M65.4667 66.6925C65.2907 66.6925 65.1397 66.617 65.014 66.5164L62.5992 64.1016C62.3476 63.8501 62.3476 63.4728 62.574 63.2212C62.8004 62.9697 63.2029 62.9697 63.4544 63.1961C63.4544 63.1961 63.4544 63.1961 63.4796 63.2212L65.4416 65.1833L67.4036 63.2212C67.6552 62.9697 68.0325 62.9697 68.284 63.1961C68.5356 63.4225 68.5356 63.8249 68.3092 64.0765C68.3092 64.0765 68.3092 64.0765 68.284 64.1016L65.8692 66.5164C65.7937 66.617 65.6428 66.6925 65.4667 66.6925Z" fill="#243C70"/>
<path d="M67.5792 67.1203H63.3281C62.9759 67.1203 62.6992 66.8436 62.6992 66.4914C62.6992 66.1392 62.9759 65.8625 63.3281 65.8625H67.5792C67.9313 65.8625 68.208 66.1392 68.208 66.4914C68.208 66.8436 67.9313 67.1203 67.5792 67.1203Z" fill="#243C70"/>
<path d="M67.5792 69.1073H63.3281C62.9759 69.1073 62.6992 68.8306 62.6992 68.4785C62.6992 68.1263 62.9759 67.8496 63.3281 67.8496H67.5792C67.9313 67.8496 68.208 68.1263 68.208 68.4785C68.208 68.8306 67.9313 69.1073 67.5792 69.1073Z" fill="#243C70"/>
<path d="M27.5329 73.4335C23.6843 73.4335 20.54 70.3144 20.54 66.4406C20.54 62.592 23.6592 59.4478 27.5329 59.4478C31.4067 59.4478 34.5258 62.5669 34.5258 66.4406C34.5258 70.3144 31.3815 73.4335 27.5329 73.4335Z" fill="white"/>
<path d="M28.7421 70.7925C26.3524 70.7673 24.4155 68.8304 24.4407 66.4156C24.4658 64.0511 26.3776 62.1394 28.7421 62.1143C29.0942 62.1143 29.3709 62.391 29.3709 62.7431C29.3709 63.0953 29.0942 63.372 28.7421 63.372C27.0567 63.3971 25.6732 64.7806 25.6984 66.4659C25.7235 68.1513 27.0567 69.5096 28.7421 69.5096C29.0942 69.5096 29.3709 69.7863 29.3709 70.1385C29.3709 70.4906 29.0942 70.7925 28.7421 70.7925Z" fill="#243C70"/>
<path d="M28.087 65.8876H24.4648C24.1126 65.8876 23.8359 65.6109 23.8359 65.2587C23.8359 64.9066 24.1126 64.6299 24.4648 64.6299H28.087C28.4392 64.6299 28.7159 64.9066 28.7159 65.2587C28.7159 65.6109 28.4392 65.8876 28.087 65.8876Z" fill="#243C70"/>
<path d="M28.087 68.3021H24.4648C24.1126 68.3021 23.8359 68.0255 23.8359 67.6733C23.8359 67.3211 24.1126 67.0444 24.4648 67.0444H28.087C28.4392 67.0444 28.7159 67.3211 28.7159 67.6733C28.7159 68.0255 28.4392 68.3021 28.087 68.3021Z" fill="#243C70"/>
<path d="M65.4665 35.5261C61.6179 35.5261 58.4736 32.4069 58.4736 28.5332C58.4736 24.6846 61.5928 21.5403 65.4665 21.5403C69.3403 21.5403 72.4594 24.6594 72.4594 28.5332C72.4342 32.3818 69.3151 35.5261 65.4665 35.5261Z" fill="white"/>
<path d="M66.0455 29.7909H63.1025C62.7503 29.7909 62.4736 29.5142 62.4736 29.1621C62.4736 28.8099 62.7503 28.5332 63.1025 28.5332H66.0455C66.3977 28.5332 66.6744 28.8099 66.6744 29.1621C66.6744 29.5142 66.3977 29.7909 66.0455 29.7909Z" fill="#243C70"/>
<path d="M66.0455 27.8041H63.1025C62.7503 27.8041 62.4736 27.5274 62.4736 27.1752C62.4736 26.8231 62.7503 26.5464 63.1025 26.5464H66.0455C66.3977 26.5464 66.6744 26.8231 66.6744 27.1752C66.6744 27.5274 66.3977 27.8041 66.0455 27.8041Z" fill="#243C70"/>
<path d="M66.1189 32.2815H62.7734C62.4212 32.2815 62.1445 32.0048 62.1445 31.6527C62.1445 31.3005 62.4212 31.0238 62.7734 31.0238H66.1189C66.7226 31.0238 67.3012 30.722 67.6785 30.244C67.8797 29.9673 68.2822 29.917 68.5589 30.1183C68.8356 30.3195 68.8859 30.722 68.6846 30.9986C68.0558 31.8036 67.1251 32.2815 66.1189 32.2815Z" fill="#243C70"/>
<path d="M63.5292 32.2815C63.1771 32.2815 62.9004 32.0048 62.9004 31.6526C62.9004 31.6023 62.9004 31.5771 62.9004 31.5268L63.9569 25.7917C64.1581 24.7352 65.1643 24.0309 66.2208 24.2321C66.2711 24.2321 66.3214 24.2572 66.3717 24.2572C66.6987 24.3327 66.8999 24.6849 66.8245 25.0119C66.749 25.3389 66.3968 25.5401 66.0698 25.4647C65.6925 25.364 65.3152 25.5904 65.2146 25.9677V26.018L64.1581 31.7532C64.0826 32.0802 63.8311 32.2815 63.5292 32.2815Z" fill="#243C70"/>
<path d="M27.5329 35.5261C23.6843 35.5261 20.54 32.4069 20.54 28.5332C20.54 24.6846 23.6592 21.5403 27.5329 21.5403C31.3815 21.5403 34.5258 24.6594 34.5258 28.5332C34.5258 32.3818 31.3815 35.5261 27.5329 35.5261Z" fill="white"/>
<path d="M28.3124 31.9797H25.797C25.4448 31.9797 25.1681 31.703 25.1681 31.3508C25.1681 30.9987 25.4448 30.722 25.797 30.722H28.3124C28.74 30.722 29.1173 30.3698 29.1173 29.9171C29.1173 29.4894 28.7652 29.1121 28.3124 29.1121H26.7277C25.5957 29.1121 24.665 28.1814 24.665 27.0495C24.665 25.9175 25.5957 24.9868 26.7277 24.9868H28.9664C29.3186 24.9868 29.5953 25.2635 29.5953 25.6157C29.5953 25.9678 29.3186 26.2445 28.9664 26.2445H26.7277C26.3001 26.2445 25.9228 26.5967 25.9228 27.0495C25.9228 27.4771 26.2749 27.8544 26.7277 27.8544H28.3124C29.4444 27.8544 30.3751 28.7851 30.3751 29.9171C30.3751 31.049 29.4695 31.9797 28.3124 31.9797Z" fill="#243C70"/>
<path d="M27.5341 32.9608C27.182 32.9608 26.9053 32.6841 26.9053 32.3319V24.685C26.9053 24.3328 27.182 24.0562 27.5341 24.0562C27.8863 24.0562 28.163 24.3328 28.163 24.685V32.3319C28.163 32.6589 27.8863 32.9608 27.5341 32.9608Z" fill="#243C70"/>
</g>
<defs>
<linearGradient id="paint0_linear_223_0" x1="5.36421" y1="23.0232" x2="86.9212" y2="80.514" gradientUnits="userSpaceOnUse">
<stop stop-color="#CCEEE3"/>
<stop offset="1" stop-color="#B1C9F6"/>
</linearGradient>
<clipPath id="clip0_223_0">
<rect width="93" height="93" fill="white"/>
</clipPath>
</defs>
</svg>
