<svg width="116" height="116" viewBox="0 0 116 116" fill="none" xmlns="http://www.w3.org/2000/svg">
<path d="M70.2509 20.244C65.3956 8.31117 53.6504 -0.0838755 39.9536 0.000632271C22.4802 0.108249 8.11339 14.2025 7.68949 31.6709C7.48037 40.2893 10.6298 48.1694 15.9214 54.0967C20.1398 58.8219 22.2568 65.0454 22.0434 71.3762C22.015 72.2177 22.0107 73.0652 22.0316 73.9182C22.5898 96.8917 42.2153 116.014 65.1956 116C89.0148 115.986 108.319 96.6719 108.319 72.8495C108.319 55.3875 97.9465 40.3496 83.0267 33.5584C77.2115 30.9115 72.6588 26.1618 70.2509 20.244Z" fill="url(#paint0_linear_361_212)"/>
<path opacity="0.1" d="M106.359 67.9563H90.0926C90.5706 66.6796 90.978 65.3685 91.3071 64.0266L100.077 61.5289C100.823 61.3164 101.338 60.6347 101.338 59.8587V51.3835C101.338 50.6075 100.823 49.9258 100.077 49.7133L91.3071 47.2156C90.4482 43.715 89.0673 40.4197 87.248 37.4189L91.6837 29.4504C92.0611 28.7726 91.9429 27.9266 91.3944 27.3778L85.4016 21.385C84.8528 20.8363 84.0069 20.7183 83.329 21.0957L75.3605 25.5313C72.3597 23.712 69.0644 22.3312 65.5638 21.4723L63.0659 12.7025C62.8534 11.9562 62.1717 11.4417 61.3957 11.4417H52.9207C52.1447 11.4417 51.463 11.9564 51.2504 12.7025L48.7526 21.4723C45.5091 22.2679 42.4451 23.517 39.6248 25.1428V13.8638C39.6248 12.6096 38.608 11.5928 37.3538 11.5928H9.6402C8.38595 11.5928 7.36914 12.6096 7.36914 13.8638V35.9034C7.36914 37.1576 8.38595 38.1744 9.6402 38.1744H26.6294C25.0281 40.9707 23.7967 44.0055 23.0092 47.2156L14.2394 49.7133C13.4931 49.9258 12.9786 50.6075 12.9786 51.3835V59.8587C12.9786 60.6347 13.4934 61.3164 14.2394 61.5289L23.0092 64.0266C23.8681 67.5272 25.249 70.8225 27.0683 73.8234L22.6327 81.7918C22.2552 82.4697 22.3735 83.3157 22.922 83.8644L28.9148 89.8572C29.4635 90.4059 30.3095 90.524 30.9874 90.1465L38.9558 85.7109C41.9566 87.5302 45.252 88.9111 48.7526 89.77L51.2504 98.5397C51.463 99.286 52.1447 99.8006 52.9207 99.8006H61.3957C62.1717 99.8006 62.8534 99.2858 63.0659 98.5397L65.5638 89.77C66.9354 89.4335 68.2741 89.0142 69.5773 88.5223V92.2667C69.5773 93.5209 70.5941 94.5378 71.8484 94.5378H106.359C107.613 94.5378 108.63 93.5209 108.63 92.2667V70.2271C108.63 68.9731 107.613 67.9563 106.359 67.9563Z" fill="#242F4D"/>
<path d="M101.338 64.6166V56.1413C101.338 55.3653 100.823 54.6836 100.077 54.4711L91.3071 51.9734C90.4482 48.4728 89.0673 45.1775 87.248 42.1767L91.6836 34.2082C92.0611 33.5304 91.9428 32.6844 91.3943 32.1356L85.4015 26.1428C84.8527 25.5941 84.0068 25.4761 83.3289 25.8535L75.3605 30.2892C72.3596 28.4699 69.0643 27.089 65.5637 26.2301L63.0658 17.4603C62.8533 16.714 62.1716 16.1995 61.3956 16.1995H52.9206C52.1446 16.1995 51.4629 16.7142 51.2504 17.4603L48.7525 26.2301C45.2519 27.089 41.9565 28.4699 38.9557 30.2892L30.9873 25.8535C30.3094 25.4761 29.4634 25.5943 28.9147 26.1428L22.9219 32.1356C22.3732 32.6844 22.2551 33.5304 22.6326 34.2082L27.0682 42.1767C25.2489 45.1775 23.868 48.4728 23.0091 51.9734L14.2393 54.4711C13.493 54.6836 12.9785 55.3653 12.9785 56.1413V64.6166C12.9785 65.3925 13.4933 66.0742 14.2393 66.2868L23.0091 68.7844C23.868 72.285 25.2489 75.5804 27.0682 78.5812L22.6326 86.5496C22.2551 87.2275 22.3734 88.0735 22.9219 88.6222L28.9147 94.615C29.4634 95.1637 30.3094 95.2818 30.9873 94.9043L38.9557 90.4687C41.9565 92.288 45.2519 93.6689 48.7525 94.5278L51.2504 103.298C51.4629 104.044 52.1446 104.558 52.9206 104.558H61.3956C62.1716 104.558 62.8533 104.044 63.0658 103.298L65.5637 94.5278C69.0643 93.6689 72.3596 92.288 75.3605 90.4687L83.3289 94.9043C84.0068 95.2818 84.8527 95.1635 85.4015 94.615L91.3943 88.6222C91.943 88.0735 92.0611 87.2275 91.6836 86.5496L87.248 78.5812C89.0673 75.5804 90.4482 72.285 91.3071 68.7844L100.077 66.2865C100.823 66.0743 101.338 65.3923 101.338 64.6166Z" fill="#78B5EE"/>
<path d="M39.6247 29.8949V44.0007C39.6247 45.2536 38.6074 46.2709 37.3545 46.2709H24.9412C25.5619 44.8549 26.2756 43.4864 27.0686 42.1769L22.6325 34.2087C22.2564 33.5313 22.3742 32.6839 22.9225 32.1356L28.9151 26.1431C29.4633 25.5948 30.3107 25.477 30.9881 25.8531L38.9563 30.2892C39.1761 30.1555 39.4004 30.0241 39.6247 29.8949Z" fill="#CCA1FF"/>
<path d="M57.1582 81.6758C68.9201 81.6758 78.4551 72.1408 78.4551 60.3789C78.4551 48.617 68.9201 39.082 57.1582 39.082C45.3963 39.082 35.8613 48.617 35.8613 60.3789C35.8613 72.1408 45.3963 81.6758 57.1582 81.6758Z" fill="#CCEEE3"/>
<path d="M57.1582 77.9121C66.8415 77.9121 74.6914 70.0623 74.6914 60.3789C74.6914 50.6956 66.8415 42.8457 57.1582 42.8457C47.4749 42.8457 39.625 50.6956 39.625 60.3789C39.625 70.0623 47.4749 77.9121 57.1582 77.9121Z" fill="#02BF7F"/>
<path d="M57.1582 88.0195C41.9171 88.0195 29.5176 75.62 29.5176 60.3789C29.5176 59.7534 30.0249 59.2461 30.6504 59.2461C31.2759 59.2461 31.7832 59.7534 31.7832 60.3789C31.7832 74.3707 43.1664 85.7539 57.1582 85.7539C57.7837 85.7539 58.291 86.2612 58.291 86.8867C58.291 87.5123 57.7837 88.0195 57.1582 88.0195Z" fill="#CCEEE3"/>
<path d="M83.666 61.5117C83.0405 61.5117 82.5332 61.0044 82.5332 60.3789C82.5332 46.3871 71.15 35.0039 57.1582 35.0039C56.5327 35.0039 56.0254 34.4966 56.0254 33.8711C56.0254 33.2456 56.5327 32.7383 57.1582 32.7383C72.3993 32.7383 84.7988 45.1378 84.7988 60.3789C84.7988 61.0044 84.2915 61.5117 83.666 61.5117Z" fill="#CCEEE3"/>
<path d="M51.8614 64.2385C51.5716 64.2385 51.2814 64.128 51.0605 63.9069L48.3338 61.1802C47.8913 60.7377 47.8913 60.0204 48.3338 59.5781L51.0605 56.8515C51.5025 56.4092 52.2203 56.4092 52.6623 56.8515C53.1048 57.2939 53.1048 58.0112 52.6623 58.4535L50.7367 60.3793L52.6623 62.3051C53.1048 62.7475 53.1048 63.4648 52.6623 63.9071C52.4412 64.128 52.1512 64.2385 51.8614 64.2385Z" fill="#F5F4F9"/>
<path d="M62.455 64.2385C62.1652 64.2385 61.875 64.1279 61.6541 63.9068C61.2116 63.4643 61.2116 62.747 61.6541 62.3048L63.5797 60.379L61.6541 58.4532C61.2116 58.0108 61.2116 57.2935 61.6541 56.8512C62.0961 56.409 62.8139 56.409 63.2559 56.8512L65.9826 59.5779C66.4251 60.0204 66.4251 60.7377 65.9826 61.1799L63.2559 63.9066C63.035 64.1279 62.745 64.2385 62.455 64.2385Z" fill="#F5F4F9"/>
<path d="M55.6182 64.2388C55.4295 64.2388 55.2383 64.1917 55.0625 64.0922C54.5176 63.7845 54.3253 63.0935 54.6329 62.5486L57.7124 57.0953C58.0198 56.5506 58.711 56.3583 59.2557 56.6657C59.8006 56.9734 59.9929 57.6644 59.6853 58.2091L56.6058 63.6624C56.3974 64.0315 56.0136 64.2388 55.6182 64.2388Z" fill="#F5F4F9"/>
<path d="M37.3538 42.9324H9.6402C8.38595 42.9324 7.36914 41.9156 7.36914 40.6613V18.6218C7.36914 17.3675 8.38595 16.3507 9.6402 16.3507H37.3538C38.608 16.3507 39.6248 17.3675 39.6248 18.6218V40.6613C39.6248 41.9156 38.6083 42.9324 37.3538 42.9324Z" fill="#F5F4F9"/>
<path d="M37.3548 16.3507H29.6152V42.9324H37.3548C38.6091 42.9324 39.6259 41.9156 39.6259 40.6613V18.6218C39.6259 17.3675 38.6091 16.3507 37.3548 16.3507Z" fill="#FFE783"/>
<path d="M39.6251 23.7695V18.6218C39.6251 17.3675 38.6083 16.3507 37.354 16.3507H9.6402C8.38595 16.3507 7.36914 17.3675 7.36914 18.6218V23.7695H39.6251Z" fill="#2A8CFF"/>
<path d="M25.0512 37.6295H13.7876C13.1605 37.6295 12.6523 37.1211 12.6523 36.4942C12.6523 35.8673 13.1605 35.3589 13.7876 35.3589H25.0514C25.6786 35.3589 26.1867 35.8673 26.1867 36.4942C26.1865 37.1213 25.6783 37.6295 25.0512 37.6295Z" fill="#DDD9E4"/>
<path d="M18.9195 32.9162H13.7876C13.1605 32.9162 12.6523 32.4078 12.6523 31.7809C12.6523 31.154 13.1605 30.6456 13.7876 30.6456H18.9195C19.5466 30.6456 20.0548 31.154 20.0548 31.7809C20.0548 32.4078 19.5466 32.9162 18.9195 32.9162Z" fill="#DDD9E4"/>
<path d="M106.36 99.2958H71.8492C70.5949 99.2958 69.5781 98.279 69.5781 97.0247V74.9852C69.5781 73.7309 70.5949 72.7141 71.8492 72.7141H106.36C107.614 72.7141 108.631 73.7309 108.631 74.9852V97.0247C108.631 98.279 107.614 99.2958 106.36 99.2958Z" fill="#F5F4F9"/>
<path d="M108.631 80.1329V74.9852C108.631 73.7309 107.614 72.7141 106.36 72.7141H71.8492C70.5949 72.7141 69.5781 73.7309 69.5781 74.9852V80.1329H108.631Z" fill="#2A8CFF"/>
<path d="M106.359 71.5813H91.6864C91.8885 70.9576 92.0759 70.3282 92.2435 69.6956L100.387 67.3763C101.614 67.0269 102.471 65.8921 102.471 64.6166V56.1415C102.471 54.866 101.614 53.7311 100.387 53.3818L92.2435 51.0624C91.4168 47.94 90.1782 44.9507 88.5544 42.1585L92.6733 34.7592C93.2936 33.6448 93.097 32.2367 92.1953 31.3347L86.2025 25.3419C85.3005 24.4398 83.8922 24.2433 82.7777 24.8637L75.3784 28.9826C72.5865 27.3588 69.5973 26.1204 66.4745 25.2935L64.1552 17.1499C63.8059 15.9233 62.6708 15.0667 61.3955 15.0667H52.9204C51.6449 15.0667 50.51 15.9235 50.1607 17.1501L47.8414 25.2935C45.3906 25.9426 43.0167 26.8506 40.7574 27.9963V18.6216C40.7574 16.7448 39.2304 15.2178 37.3536 15.2178H9.6402C7.76336 15.2178 6.23633 16.7448 6.23633 18.6216V23.7694C6.23633 24.3949 6.7436 24.9022 7.36914 24.9022H38.492V40.661C38.492 41.2888 37.9814 41.7992 37.3538 41.7992H9.6402C9.01262 41.7992 8.50195 41.2885 8.50195 40.661V30.0089C8.50195 29.3834 7.99468 28.8761 7.36914 28.8761C6.7436 28.8761 6.23633 29.3834 6.23633 30.0089V40.661C6.23633 42.538 7.76336 44.0648 9.6402 44.0648H24.7331C23.608 46.2983 22.7135 48.6425 22.0726 51.0622L13.9293 53.3815C12.7024 53.7309 11.8458 54.8658 11.8458 56.1413V64.6163C11.8458 65.8919 12.7026 67.0267 13.9293 67.3761L22.0726 69.6954C22.8995 72.8181 24.1382 75.8076 25.7617 78.5993L21.6428 85.9986C21.0225 87.1131 21.2189 88.5214 22.1209 89.4231L28.1137 95.4159C29.0156 96.3178 30.4237 96.5145 31.5384 95.894L38.9377 91.775C41.7296 93.3988 44.7191 94.6372 47.8416 95.4642L50.1609 103.607C50.5103 104.834 51.6451 105.691 52.9207 105.691H61.3957C62.671 105.691 63.8059 104.834 64.1554 103.607L66.4748 95.4639C67.1359 95.2888 67.7934 95.0919 68.4443 94.8794V97.024C68.4443 98.9009 69.9713 100.428 71.8481 100.428H106.359C108.236 100.428 109.762 98.9009 109.762 97.024V74.9845C109.763 73.1083 108.236 71.5813 106.359 71.5813ZM8.50195 22.6366V18.6216C8.50195 17.9941 9.01262 17.4834 9.6402 17.4834H37.3538C37.9814 17.4834 38.492 17.9941 38.492 18.6216V22.6366H8.50195ZM65.2937 93.4278C64.8983 93.5248 64.5857 93.8263 64.4742 94.2176L61.9766 102.987C61.903 103.246 61.6642 103.426 61.3959 103.426H52.9209C52.6524 103.426 52.4136 103.246 52.3402 102.988L49.8426 94.2178C49.7311 93.8263 49.4182 93.525 49.0231 93.428C45.6779 92.6072 42.4886 91.2859 39.5437 89.5006C39.1955 89.2896 38.7612 89.2815 38.4055 89.4795L30.4371 93.9152C30.2026 94.0459 29.9062 94.0044 29.7164 93.8146L23.7236 87.8215C23.5339 87.6319 23.4925 87.3356 23.623 87.1011L28.0586 79.1326C28.2566 78.7772 28.2485 78.3426 28.0375 77.9944C26.2522 75.0498 24.9309 71.8604 24.1101 68.515C24.0131 68.1197 23.7115 67.807 23.3203 67.6955L14.5505 65.1979C14.2924 65.1243 14.1121 64.8857 14.1121 64.6172V56.1422C14.1121 55.8737 14.2922 55.6349 14.5505 55.5615L23.3203 53.0639C23.7118 52.9524 24.0131 52.6395 24.1101 52.2444C24.8104 49.3904 25.8829 46.642 27.2924 44.066H37.3545C39.2313 44.066 40.7583 42.5389 40.7583 40.6621V30.5585C43.3586 29.1258 46.1381 28.0389 49.0231 27.3312C49.4185 27.2342 49.7311 26.9326 49.8426 26.5414L52.3402 17.7716C52.4138 17.5135 52.6526 17.3332 52.9209 17.3332H61.3959C61.6644 17.3332 61.9032 17.5135 61.9766 17.7716L64.4742 26.5414C64.5857 26.9329 64.8986 27.2342 65.2937 27.3312C68.6389 28.152 71.8282 29.4735 74.7731 31.2586C75.1215 31.4698 75.5558 31.4779 75.9113 31.2797L83.8798 26.844C84.1142 26.7135 84.4106 26.7548 84.6004 26.9446L90.5932 32.9374C90.7831 33.1271 90.8246 33.4237 90.6938 33.6581L86.2582 41.6266C86.0602 41.9823 86.0683 42.4166 86.2793 42.7648C88.0646 45.7099 89.3861 48.899 90.2067 52.2442C90.3037 52.6395 90.6053 52.9522 90.9965 53.0637L99.7663 55.5613C100.024 55.6349 100.205 55.8737 100.205 56.142V64.617C100.205 64.8855 100.024 65.1243 99.7663 65.1977L90.9965 67.6953C90.605 67.8068 90.3035 68.1197 90.2067 68.5148C89.9534 69.5468 89.6458 70.5751 89.2955 71.5815H84.6709C84.0454 71.5815 83.5381 72.0888 83.5381 72.7143C83.5381 73.3399 84.0454 73.8472 84.6709 73.8472H106.358C106.986 73.8472 107.497 74.3578 107.497 74.9854V79.0003H70.7097V74.9854C70.7097 74.3578 71.2203 73.8472 71.8479 73.8472H78.4314C79.0569 73.8472 79.5642 73.3399 79.5642 72.7143C79.5642 72.0888 79.0569 71.5815 78.4314 71.5815H71.8479C69.9711 71.5815 68.444 73.1086 68.444 74.9854V92.4874C67.4118 92.8496 66.3547 93.1673 65.2937 93.4278ZM106.359 98.163H71.8481C71.2206 98.163 70.7099 97.6523 70.7099 97.0247V81.2657H107.497V97.0247C107.497 97.6523 106.986 98.163 106.359 98.163Z" fill="#242F4D"/>
<path d="M77.7366 93.1149C77.7022 93.1149 77.6675 93.1134 77.6328 93.1102C77.1824 93.0689 76.7998 92.7638 76.6593 92.3338L75.1051 87.5737C74.9109 86.979 75.2356 86.3394 75.8303 86.1452C76.425 85.951 77.0646 86.2757 77.2588 86.8704L77.9974 89.1322L78.4113 88.3716C78.6095 88.0073 78.9913 87.7803 79.4064 87.7803C79.8214 87.7803 80.2032 88.0071 80.4014 88.3716L80.8154 89.1322L81.5539 86.8704C81.7479 86.2757 82.3875 85.9508 82.9824 86.1452C83.5772 86.3394 83.902 86.979 83.7077 87.5737L82.1534 92.3338C82.013 92.7638 81.6303 93.0689 81.1801 93.1102C80.7302 93.1521 80.2979 92.921 80.0817 92.5236L79.4066 91.283L78.7314 92.5236C78.5318 92.8902 78.1487 93.1149 77.7366 93.1149Z" fill="#242F4D"/>
<path d="M87.4339 93.1149C87.3994 93.1149 87.3648 93.1134 87.3301 93.1102C86.8797 93.0689 86.497 92.7638 86.3566 92.3338L84.8023 87.5737C84.6082 86.979 84.9328 86.3394 85.5276 86.1452C86.1223 85.951 86.7619 86.2757 86.956 86.8704L87.6946 89.1322L88.1086 88.3716C88.3068 88.0073 88.6886 87.7803 89.1036 87.7803C89.5187 87.7803 89.9004 88.0071 90.0987 88.3716L90.5126 89.1322L91.2512 86.8704C91.4451 86.2757 92.0847 85.9508 92.6797 86.1452C93.2744 86.3394 93.5993 86.979 93.4049 87.5737L91.8507 92.3338C91.7102 92.7638 91.3276 93.0689 90.8774 93.1102C90.427 93.1521 89.9949 92.921 89.779 92.5236L89.1039 91.283L88.4287 92.5236C88.2289 92.8902 87.8457 93.1149 87.4339 93.1149Z" fill="#242F4D"/>
<path d="M100.47 93.1149C100.059 93.1149 99.6752 92.8902 99.4758 92.5236L98.8007 91.283L98.1255 92.5236C97.9094 92.9208 97.4785 93.1519 97.0271 93.1102C96.5767 93.0689 96.1941 92.7638 96.0538 92.3337L94.4996 87.5737C94.3054 86.979 94.6301 86.3394 95.2248 86.1452C95.8196 85.951 96.4591 86.2757 96.6533 86.8704L97.3919 89.1322L97.8058 88.3716C98.0041 88.0073 98.3858 87.7803 98.8009 87.7803C99.216 87.7803 99.5977 88.0071 99.796 88.3716L100.21 89.1322L100.948 86.8704C101.142 86.2757 101.782 85.9508 102.377 86.1452C102.972 86.3394 103.297 86.979 103.102 87.5737L101.548 92.3337C101.407 92.7638 101.025 93.0689 100.575 93.1102C100.54 93.1134 100.505 93.1149 100.47 93.1149Z" fill="#242F4D"/>
<path d="M100.358 45.4862C100.068 45.4862 99.7784 45.3756 99.5571 45.1545L97.0662 42.6637C96.6238 42.2212 96.6238 41.5039 97.0662 41.0617L99.5571 38.5708C99.9995 38.1286 100.717 38.1286 101.159 38.5708L103.65 41.0617C104.092 41.5041 104.092 42.2214 103.65 42.6637L101.159 45.1543C100.938 45.3754 100.648 45.4862 100.358 45.4862ZM99.4694 41.8623L100.358 42.7511L101.247 41.8623L100.358 40.9735L99.4694 41.8623Z" fill="#2A8CFF"/>
<path d="M80.9525 21.0991C80.3269 21.0991 79.8197 20.5919 79.8197 19.9663C79.8197 19.2137 79.2075 18.6015 78.4551 18.6015C77.8295 18.6015 77.3223 18.0943 77.3223 17.4687C77.3223 16.8432 77.8295 16.3359 78.4551 16.3359C79.2075 16.3359 79.8197 15.7237 79.8197 14.9713C79.8197 14.3458 80.3269 13.8385 80.9525 13.8385C81.578 13.8385 82.0853 14.3458 82.0853 14.9713C82.0853 15.7237 82.6975 16.3359 83.4499 16.3359C84.0754 16.3359 84.5827 16.8432 84.5827 17.4687C84.5827 18.0943 84.0754 18.6015 83.4499 18.6015C82.6975 18.6015 82.0853 19.2137 82.0853 19.9663C82.0853 20.5921 81.578 21.0991 80.9525 21.0991Z" fill="#06AD79"/>
<path d="M14.3392 80.0539C13.7137 80.0539 13.2064 79.5466 13.2064 78.9211C13.2064 78.1686 12.5942 77.5565 11.8418 77.5565C11.2163 77.5565 10.709 77.0492 10.709 76.4237C10.709 75.7981 11.2163 75.2908 11.8418 75.2908C12.5942 75.2908 13.2064 74.6787 13.2064 73.9263C13.2064 73.3007 13.7137 72.7935 14.3392 72.7935C14.9647 72.7935 15.472 73.3007 15.472 73.9263C15.472 74.6787 16.0842 75.2908 16.8366 75.2908C17.4621 75.2908 17.9694 75.7981 17.9694 76.4237C17.9694 77.0492 17.4621 77.5565 16.8366 77.5565C16.0842 77.5565 15.472 78.1686 15.472 78.9211C15.472 79.5466 14.9647 80.0539 14.3392 80.0539Z" fill="#2A8CFF"/>
<path d="M12.6519 92.2227C12.0264 92.2227 11.5191 91.7154 11.5191 91.0899C11.5191 90.3375 10.9069 89.7253 10.1543 89.7253C9.52876 89.7253 9.02148 89.218 9.02148 88.5925C9.02148 87.9669 9.52876 87.4597 10.1543 87.4597C10.9069 87.4597 11.5191 86.8475 11.5191 86.0951C11.5191 85.4696 12.0264 84.9623 12.6519 84.9623C13.2775 84.9623 13.7847 85.4696 13.7847 86.0951C13.7847 86.8475 14.3969 87.4597 15.1493 87.4597C15.7749 87.4597 16.2821 87.9669 16.2821 88.5925C16.2821 89.218 15.7749 89.7253 15.1493 89.7253C14.3969 89.7253 13.7847 90.3375 13.7847 91.0899C13.7847 91.7154 13.2775 92.2227 12.6519 92.2227Z" fill="#06AD79"/>
<defs>
<linearGradient id="paint0_linear_361_212" x1="37.1007" y1="57.9999" x2="228.233" y2="57.9999" gradientUnits="userSpaceOnUse">
<stop offset="0.000701121" stop-color="#CBEDE4"/>
<stop offset="1" stop-color="#B3CCF5"/>
</linearGradient>
</defs>
</svg>
