<svg width="93" height="93" viewBox="0 0 93 93" fill="none" xmlns="http://www.w3.org/2000/svg">
<g clip-path="url(#clip0_223_140)">
<path d="M69.4968 31.6083C69.4619 31.6082 69.4269 31.608 69.392 31.608C63.5733 31.5989 58.0603 29.0933 54.2359 24.7082C48.5386 18.1756 40.1406 14.06 30.7823 14.1016C13.7967 14.1768 -0.217057 28.4476 0.00254636 45.4319C0.22106 62.3219 13.9807 75.9466 30.9227 75.9466C35.7076 75.9466 40.2383 74.8591 44.2818 72.9183C47.7682 71.2449 51.9225 71.6861 54.9928 74.0374C58.964 77.079 63.9277 78.8896 69.3144 78.8987C82.2803 78.9203 92.9243 68.3599 92.9996 55.3942C93.0756 42.3071 82.5658 31.6852 69.4968 31.6083Z" fill="url(#paint0_linear_223_140)"/>
<path opacity="0.1" d="M21.4736 14.1604V26.2971C21.4736 26.7986 21.8803 27.2053 22.3818 27.2053H26.1787C26.597 27.2053 26.961 26.9197 27.0607 26.5134L28.7669 19.5582C28.8666 19.1521 29.2306 18.8663 29.6489 18.8663H39.5821C40.0836 18.8663 40.4903 19.273 40.4903 19.7745V64.1494C40.4903 64.578 40.1904 64.9484 39.7712 65.0376L30.1136 67.0932C29.6941 67.1824 29.3944 67.5528 29.3944 67.9814V71.2103C29.3944 71.7118 29.8011 72.1185 30.3026 72.1185H57.9271C58.4286 72.1185 58.8353 71.7118 58.8353 71.2103V67.9814C58.8353 67.5528 58.5354 67.1824 58.1162 67.0932L48.4585 65.0376C48.0391 64.9484 47.7394 64.578 47.7394 64.1494V19.7745C47.7394 19.273 48.1461 18.8663 48.6476 18.8663H58.5808C58.9991 18.8663 59.3631 19.1519 59.4629 19.5582L61.169 26.5134C61.2687 26.9196 61.6327 27.2053 62.0511 27.2053H65.8479C66.3494 27.2053 66.7561 26.7986 66.7561 26.2971V14.1604C66.7561 13.6589 66.3494 13.2522 65.8479 13.2522H22.3818C21.8803 13.2522 21.4736 13.6587 21.4736 14.1604Z" fill="#243C70"/>
<path opacity="0.1" d="M79.3791 21.0263H81.1934C81.9408 21.0263 82.3682 20.1738 81.9212 19.5748L77.9298 14.2273C77.5665 13.7407 76.8374 13.7407 76.4742 14.2273L72.4828 19.5748C72.0358 20.1738 72.4632 21.0263 73.2106 21.0263H75.0248V64.3445H73.2106C72.4632 64.3445 72.0358 65.1969 72.4828 65.7959L76.4742 71.1434C76.8374 71.6301 77.5665 71.6301 77.9298 71.1434L81.9212 65.7959C82.3682 65.1969 81.9408 64.3445 81.1934 64.3445H79.3791V21.0263Z" fill="#243C70"/>
<path d="M21.4863 17.9902V30.1203C21.4863 30.6216 21.8927 31.028 22.394 31.028H26.1886C26.6066 31.028 26.9706 30.7424 27.0701 30.3365L28.7754 23.3851C28.8749 22.9791 29.2389 22.6936 29.6569 22.6936H39.5848C40.0861 22.6936 40.4925 23.0999 40.4925 23.6012V67.9524C40.4925 68.3809 40.1928 68.7511 39.7737 68.8403L30.1212 70.8948C29.7021 70.984 29.4024 71.3542 29.4024 71.7827V75.0099C29.4024 75.5112 29.8087 75.9175 30.3101 75.9175H57.9196C58.421 75.9175 58.8273 75.5112 58.8273 75.0099V71.7827C58.8273 71.3542 58.5276 70.984 58.1085 70.8948L48.456 68.8403C48.0369 68.7511 47.7372 68.3809 47.7372 67.9524V23.6012C47.7372 23.0999 48.1435 22.6936 48.6449 22.6936H58.5728C58.9908 22.6936 59.3548 22.9791 59.4543 23.3851L61.1595 30.3365C61.2591 30.7424 61.6231 31.028 62.041 31.028H65.8357C66.337 31.028 66.7434 30.6216 66.7434 30.1203V17.9902C66.7434 17.4888 66.337 17.0825 65.8357 17.0825H22.3942C21.8928 17.0825 21.4863 17.4888 21.4863 17.9902Z" fill="#1E80F3"/>
<path d="M79.3616 24.8523H81.1749C81.922 24.8523 82.3492 24.0002 81.9024 23.4017L77.9132 18.057C77.5501 17.5705 76.8213 17.5705 76.4582 18.057L72.469 23.4017C72.0222 24.0004 72.4494 24.8523 73.1965 24.8523H75.0098V68.1475H73.1965C72.4494 68.1475 72.0222 68.9995 72.469 69.598L76.4582 74.9428C76.8213 75.4292 77.5501 75.4292 77.9132 74.9428L81.9024 69.598C82.3492 68.9993 81.922 68.1475 81.1749 68.1475H79.3616V24.8523Z" fill="#78B5EE"/>
<path d="M65.8368 16.1743H57.3378C56.8361 16.1743 56.4296 16.5809 56.4296 17.0825C56.4296 17.584 56.8361 17.9907 57.3378 17.9907L65.8362 17.9901L65.8368 30.1197L62.0425 30.1201L60.3371 23.1687C60.1373 22.3542 59.4122 21.7853 58.5733 21.7853H48.6456C47.6442 21.7853 46.8296 22.6 46.8296 23.6012V67.9524C46.8296 68.8041 47.4342 69.5512 48.2674 69.7286L57.9196 71.7826L57.9202 75.0093L30.311 75.0098L30.3106 71.7832L39.9632 69.7286C40.7964 69.5512 41.401 68.8043 41.401 67.9524V23.6012C41.401 22.6 40.5866 21.7853 39.5852 21.7853H29.6572C28.8188 21.7853 28.0937 22.354 27.8935 23.1685L26.1888 30.1197L22.3945 30.1201L22.394 17.9905H52.3382C52.8399 17.9905 53.2464 17.5838 53.2464 17.0823C53.2464 16.5808 52.8399 16.1741 52.3382 16.1741H22.394C21.3926 16.1741 20.5781 16.9887 20.5781 17.9899V30.1201C20.5781 31.1215 21.3926 31.9361 22.394 31.9361H26.1888C27.0273 31.9361 27.7524 31.3674 27.9526 30.5527L29.6572 23.6017L39.5846 23.6012L39.585 67.9518L29.9324 70.0064C29.0992 70.1838 28.4946 70.9307 28.4946 71.7824V75.0097C28.4946 76.0109 29.309 76.8255 30.3104 76.8255H57.9202C58.9215 76.8255 59.736 76.0109 59.736 75.0097V71.7826C59.736 70.9309 59.1313 70.1838 58.2982 70.0065L48.646 67.9526L48.6456 23.6019L58.5728 23.6015L60.2782 30.5529C60.478 31.3674 61.2033 31.9363 62.042 31.9363H65.8368C66.8382 31.9363 67.6527 31.1216 67.6527 30.1203V17.9901C67.6527 16.9889 66.8382 16.1743 65.8368 16.1743Z" fill="#243C70"/>
<path d="M14.255 17.9915C14.7567 17.9915 15.1632 17.5848 15.1632 17.0833C15.1632 16.5817 14.7567 16.175 14.255 16.175H10.8965C10.3948 16.175 9.98828 16.5817 9.98828 17.0833V75.9183C9.98828 76.4198 10.3948 76.8265 10.8965 76.8265H14.255C14.7567 76.8265 15.1632 76.4198 15.1632 75.9183C15.1632 75.4168 14.7567 75.0101 14.255 75.0101H11.8047V67.3788H14.255C14.7567 67.3788 15.1632 66.9721 15.1632 66.4706C15.1632 65.9691 14.7567 65.5624 14.255 65.5624H11.8047V57.3938H14.255C14.7567 57.3938 15.1632 56.9872 15.1632 56.4856C15.1632 55.9841 14.7567 55.5774 14.255 55.5774H11.8047V47.4091H14.255C14.7567 47.4091 15.1632 47.0024 15.1632 46.5009C15.1632 45.9993 14.7567 45.5927 14.255 45.5927H11.8047V37.4241H14.255C14.7567 37.4241 15.1632 37.0174 15.1632 36.5159C15.1632 36.0144 14.7567 35.6077 14.255 35.6077H11.8047V27.4391H14.255C14.7567 27.4391 15.1632 27.0324 15.1632 26.5309C15.1632 26.0294 14.7567 25.6227 14.255 25.6227H11.8047V17.9915H14.255Z" fill="#243C70"/>
<path d="M81.175 67.2393H80.27V25.7606H81.1751C81.8665 25.7606 82.4882 25.3768 82.7983 24.7587C83.1083 24.1406 83.0441 23.4125 82.6303 22.8585L78.6413 17.5138C78.2952 17.05 77.7648 16.7839 77.1861 16.7839C77.1863 16.7839 77.186 16.7839 77.1861 16.7839C76.6074 16.7839 76.0769 17.0499 75.7305 17.5138L71.7413 22.8585C71.3279 23.4125 71.2634 24.1407 71.5733 24.7587C71.8831 25.3766 72.5051 25.7606 73.1966 25.7606H75.0097C75.5114 25.7606 75.9179 25.3539 75.9179 24.8524C75.9179 24.3509 75.5114 23.9442 75.0097 23.9442L73.1969 23.9449L77.1854 18.6002L81.1751 23.944H79.3618C78.8601 23.944 78.4536 24.3507 78.4536 24.8522V68.1474C78.4536 68.6489 78.8601 69.0556 79.3618 69.0556L81.1746 69.0548L77.1861 74.3996L73.1966 69.0557H75.0097C75.5114 69.0557 75.9179 68.6491 75.9179 68.1475V29.8521C75.9179 29.3506 75.5114 28.9439 75.0097 28.9439C74.508 28.9439 74.1015 29.3506 74.1015 29.8521V67.2393H73.1966C72.5051 67.2393 71.8833 67.6231 71.5733 68.2413C71.2632 68.8594 71.3277 69.5874 71.7413 70.1414L75.7305 75.4862C76.0767 75.9499 76.6072 76.2158 77.1861 76.2158C77.7648 76.2158 78.2949 75.9499 78.6411 75.4862L82.6303 70.1414C83.0437 69.5874 83.1082 68.8592 82.7983 68.2413C82.4884 67.6233 81.8665 67.2393 81.175 67.2393Z" fill="#243C70"/>
<path d="M25.4784 64.0899C24.9767 64.0899 24.5702 63.6832 24.5702 63.1817C24.5702 62.5813 24.0819 62.0929 23.4814 62.0929C22.9798 62.0929 22.5732 61.6862 22.5732 61.1847C22.5732 60.6832 22.9798 60.2765 23.4814 60.2765C24.0819 60.2765 24.5702 59.7881 24.5702 59.1877C24.5702 58.6862 24.9767 58.2795 25.4784 58.2795C25.9801 58.2795 26.3866 58.6862 26.3866 59.1877C26.3866 59.7881 26.8749 60.2765 27.4754 60.2765C27.977 60.2765 28.3836 60.6832 28.3836 61.1847C28.3836 61.6862 27.977 62.0929 27.4754 62.0929C26.8749 62.0929 26.3866 62.5813 26.3866 63.1817C26.3866 63.6832 25.9801 64.0899 25.4784 64.0899Z" fill="#02BF7F"/>
<path d="M64.7479 42.8697C64.2462 42.8697 63.8397 42.463 63.8397 41.9614C63.8397 41.3611 63.3515 40.8727 62.751 40.8727C62.2493 40.8727 61.8428 40.466 61.8428 39.9645C61.8428 39.463 62.2493 39.0563 62.751 39.0563C63.3515 39.0563 63.8397 38.5679 63.8397 37.9675C63.8397 37.466 64.2462 37.0593 64.7479 37.0593C65.2496 37.0593 65.6561 37.466 65.6561 37.9675C65.6561 38.5679 66.1444 39.0563 66.7449 39.0563C67.2466 39.0563 67.6531 39.463 67.6531 39.9645C67.6531 40.466 67.2466 40.8727 66.7449 40.8727C66.1444 40.8727 65.6561 41.3611 65.6561 41.9614C65.6561 42.463 65.2496 42.8697 64.7479 42.8697Z" fill="#1E80F3"/>
<path d="M31.0252 51.4022C30.7929 51.4022 30.5602 51.3135 30.3831 51.1363L28.3862 49.1393C28.0314 48.7846 28.0314 48.2095 28.3862 47.8549L30.3831 45.858C30.7375 45.5034 31.313 45.5034 31.6673 45.858L33.6643 47.8549C34.019 48.2097 34.019 48.7847 33.6643 49.1393L31.6673 51.1363C31.4902 51.3135 31.2577 51.4022 31.0252 51.4022ZM30.3128 48.497L31.0254 49.2096L31.738 48.497L31.0254 47.7844L30.3128 48.497Z" fill="#1E80F3"/>
<path d="M52.4482 64.0898C51.9466 64.0898 51.54 63.6831 51.54 63.1816V35.4258C51.54 34.9243 51.9466 34.5176 52.4482 34.5176C52.9499 34.5176 53.3564 34.9243 53.3564 35.4258V63.1818C53.3564 63.6831 52.9499 64.0898 52.4482 64.0898Z" fill="#1E80F3"/>
<path d="M40.1027 11.4434H10.8965C10.3948 11.4434 9.98828 11.0367 9.98828 10.5352C9.98828 10.0336 10.3948 9.62695 10.8965 9.62695H40.1027C40.6044 9.62695 41.0109 10.0336 41.0109 10.5352C41.0109 11.0367 40.6044 11.4434 40.1027 11.4434Z" fill="#F5CA2A"/>
<path d="M66.7444 83.373H10.8965C10.3948 83.373 9.98828 82.9664 9.98828 82.4648C9.98828 81.9633 10.3948 81.5566 10.8965 81.5566H66.7444C67.2461 81.5566 67.6526 81.9633 67.6526 82.4648C67.6526 82.9664 67.2461 83.373 66.7444 83.373Z" fill="#F5CA2A"/>
<path d="M71.3866 16.5266C70.8849 16.5266 70.4784 16.1199 70.4784 15.6184C70.4784 15.018 69.9902 14.5296 69.3896 14.5296C68.888 14.5296 68.4814 14.1229 68.4814 13.6214C68.4814 13.1199 68.888 12.7132 69.3896 12.7132C69.9902 12.7132 70.4784 12.2248 70.4784 11.6243C70.4784 11.1228 70.8849 10.7161 71.3866 10.7161C71.8883 10.7161 72.2948 11.1228 72.2948 11.6243C72.2948 12.2248 72.7831 12.7132 73.3836 12.7132C73.8852 12.7132 74.2918 13.1199 74.2918 13.6214C74.2918 14.1229 73.8852 14.5296 73.3836 14.5296C72.7831 14.5296 72.2948 15.018 72.2948 15.6184C72.2948 16.1199 71.8881 16.5266 71.3866 16.5266Z" fill="#02BF7F"/>
</g>
<defs>
<linearGradient id="paint0_linear_223_140" x1="-4.34738" y1="33.7375" x2="95.9279" y2="65.8256" gradientUnits="userSpaceOnUse">
<stop offset="0.0485" stop-color="#CBEDE4"/>
<stop offset="0.9993" stop-color="#B4CDF4"/>
</linearGradient>
<clipPath id="clip0_223_140">
<rect width="93" height="93" fill="white"/>
</clipPath>
</defs>
</svg>
