<svg width="116" height="116" viewBox="0 0 116 116" fill="none" xmlns="http://www.w3.org/2000/svg">
<path d="M70.2509 20.244C65.3956 8.31117 53.6504 -0.0838755 39.9536 0.000632271C22.4802 0.108249 8.11339 14.2025 7.68949 31.6709C7.48037 40.2893 10.6298 48.1694 15.9214 54.0967C20.1398 58.8219 22.2568 65.0454 22.0434 71.3762C22.015 72.2177 22.0107 73.0652 22.0316 73.9182C22.5898 96.8917 42.2153 116.014 65.1956 116C89.0148 115.986 108.319 96.6719 108.319 72.8495C108.319 55.3875 97.9465 40.3496 83.0267 33.5584C77.2115 30.9115 72.6588 26.1618 70.2509 20.244Z" fill="url(#paint0_linear_361_124)"/>
<path opacity="0.1" d="M103.312 20.0093V77.6128C103.312 79.4887 101.79 81.0112 99.9141 81.0112H16.0859C14.21 81.0112 12.6875 79.4887 12.6875 77.6128V20.0093C12.6875 18.1333 14.21 16.6108 16.0859 16.6108H99.9141C101.79 16.6108 103.312 18.1333 103.312 20.0093Z" fill="#243C70"/>
<path d="M72.3497 15.1334C72.0493 15.1334 71.7611 15.014 71.5488 14.8017L69.0526 12.3055C68.6101 11.863 68.6101 11.1457 69.0526 10.7034L71.5488 8.20718C71.7613 7.99466 72.0493 7.87549 72.3497 7.87549C72.6501 7.87549 72.9383 7.99489 73.1506 8.20718L75.6471 10.7034C75.8596 10.916 75.979 11.2039 75.979 11.5046C75.979 11.8052 75.8599 12.0932 75.6471 12.3057L73.1506 14.802C72.9383 15.014 72.6501 15.1334 72.3497 15.1334ZM71.4557 11.5043L72.3497 12.3986L73.244 11.5043L72.3497 10.6101L71.4557 11.5043Z" fill="#02BF7F"/>
<path d="M86.5568 98.8898C86.2563 98.8898 85.9681 98.7704 85.7559 98.5581L83.2596 96.0618C82.8171 95.6194 82.8171 94.9021 83.2596 94.4598L85.7559 91.9635C86.1979 91.5213 86.9152 91.5213 87.3577 91.9635L89.8541 94.4598C90.0667 94.6723 90.1861 94.9603 90.1861 95.2609C90.1861 95.5616 90.0669 95.8495 89.8541 96.0621L87.3577 98.5583C87.1451 98.7704 86.8572 98.8898 86.5568 98.8898ZM85.6627 95.2607L86.5568 96.1549L87.451 95.2607L86.5568 94.3665L85.6627 95.2607Z" fill="#1E80F3"/>
<path d="M24.1703 108.125C23.5446 108.125 23.0375 107.617 23.0375 106.992C23.0375 106.24 22.4258 105.628 21.6738 105.628C21.0481 105.628 20.541 105.121 20.541 104.496C20.541 103.87 21.0481 103.363 21.6738 103.363C22.4256 103.363 23.0375 102.751 23.0375 101.999C23.0375 101.374 23.5446 100.866 24.1703 100.866C24.7961 100.866 25.3031 101.374 25.3031 101.999C25.3031 102.751 25.9146 103.363 26.6666 103.363C27.2924 103.363 27.7994 103.87 27.7994 104.496C27.7994 105.121 27.2924 105.628 26.6666 105.628C25.9149 105.628 25.3031 106.24 25.3031 106.992C25.3031 107.617 24.7959 108.125 24.1703 108.125Z" fill="#02BF7F"/>
<path d="M33.9885 97.6126C33.3627 97.6126 32.8556 97.1054 32.8556 96.4798C32.8556 95.7281 32.2441 95.1164 31.4922 95.1164C30.8664 95.1164 30.3594 94.6091 30.3594 93.9836C30.3594 93.358 30.8664 92.8508 31.4922 92.8508C32.2439 92.8508 32.8556 92.239 32.8556 91.4873C32.8556 90.8618 33.3627 90.3545 33.9885 90.3545C34.6142 90.3545 35.1213 90.8618 35.1213 91.4873C35.1213 92.239 35.733 92.8508 36.4849 92.8508C37.1107 92.8508 37.6178 93.358 37.6178 93.9836C37.6178 94.6091 37.1107 95.1164 36.4849 95.1164C35.7332 95.1164 35.1213 95.7281 35.1213 96.4798C35.1213 97.1056 34.614 97.6126 33.9885 97.6126Z" fill="#1E80F3"/>
<path d="M70.8473 102.242H45.1504L48.4994 88.9644L50.2893 81.8728H65.7084L67.4983 88.9644L70.8473 102.242Z" fill="#78B5EE"/>
<path d="M67.4988 88.9644H48.5L50.2898 81.8728H65.709L67.4988 88.9644Z" fill="#529FFA"/>
<path d="M70.8488 103.373H45.1503C44.8009 103.373 44.4713 103.212 44.2567 102.936C44.0421 102.661 43.9665 102.302 44.0521 101.963L48.0967 85.9351C48.2499 85.3284 48.8657 84.9613 49.4722 85.1138C50.0787 85.267 50.4464 85.8828 50.2932 86.4893L46.6046 101.107H69.395L65.6734 86.3588C65.5203 85.7523 65.888 85.1362 66.4945 84.9833C67.1019 84.8306 67.717 85.1979 67.87 85.8046L71.9472 101.963C72.0328 102.302 71.9572 102.661 71.7426 102.936C71.528 103.212 71.1982 103.373 70.8488 103.373Z" fill="#243C70"/>
<path d="M103.312 24.7671V82.3706C103.312 84.2465 101.79 85.769 99.9141 85.769H16.0859C14.21 85.769 12.6875 84.2465 12.6875 82.3706V24.7671C12.6875 22.8912 14.21 21.3687 16.0859 21.3687H99.9141C101.79 21.3687 103.312 22.8912 103.312 24.7671Z" fill="white"/>
<path d="M99.9141 21.3687H80.4297V85.769H99.9141C101.79 85.769 103.312 84.2465 103.312 82.3706V24.7671C103.312 22.8912 101.79 21.3687 99.9141 21.3687Z" fill="#CCEEE3"/>
<path d="M99.1199 42.926L97.4909 37.2053C97.3527 36.7182 96.9064 36.3806 96.4012 36.3806H90.8731C90.3678 36.3806 89.9215 36.7182 89.7833 37.2053L88.1543 42.926C85.8706 43.4856 83.7205 44.3851 81.763 45.5723L76.5656 42.6791C76.1238 42.4321 75.571 42.5091 75.213 42.8671L71.3048 46.7776C70.9469 47.1355 70.8698 47.6861 71.1145 48.1301L74.01 53.3275C72.8228 55.285 71.9211 57.4351 71.3615 59.7165L65.6408 61.3478C65.1537 61.486 64.8184 61.9301 64.8184 62.4376V67.9657C64.8184 68.4709 65.1537 68.915 65.6408 69.0555L71.3615 70.6844C71.7451 72.25 72.2915 73.7519 72.9794 75.1726H89.4863C85.5821 73.5457 82.8369 69.6957 82.8369 65.2016C82.8369 59.2362 87.6717 54.4014 93.6371 54.4014C97.8761 54.4014 101.542 56.8415 103.311 60.394V44.3987C101.979 43.7779 100.577 43.284 99.1199 42.926Z" fill="#FF7EB8"/>
<path d="M99.1199 42.926L97.4909 37.2053C97.3527 36.7182 96.9064 36.3806 96.4012 36.3806H90.8731C90.3678 36.3806 89.9215 36.7182 89.7833 37.2053L88.1543 42.926C85.8706 43.4856 83.7205 44.3851 81.763 45.5723L76.5656 42.6791C76.1238 42.4321 75.571 42.5091 75.213 42.8671L71.3048 46.7776C70.9469 47.1355 70.8698 47.6861 71.1145 48.1301L74.01 53.3275C72.8228 55.285 71.9211 57.4351 71.3615 59.7165L65.6408 61.3478C65.1537 61.486 64.8184 61.9301 64.8184 62.4376V67.9657C64.8184 68.4709 65.1537 68.915 65.6408 69.0555L71.3615 70.6844C71.7451 72.25 72.2915 73.7519 72.9794 75.1726H89.4863C85.5821 73.5457 82.8369 69.6957 82.8369 65.2016C82.8369 59.2362 87.6717 54.4014 93.6371 54.4014C97.8761 54.4014 101.542 56.8415 103.311 60.394V44.3987C101.979 43.7779 100.577 43.284 99.1199 42.926Z" fill="#02BF7F"/>
<path d="M103.312 32.2831V24.7678C103.312 22.891 101.791 21.3694 99.9141 21.3694H16.0859C14.2091 21.3694 12.6875 22.891 12.6875 24.7678V32.2831H103.312Z" fill="#1E80F3"/>
<path d="M103.312 33.416H12.6875C12.0617 33.416 11.5547 32.9087 11.5547 32.2832C11.5547 31.6577 12.0617 31.1504 12.6875 31.1504H103.312C103.938 31.1504 104.445 31.6577 104.445 32.2832C104.445 32.9087 103.938 33.416 103.312 33.416Z" fill="#243C70"/>
<path d="M12.6875 74.3528V82.3708C12.6875 84.2477 14.2091 85.7693 16.0859 85.7693H99.9141C101.791 85.7693 103.312 84.2477 103.312 82.3708V74.3528H12.6875Z" fill="#78B5EE"/>
<path d="M103.187 75.4856H19.9277C19.302 75.4856 18.7949 74.9783 18.7949 74.3528C18.7949 73.7272 19.302 73.22 19.9277 73.22H103.187C103.812 73.22 104.32 73.7272 104.32 74.3528C104.32 74.9783 103.813 75.4856 103.187 75.4856Z" fill="#243C70"/>
<path d="M75.2045 103.373H40.7969C40.1711 103.373 39.6641 102.866 39.6641 102.24C39.6641 101.615 40.1711 101.108 40.7969 101.108H75.2043C75.83 101.108 76.3371 101.615 76.3371 102.24C76.3371 102.866 75.83 103.373 75.2045 103.373Z" fill="#243C70"/>
<path d="M21.3164 27.9757C20.6906 27.9757 20.1836 27.4684 20.1836 26.8429V26.8098C20.1836 26.1843 20.6906 25.677 21.3164 25.677C21.9422 25.677 22.4492 26.1843 22.4492 26.8098V26.8429C22.4492 27.4684 21.9422 27.9757 21.3164 27.9757Z" fill="#243C70"/>
<path d="M25.6934 27.9757C25.0676 27.9757 24.5605 27.4684 24.5605 26.8429V26.8098C24.5605 26.1843 25.0676 25.677 25.6934 25.677C26.3191 25.677 26.8262 26.1843 26.8262 26.8098V26.8429C26.8262 27.4684 26.3191 27.9757 25.6934 27.9757Z" fill="#243C70"/>
<path d="M30.0723 27.9757C29.4465 27.9757 28.9395 27.4684 28.9395 26.8429V26.8098C28.9395 26.1843 29.4465 25.677 30.0723 25.677C30.698 25.677 31.2051 26.1843 31.2051 26.8098V26.8429C31.2051 27.4684 30.698 27.9757 30.0723 27.9757Z" fill="#243C70"/>
<path d="M99.9141 86.9019H16.0859C13.5874 86.9019 11.5547 84.8692 11.5547 82.3707V24.7678C11.5547 22.2693 13.5874 20.2366 16.0859 20.2366H99.9141C102.413 20.2366 104.445 22.2693 104.445 24.7678V32.2831C104.445 32.9087 103.938 33.4159 103.312 33.4159C102.687 33.4159 102.18 32.9087 102.18 32.2831V24.7678C102.18 23.5186 101.163 22.5022 99.9141 22.5022H16.0859C14.8367 22.5022 13.8203 23.5186 13.8203 24.7678V82.3709C13.8203 83.6201 14.8367 84.6365 16.0859 84.6365H99.9141C101.163 84.6365 102.18 83.6201 102.18 82.3709V38.5229C102.18 37.8973 102.687 37.3901 103.312 37.3901C103.938 37.3901 104.445 37.8973 104.445 38.5229V82.3709C104.445 84.8692 102.413 86.9019 99.9141 86.9019Z" fill="#243C70"/>
<path d="M58.8398 62.1394H21.0624C20.4357 62.1394 19.9277 61.6314 19.9277 61.0047C19.9277 60.3781 20.4357 59.8701 21.0624 59.8701H58.8398C59.4665 59.8701 59.9745 60.3781 59.9745 61.0047C59.9745 61.6314 59.4665 62.1394 58.8398 62.1394Z" fill="#B7C5FF"/>
<path d="M45.2461 52.6257H21.0624C20.4357 52.6257 19.9277 52.1177 19.9277 51.4911C19.9277 50.8644 20.4357 50.3564 21.0624 50.3564H45.2461C45.8728 50.3564 46.3807 50.8644 46.3807 51.4911C46.3807 52.1177 45.8728 52.6257 45.2461 52.6257Z" fill="#FFA8CF"/>
<path d="M58.8398 66.6403H21.0624C20.4357 66.6403 19.9277 66.1324 19.9277 65.5057C19.9277 64.879 20.4357 64.3711 21.0624 64.3711H58.8398C59.4665 64.3711 59.9745 64.879 59.9745 65.5057C59.9745 66.1322 59.4665 66.6403 58.8398 66.6403Z" fill="#B7C5FF"/>
<path d="M24.0411 45.8701C23.7513 45.8701 23.4611 45.7596 23.2402 45.5384L20.5135 42.8118C20.071 42.3693 20.071 41.652 20.5135 41.2097L23.2402 38.4831C23.6822 38.0408 24.4 38.0408 24.842 38.4831C25.2845 38.9255 25.2845 39.6428 24.842 40.0851L22.9164 42.0109L24.842 43.9366C25.2845 44.3791 25.2845 45.0964 24.842 45.5387C24.6211 45.7596 24.3309 45.8701 24.0411 45.8701Z" fill="#4369FD"/>
<path d="M34.6367 45.8703C34.3469 45.8703 34.0567 45.7598 33.8358 45.5387C33.3933 45.0962 33.3933 44.3789 33.8358 43.9366L35.7613 42.0109L33.8358 40.0851C33.3933 39.6426 33.3933 38.9253 33.8358 38.4831C34.2778 38.0408 34.9955 38.0408 35.4376 38.4831L38.1642 41.2097C38.6067 41.6522 38.6067 42.3695 38.1642 42.8118L35.4376 45.5384C35.2164 45.7598 34.9264 45.8703 34.6367 45.8703Z" fill="#4369FD"/>
<path d="M27.7979 45.8704C27.6092 45.8704 27.418 45.8233 27.2422 45.7238C26.6973 45.4162 26.5049 44.7251 26.8126 44.1803L29.8921 38.7269C30.1995 38.1822 30.8907 37.9899 31.4354 38.2973C31.9803 38.605 32.1726 39.296 31.865 39.8409L28.7855 45.2943C28.5771 45.6631 28.1931 45.8704 27.7979 45.8704Z" fill="#4369FD"/>
<path d="M85.8789 66.6405H82.2539C81.8785 66.6405 81.5742 66.3363 81.5742 65.9609V52.1709C81.5742 51.7955 81.8785 51.4912 82.2539 51.4912H85.8789C86.2543 51.4912 86.5586 51.7955 86.5586 52.1709V65.9609C86.5586 66.3363 86.2543 66.6405 85.8789 66.6405Z" fill="#F5CA2A"/>
<path d="M78.4668 66.6406H74.8418C74.4664 66.6406 74.1621 66.3363 74.1621 65.9609V57.4292C74.1621 57.0538 74.4664 56.7495 74.8418 56.7495H78.4668C78.8422 56.7495 79.1465 57.0538 79.1465 57.4292V65.9609C79.1465 66.3363 78.8422 66.6406 78.4668 66.6406Z" fill="#F5CA2A"/>
<path d="M93.2891 66.6403H89.6641C89.2886 66.6403 88.9844 66.336 88.9844 65.9606V48.2117C88.9844 47.8363 89.2886 47.532 89.6641 47.532H93.2891C93.6645 47.532 93.9688 47.8363 93.9688 48.2117V65.9606C93.9688 66.336 93.6645 66.6403 93.2891 66.6403Z" fill="#F5CA2A"/>
<path d="M69.9481 40.6838C70.6476 40.6838 71.2146 40.1168 71.2146 39.4174C71.2146 38.7179 70.6476 38.1509 69.9481 38.1509C69.2487 38.1509 68.6816 38.7179 68.6816 39.4174C68.6816 40.1168 69.2487 40.6838 69.9481 40.6838Z" fill="#1E80F3"/>
<path d="M66.118 40.6838C66.8175 40.6838 67.3845 40.1168 67.3845 39.4174C67.3845 38.7179 66.8175 38.1509 66.118 38.1509C65.4186 38.1509 64.8516 38.7179 64.8516 39.4174C64.8516 40.1168 65.4186 40.6838 66.118 40.6838Z" fill="#1E80F3"/>
<path d="M62.286 40.6838C62.9855 40.6838 63.5525 40.1168 63.5525 39.4174C63.5525 38.7179 62.9855 38.1509 62.286 38.1509C61.5866 38.1509 61.0195 38.7179 61.0195 39.4174C61.0195 40.1168 61.5866 40.6838 62.286 40.6838Z" fill="#1E80F3"/>
<defs>
<linearGradient id="paint0_linear_361_124" x1="15.5451" y1="-1.40496" x2="93.3688" y2="114.775" gradientUnits="userSpaceOnUse">
<stop offset="0.0485" stop-color="#CAECE5"/>
<stop offset="0.9993" stop-color="#B3CCF5"/>
</linearGradient>
</defs>
</svg>
