<svg width="263" height="263" viewBox="0 0 263 263" fill="none" xmlns="http://www.w3.org/2000/svg">
<rect width="185.338" height="185.596" transform="matrix(0.705782 0.708429 -0.705782 0.708429 131.658 0.130371)" fill="white"/>
<path d="M131.5 0L63.4983 68.0172V101.572C76.5582 89.3293 91.8699 90.6897 104.029 99.3052C111.235 104.293 122.043 116.99 122.043 116.99L121.592 139.209C110.784 126.059 110.334 125.605 103.128 118.803C81.512 97.0379 66.6507 120.164 66.6507 120.164C64.8493 122.884 63.9486 126.059 63.9486 129.686C63.9486 133.767 65.2997 137.848 68.0017 141.022C68.0017 141.022 84.214 159.614 103.579 138.755L113.036 150.091C90.0685 174.578 63.4983 159.16 63.4983 159.16V163.695H46.8356V84.7948L0 131.5L131.5 263L263 131.5L131.5 0ZM196.8 163.241V120.164C196.8 116.083 194.998 112.455 191.396 110.188C187.342 107.467 181.488 105.653 174.733 110.188C171.58 112.455 169.779 116.083 169.779 119.71V162.788H150.414V119.71C149.964 113.362 145.461 109.734 145.461 109.734C143.659 107.921 135.553 102.933 126.096 109.281L108.533 91.1431H142.308C149.063 91.1431 156.269 93.8638 161.673 100.666C164.825 97.0379 171.13 91.1431 181.038 91.1431H186.442C200.853 91.1431 213.462 97.0379 215.714 114.269L216.164 163.241H196.8Z" fill="#FF2E1A"/>
</svg>
