<svg width="24" height="17" viewBox="0 0 24 17" fill="none" xmlns="http://www.w3.org/2000/svg">
<path d="M11.9998 4.90918C10.1943 4.90918 8.72705 6.37644 8.72705 8.18191C8.72705 9.98738 10.1943 11.4546 11.9998 11.4546C13.8053 11.4546 15.2725 9.98738 15.2725 8.18191C15.2725 6.37644 13.8052 4.90918 11.9998 4.90918Z" fill="#87879E"/>
<path d="M12 0C6.54546 0 1.88729 3.3927 0 8.18183C1.88729 12.9709 6.54546 16.3637 12 16.3637C17.46 16.3637 22.1128 12.9709 24.0001 8.18183C22.1128 3.3927 17.46 0 12 0ZM12 13.6363C8.98911 13.6363 6.54546 11.1927 6.54546 8.18178C6.54546 5.17086 8.98911 2.72726 12 2.72726C15.0109 2.72726 17.4546 5.17092 17.4546 8.18183C17.4546 11.1927 15.0109 13.6363 12 13.6363Z" fill="#87879E"/>
</svg>
