<svg width="22" height="22" viewBox="0 0 22 22" fill="none" xmlns="http://www.w3.org/2000/svg">
<g clip-path="url(#clip0_381_83)">
<path d="M21.6094 4.49127L15.0586 10.9999L21.6094 17.5086C21.7278 17.261 21.7997 16.9874 21.7997 16.6952V5.3046C21.7997 5.01237 21.7278 4.73879 21.6094 4.49127Z" fill="#02BF7F"/>
<path d="M19.9016 3.40614H2.09849C1.80626 3.40614 1.53267 3.47799 1.28516 3.59641L9.65781 11.9269C10.3981 12.6672 11.602 12.6672 12.3423 11.9269L20.7149 3.59641C20.4674 3.47799 20.1938 3.40614 19.9016 3.40614Z" fill="#02BF7F"/>
<path d="M0.389484 4.49127C0.271064 4.73879 0.199219 5.01237 0.199219 5.3046V16.6952C0.199219 16.9875 0.271064 17.2611 0.389484 17.5086L6.94032 10.9999L0.389484 4.49127Z" fill="#02BF7F"/>
<path d="M14.1641 11.8949L13.2371 12.8218C12.0036 14.0554 9.99645 14.0554 8.76293 12.8218L7.83599 11.8949L1.28516 18.4035C1.53267 18.5219 1.80626 18.5938 2.09849 18.5938H19.9016C20.1938 18.5938 20.4674 18.5219 20.7149 18.4035L14.1641 11.8949Z" fill="#02BF7F"/>
</g>
<defs>
<clipPath id="clip0_381_83">
<rect width="21.6" height="21.6" fill="white" transform="translate(0.199219 0.19989)"/>
</clipPath>
</defs>
</svg>
