<svg width="32" height="32" viewBox="0 0 32 32" fill="none" xmlns="http://www.w3.org/2000/svg">
<path d="M30.5455 17.4547H4.96611L9.75583 22.2445C10.3239 22.8124 10.3239 23.7334 9.75583 24.3015C9.4718 24.5854 9.09954 24.7275 8.72727 24.7275C8.355 24.7275 7.98274 24.5854 7.69881 24.3014L0.426085 17.0287C-0.141964 16.4607 -0.141964 15.5397 0.426085 14.9716L7.69881 7.69891C8.26676 7.13096 9.18778 7.13096 9.75583 7.69891C10.3239 8.26686 10.3239 9.18788 9.75583 9.75593L4.96611 14.5457H30.5455C31.3488 14.5457 32 15.1969 32 16.0002C32 16.8035 31.3488 17.4547 30.5455 17.4547Z" fill="#DDE2ED"/>
</svg>
