<svg width="32" height="32" viewBox="0 0 32 32" fill="none" xmlns="http://www.w3.org/2000/svg">
<path fill-rule="evenodd" clip-rule="evenodd" d="M19.5241 8.6785H15.7275C15.4279 8.6785 15.1851 8.43568 15.1851 8.13613C15.1851 7.83659 15.4279 7.59376 15.7275 7.59376H19.5241C19.8236 7.59376 20.0664 7.35093 20.0664 7.05139V3.25478C20.0664 2.95523 20.3093 2.7124 20.6088 2.7124C20.9083 2.7124 21.1512 2.95523 21.1512 3.25478V7.05139C21.1512 7.95002 20.4227 8.6785 19.5241 8.6785Z" fill="white"/>
<path fill-rule="evenodd" clip-rule="evenodd" d="M22.2359 10.8482H15.7275C15.4279 10.8482 15.1851 10.6053 15.1851 10.3058C15.1851 10.0063 15.4279 9.76343 15.7275 9.76343H22.2359C22.5355 9.76343 22.7783 10.0063 22.7783 10.3058C22.7783 10.6053 22.5355 10.8482 22.2359 10.8482Z" fill="white"/>
<path fill-rule="evenodd" clip-rule="evenodd" d="M20.6088 28.7461C20.3093 28.7461 20.0664 28.5033 20.0664 28.2037V24.4071C20.0664 24.1076 19.8236 23.8648 19.5241 23.8648H15.7275C15.4279 23.8648 15.1851 23.6219 15.1851 23.3224C15.1851 23.0229 15.4279 22.78 15.7275 22.78H19.5241C20.4227 22.78 21.1512 23.5085 21.1512 24.4071V28.2037C21.1512 28.5033 20.9083 28.7461 20.6088 28.7461Z" fill="white"/>
<path fill-rule="evenodd" clip-rule="evenodd" d="M22.2359 21.6953H15.7275C15.4279 21.6953 15.1851 21.4525 15.1851 21.153C15.1851 20.8534 15.4279 20.6106 15.7275 20.6106H22.2359C22.5355 20.6106 22.7783 20.8534 22.7783 21.153C22.7783 21.4525 22.5355 21.6953 22.2359 21.6953Z" fill="white"/>
<path fill-rule="evenodd" clip-rule="evenodd" d="M29.2868 16.2718H15.7275C15.4279 16.2718 15.1851 16.0289 15.1851 15.7294C15.1851 15.4298 15.4279 15.187 15.7275 15.187H29.2868C29.5863 15.187 29.8292 15.4298 29.8292 15.7294C29.8292 16.0289 29.5863 16.2718 29.2868 16.2718Z" fill="white"/>
<path fill-rule="evenodd" clip-rule="evenodd" d="M26.0325 23.3227C25.733 23.3227 25.4902 23.0798 25.4902 22.7803V19.526C25.4902 19.2265 25.2473 18.9837 24.9478 18.9837H15.7275C15.4279 18.9837 15.1851 18.7408 15.1851 18.4413C15.1851 18.1418 15.4279 17.8989 15.7275 17.8989H24.9478C25.8464 17.8989 26.5749 18.6274 26.5749 19.526V22.7803C26.5749 23.0798 26.3321 23.3227 26.0325 23.3227Z" fill="white"/>
<path fill-rule="evenodd" clip-rule="evenodd" d="M24.9478 13.5597H15.7275C15.4279 13.5597 15.1851 13.3169 15.1851 13.0173C15.1851 12.7178 15.4279 12.475 15.7275 12.475H24.9478C25.2473 12.475 25.4902 12.2321 25.4902 11.9326V8.67836C25.4902 8.37881 25.733 8.13599 26.0325 8.13599C26.3321 8.13599 26.5749 8.37881 26.5749 8.67836V11.9326C26.5749 12.8312 25.8464 13.5597 24.9478 13.5597Z" fill="white"/>
<path fill-rule="evenodd" clip-rule="evenodd" d="M5.42246 15.7294C5.42173 21.2176 9.71958 25.7447 15.2004 26.0291C15.4932 26.039 15.726 26.2784 15.7275 26.5714V30.9158C15.7267 31.0648 15.6651 31.2069 15.5569 31.3093C15.4488 31.4117 15.3035 31.4655 15.1548 31.4582C14.8511 31.4452 14.5495 31.4224 14.2523 31.3888C13.8232 31.335 13.4821 31.0027 13.417 30.5752L13.0753 28.4855C11.4773 28.1554 9.95678 27.5236 8.59534 26.6241L6.87059 27.8612C6.52107 28.1183 6.04377 28.1139 5.69907 27.8504C5.32483 27.5358 4.96144 27.2104 4.6089 26.8573C4.25943 26.51 3.92814 26.1448 3.61635 25.7633C3.35225 25.4184 3.34782 24.9404 3.60551 24.5907L4.84212 22.867C3.94306 21.5042 3.3117 19.9827 2.98178 18.3838L0.893643 18.0415C0.460069 17.9692 0.127582 17.6172 0.0800833 17.1803C-0.0266944 16.2069 -0.0266944 15.2248 0.0800833 14.2514C0.133833 13.8223 0.466055 13.4809 0.893643 13.4156L2.98178 13.074C3.3117 11.475 3.94306 9.95349 4.84212 8.5907L3.60551 6.86595C3.34891 6.51665 3.35333 6.04 3.61635 5.69551C3.92527 5.31206 4.25671 4.94731 4.6089 4.60317C4.95497 4.25345 5.31885 3.92181 5.69907 3.60955C6.04377 3.34598 6.52107 3.34156 6.87059 3.5987L8.59534 4.83639C9.95687 3.93686 11.4773 3.30494 13.0753 2.97443L13.417 0.885207C13.4834 0.457175 13.8231 0.12362 14.2523 0.0651391C14.5488 0.0354894 14.8502 0.0139753 15.1564 0.000596777C15.3049 -0.00635091 15.4498 0.0476036 15.5577 0.149983C15.6655 0.252362 15.7268 0.394299 15.7275 0.54297V4.88846C15.726 5.18148 15.4932 5.42094 15.2004 5.43083C9.72 5.71513 5.4223 10.2417 5.42246 15.7294Z" fill="white"/>
<path fill-rule="evenodd" clip-rule="evenodd" d="M15.7276 23.3467C15.729 23.4832 15.6742 23.6142 15.5762 23.7091C15.4782 23.804 15.3455 23.8546 15.2091 23.8489C10.9242 23.5775 7.58783 20.0231 7.58783 15.7296C7.58783 11.4361 10.9242 7.8817 15.2091 7.61029C15.3455 7.60464 15.4782 7.65519 15.5762 7.75013C15.6742 7.84507 15.729 7.97608 15.7276 8.11253V23.3467Z" fill="#285680"/>
<path fill-rule="evenodd" clip-rule="evenodd" d="M20.609 3.79721C19.7104 3.79721 18.9819 3.06872 18.9819 2.17009C18.9819 1.27145 19.7104 0.542969 20.609 0.542969C21.5076 0.542969 22.2361 1.27145 22.2361 2.17009C22.2361 2.60163 22.0647 3.01549 21.7595 3.32063C21.4544 3.62578 21.0405 3.79721 20.609 3.79721Z" fill="#02BF7F"/>
<path fill-rule="evenodd" clip-rule="evenodd" d="M20.609 30.9158C19.7104 30.9158 18.9819 30.1874 18.9819 29.2887C18.9819 28.3901 19.7104 27.6616 20.609 27.6616C21.5076 27.6616 22.2361 28.3901 22.2361 29.2887C22.2361 30.1874 21.5076 30.9158 20.609 30.9158Z" fill="#02BF7F"/>
<path fill-rule="evenodd" clip-rule="evenodd" d="M26.0326 25.492C25.134 25.492 24.4055 24.7635 24.4055 23.8649C24.4055 22.9663 25.134 22.2378 26.0326 22.2378C26.9312 22.2378 27.6597 22.9663 27.6597 23.8649C27.6597 24.7635 26.9312 25.492 26.0326 25.492Z" fill="#02BF7F"/>
<path fill-rule="evenodd" clip-rule="evenodd" d="M30.3717 17.3565C29.4731 17.3565 28.7446 16.628 28.7446 15.7294C28.7446 14.8308 29.4731 14.1023 30.3717 14.1023C31.2703 14.1023 31.9988 14.8308 31.9988 15.7294C31.9988 16.628 31.2703 17.3565 30.3717 17.3565Z" fill="#02BF7F"/>
<path fill-rule="evenodd" clip-rule="evenodd" d="M26.0326 9.22079C25.134 9.22079 24.4055 8.4923 24.4055 7.59367C24.4055 6.69504 25.134 5.96655 26.0326 5.96655C26.9312 5.96655 27.6597 6.69504 27.6597 7.59367C27.6597 8.4923 26.9312 9.22079 26.0326 9.22079Z" fill="#02BF7F"/>
</svg>
